<?xml version="1.0" encoding="UTF-8" standalone="no"?>
<!-- Created with Inkscape (http://www.inkscape.org/) -->

<svg
   version="1.1"
   id="svg1"
   width="682.66669"
   height="682.66669"
   viewBox="0 0 682.66669 682.66669"
   sodipodi:docname="attendance.svg"
   inkscape:export-filename="attendance.png"
   inkscape:export-xdpi="72"
   inkscape:export-ydpi="72"
   inkscape:version="1.4 (86a8ad7, 2024-10-11)"
   xmlns:inkscape="http://www.inkscape.org/namespaces/inkscape"
   xmlns:sodipodi="http://sodipodi.sourceforge.net/DTD/sodipodi-0.dtd"
   xmlns="http://www.w3.org/2000/svg"
   xmlns:svg="http://www.w3.org/2000/svg">
  <defs
     id="defs1" />
  <sodipodi:namedview
     id="namedview1"
     pagecolor="#ffffff"
     bordercolor="#000000"
     borderopacity="0.25"
     inkscape:showpageshadow="2"
     inkscape:pageopacity="0.0"
     inkscape:pagecheckerboard="0"
     inkscape:deskcolor="#d1d1d1"
     showgrid="false"
     inkscape:zoom="1.1821289"
     inkscape:cx="352.33045"
     inkscape:cy="367.55722"
     inkscape:window-width="1920"
     inkscape:window-height="1009"
     inkscape:window-x="-8"
     inkscape:window-y="-8"
     inkscape:window-maximized="1"
     inkscape:current-layer="g1" />
  <g
     inkscape:groupmode="layer"
     inkscape:label="Image"
     id="g1">
    <path
       id="path1"
       style="fill:#000000"
       d="m 339.3418,10.556641 c -2.55704,0.08448 -5.10896,0.312627 -7.64063,0.68164 -0.38304,0.06747 -1.1206,0.171786 -1.52395,0.245495 -3.27999,0.55746 -6.51618,1.365044 -9.68113,2.389271 -0.67135,0.22436 -1.64071,0.553886 -2.41797,0.839844 -3.60409,1.32913 -7.09695,2.958869 -10.42968,4.86914 -0.64649,0.378766 -1.54852,0.909823 -2.27758,1.372274 -9.6927,6.117 -17.85088,14.580565 -23.84974,24.328779 -3.69355,6.055253 -6.2957,12.772632 -7.55856,19.755757 -1.26217,6.632876 -1.50743,13.428331 -1.10514,20.158425 0.0318,0.495328 0.0921,1.314237 0.13477,1.933593 0.0428,0.393646 0.11323,1.195368 0.1666,1.745216 1.03403,9.984504 4.53815,19.734075 10.32873,27.952375 4.72952,6.84572 10.46879,13.01754 17.04141,18.12646 5.08653,3.90285 10.74366,7.05917 16.73474,9.34197 0.76635,0.28211 1.80129,0.66172 2.68348,0.94831 11.1468,3.64248 23.22074,4.24384 34.73147,2.11638 10.58346,-2.02684 20.48151,-6.97393 28.8661,-13.68626 7.56542,-6.04954 14.24516,-13.36486 18.81349,-21.95356 1.78392,-3.28608 3.31669,-6.931 4.41913,-10.37019 3.36739,-10.77564 4.01959,-22.339481 2.28458,-33.474753 -0.62647,-3.951237 -1.63395,-7.836692 -2.93887,-11.617041 C 405.99129,55.91509 405.7124,55.131415 405.5243,54.618639 401.17449,43.049524 393.58103,32.718721 383.77641,25.18342 371.20784,15.449181 355.26239,10.054535 339.3418,10.556641 Z m 0.69531,32.503906 c 8.34788,-0.07097 16.95264,1.831744 23.8494,6.708688 8.0445,5.552508 12.93929,15.012076 13.71478,24.666343 0.76587,8.054683 -0.34442,16.433458 -4.02475,23.699202 -3.32119,6.4483 -8.92979,11.6348 -15.54724,14.57849 -12.71595,5.90206 -28.63473,4.46221 -39.87174,-4.01041 -7.25693,-5.40597 -12.20056,-13.940813 -12.85868,-23.008414 -0.4249,-4.386614 -0.63852,-8.8119 -0.37209,-13.214162 0.30378,-3.66535 1.50386,-7.228181 3.41005,-10.369139 3.49547,-6.322996 8.58269,-11.929173 15.08894,-15.216614 5.10509,-2.652859 10.89189,-3.76023 16.61133,-3.833984 z M 131.89258,64.099609 c -13.16774,0.247006 -26.26829,4.293171 -37.163006,11.720174 -13.79288,9.282838 -23.972394,23.728151 -28.215902,39.789597 -1.712553,6.81801 -2.088634,13.90695 -1.86147,20.91141 0.267802,7.33404 1.55193,14.70432 4.45522,21.4753 6.735236,16.4395 19.893818,30.34204 36.078198,37.85131 5.76275,2.70654 11.92563,4.55302 18.23626,5.41041 0.57193,0.077 1.48333,0.19552 2.18748,0.26722 6.82637,0.72892 13.79615,0.663 20.50858,-0.89708 8.05595,-1.72816 15.99147,-4.42468 22.99301,-8.83896 4.25444,-2.64489 8.18447,-5.79083 11.78553,-9.26946 0.28533,-0.29311 0.85432,-0.84301 1.24535,-1.23981 3.82925,-3.87413 7.30253,-8.11328 10.21169,-12.72308 0.38755,-0.61208 0.92208,-1.49357 1.34422,-2.22372 3.69004,-6.30779 6.11975,-13.31702 7.27501,-20.52652 1.38312,-8.40855 1.32526,-17.03933 0.0456,-25.45656 -1.59248,-10.10646 -5.74498,-19.78303 -11.95185,-27.915278 -6.16399,-7.992304 -13.78373,-14.920383 -22.51957,-20.004874 -4.19264,-2.413112 -8.85876,-4.339459 -13.39063,-5.66211 -2.39529,-0.696126 -4.88704,-1.260895 -7.26079,-1.670517 -2.35259,-0.408587 -4.94542,-0.694139 -7.1396,-0.829483 -2.28528,-0.140426 -4.57387,-0.195596 -6.86328,-0.167969 z m 416,0 c -7.76762,0.15554 -15.50979,1.609918 -22.79492,4.3125 -0.43715,0.163684 -1.01202,0.377831 -1.46821,0.566403 -5.7691,2.295752 -11.20829,5.40904 -16.14507,9.171879 -0.68705,0.525887 -1.58416,1.239173 -2.33022,1.868655 -2.73076,2.273712 -5.38126,4.888897 -7.65221,7.488766 -3.81656,4.355911 -7.08253,9.191446 -9.71093,14.351568 -0.51267,1.02287 -1.12969,2.27916 -1.63376,3.41586 -2.14596,4.84023 -3.81343,9.92009 -4.64164,15.15835 -0.0749,0.53075 -0.21501,1.40235 -0.29404,2.06657 -0.19314,1.48841 -0.32077,2.82165 -0.43252,4.3475 -0.60207,9.73968 0.0186,19.74483 3.44395,28.96253 4.49,11.97851 12.24202,22.69269 22.16966,30.75434 9.86466,8.03813 21.9448,13.52567 34.64585,14.89927 1.74206,0.21459 3.70899,0.34363 5.32453,0.42487 5.14118,0.24991 10.32326,-0.0462 15.35404,-1.17569 8.19064,-1.72953 16.26848,-4.4376 23.38386,-8.92399 4.25444,-2.64489 8.18447,-5.79083 11.78553,-9.26946 0.28533,-0.29311 0.85432,-0.84301 1.24535,-1.23981 3.82925,-3.87413 7.30253,-8.11328 10.21169,-12.72308 0.38755,-0.61208 0.92208,-1.49357 1.34422,-2.22372 3.69004,-6.30779 6.11975,-13.31702 7.27501,-20.52652 1.38312,-8.40855 1.32526,-17.03933 0.0455,-25.45656 -1.59248,-10.10646 -5.74498,-19.78303 -11.95185,-27.915278 -6.16399,-7.992304 -13.78373,-14.920383 -22.51957,-20.004874 -4.19264,-2.413112 -8.85876,-4.339459 -13.39063,-5.66211 -2.39529,-0.696126 -4.88704,-1.260895 -7.26079,-1.670517 -2.35259,-0.408587 -4.94542,-0.694139 -7.1396,-0.829483 -2.28528,-0.140426 -4.57387,-0.195596 -6.86328,-0.167969 z M 132.04297,96.394531 c 8.34645,-0.07085 16.94769,1.831308 23.84354,6.706739 8.05064,5.55896 12.94717,15.02819 13.71819,24.69169 0.7524,7.92551 -0.32621,16.15329 -3.85461,23.34225 -3.26982,6.51619 -8.8516,11.79671 -15.48466,14.8023 -12.70583,6.00049 -28.67249,4.63469 -39.97832,-3.79493 -7.29998,-5.4036 -12.311791,-13.95039 -12.98195,-23.05569 -0.432779,-4.43356 -0.65024,-8.90656 -0.372461,-13.35634 0.310572,-3.67506 1.549465,-7.23444 3.459101,-10.38097 3.62441,-6.54711 8.99786,-12.30651 15.83649,-15.51578 4.90539,-2.378056 10.39244,-3.364917 15.81468,-3.439269 z m 416,0 c 8.34645,-0.07085 16.94769,1.831308 23.84354,6.706739 8.05064,5.55896 12.94717,15.02819 13.71819,24.69169 0.7524,7.92551 -0.32621,16.15329 -3.85461,23.34225 -3.26982,6.51619 -8.8516,11.79671 -15.48466,14.8023 -12.70583,6.00049 -28.67249,4.63469 -39.97832,-3.79493 -7.29998,-5.4036 -12.31179,-13.95039 -12.98195,-23.05569 -0.43278,-4.43356 -0.65024,-8.90656 -0.37246,-13.35634 0.31057,-3.67506 1.54946,-7.23444 3.4591,-10.38097 3.62441,-6.54711 8.99786,-12.30651 15.83649,-15.51578 4.90539,-2.378056 10.39244,-3.364917 15.81468,-3.439269 z M 338.03516,195.85938 c -2.71592,0.0493 -5.30197,0.11266 -8.03504,0.23762 -10.24851,0.44021 -20.48052,1.48369 -30.57043,3.35222 -19.25598,3.59648 -38.35674,10.40671 -54.41016,21.93354 -3.38131,2.42084 -6.74974,5.17465 -9.85547,8.0606 -0.98419,0.92339 -2.12645,2.02672 -3.13404,3.05741 -1.34369,1.36212 -2.56757,2.6948 -3.8514,4.16325 -2.33,2.66734 -4.50028,5.4731 -6.51065,8.38871 -0.52137,0.77654 -1.19818,1.77408 -1.75145,2.65682 -7.18704,11.27367 -11.9281,24.03641 -14.3091,37.17131 -0.26583,1.6653 -0.4654,3.23443 -0.61005,4.86145 -0.69033,8.31747 -0.69786,16.67184 -0.83977,25.01158 -0.19455,21.73752 -0.13762,43.47632 -0.14917,65.21447 0.0464,13.5582 0.0241,27.11919 0.37748,40.67376 0.10681,3.65935 0.27357,7.49796 0.53685,11.12963 0.0988,1.45363 0.19984,2.82539 0.3662,4.32225 0.21736,2.19661 0.58606,4.58913 1.00401,6.62084 0.70386,3.52351 1.86412,6.9414 3.40268,10.18673 2.8657,6.39922 6.06665,12.70801 10.33724,18.29886 5.80252,7.78442 12.86448,14.58983 20.66633,20.3523 0.3625,0.26592 1.02754,0.74166 1.5059,1.08794 4.78307,3.32951 9.79039,6.39423 14.07624,10.3786 3.1257,2.79454 5.71285,6.12893 7.9192,9.68216 1.75468,2.86998 3.47378,5.82414 4.47095,9.05355 1.55624,5.38751 1.4806,11.04807 1.7662,16.59987 0.5759,15.66854 0.58747,31.3508 0.80382,47.027 0.22894,20.56274 0.35397,41.12751 0.83464,61.68651 0.0711,2.35443 0.16135,5.02887 0.30274,7.36719 0.0695,1.05686 0.13206,1.91824 0.22656,2.96875 0.0618,0.53996 0.1497,1.41263 0.20743,2.08533 0.38206,2.53803 1.90221,4.72971 3.46914,6.69109 1.79917,1.98955 4.17357,3.52538 6.77898,4.19598 2.76501,0.54139 5.63582,0.54225 8.42013,0.14419 3.75374,-0.59533 7.36975,-2.6131 9.40727,-5.88967 0.78446,-1.28376 1.63996,-2.57485 2.0897,-4.01803 0.38173,-2.35929 0.45404,-4.76069 0.60196,-7.14444 0.0274,-0.7206 0.0728,-1.75137 0.0907,-2.50923 0.46613,-23.78028 0.28414,-47.56678 0.31058,-71.35014 -0.0508,-15.26107 0.0214,-30.5296 -0.6,-45.78094 -0.22123,-4.91521 -0.78423,-9.83609 -2.12587,-14.58183 -4.13214,-15.64901 -12.85279,-30.07896 -24.93125,-40.87335 -1.74887,-1.57217 -3.46562,-2.99457 -5.35681,-4.43074 -4.77149,-3.70467 -10.08298,-6.65143 -14.76334,-10.48052 -5.98498,-4.72434 -11.21546,-10.54035 -14.61961,-17.40548 -1.72008,-3.35311 -3.20527,-6.8208 -4.89112,-10.19129 0.008,-39.76376 -0.0807,-79.52787 0.0983,-119.29134 0.0897,-9.0566 0.11047,-18.13546 1.01025,-27.15522 1.21348,-9.40018 4.86925,-18.41896 10.15302,-26.2591 4.8855,-7.22084 11.38019,-13.28096 18.72411,-17.95055 9.8692,-6.34092 21.01237,-10.4124 32.3019,-13.40833 6.97154,-1.78302 14.19434,-2.12353 21.34635,-2.53805 10.40799,-0.49105 20.83481,-0.55533 31.25137,-0.34362 8.03465,0.21333 16.08017,0.56893 24.06196,1.54778 6.47557,0.93406 12.72503,2.95956 18.89327,5.07908 11.22458,3.99689 22.0762,9.65542 30.71611,17.97756 7.17232,6.92212 12.63078,15.59347 15.76711,25.05506 1.95848,5.68952 2.87698,11.69435 3.0441,17.69828 0.54656,10.57448 0.45749,21.16793 0.54907,31.75287 0.1,29.30054 0.0317,58.60134 0.0557,87.90199 0,6.85221 0,13.70443 0,20.55664 -3.95424,7.14797 -7.00644,14.94982 -12.54502,21.0891 -2.85342,3.20939 -6.2813,5.82839 -9.79453,8.26857 -5.96807,4.36589 -11.99635,8.68317 -17.49639,13.64038 -0.80065,0.71771 -1.76798,1.6294 -2.59358,2.46784 -8.33744,8.44501 -14.26694,18.99366 -18.49317,30.0146 -1.78342,4.83486 -3.42825,9.77775 -4.10524,14.9049 -0.44081,3.74498 -0.58409,7.54463 -0.6689,11.24679 -0.43797,22.80279 -0.25203,45.61113 -0.2948,68.41665 0.0241,15.78733 -0.0662,31.57915 0.39788,47.36133 0.061,1.02934 0.11035,2.33019 0.21166,3.46097 0.12197,1.14082 0.14396,2.07739 0.39784,3.17815 0.68909,2.33688 2.27026,4.27807 3.79479,6.1265 2.5503,2.693 6.2368,4.12386 9.91472,4.2012 4.14469,0.26446 8.68082,-0.55548 11.73737,-3.57538 1.87628,-1.80897 3.47462,-3.98296 4.41054,-6.42181 0.55673,-2.45514 0.5724,-4.994 0.76228,-7.49535 0.16034,-3.28178 0.2675,-6.51528 0.33941,-9.75554 0.52044,-21.87556 0.60176,-43.75829 0.88493,-65.63756 0.18389,-14.43636 0.3104,-28.8773 0.89415,-43.30413 0.22596,-4.38366 0.47135,-8.80682 1.49428,-13.08883 1.4444,-5.17374 4.41679,-9.78018 7.77781,-13.91176 5.03969,-6.0605 11.53132,-10.64876 17.99278,-15.05977 2.51316,-1.76792 4.98084,-3.60443 7.33861,-5.57607 0.40173,-0.33935 1.06339,-0.91127 1.56476,-1.33976 2.87135,-2.52368 5.61076,-5.22872 8.09807,-8.0518 1.13538,-1.28726 2.1841,-2.54614 3.20545,-3.85266 1.06019,-1.34714 1.99131,-2.62567 2.9846,-4.06126 1.35737,-1.96728 2.64929,-4.04534 3.77798,-6.05194 1.38947,-2.46173 2.67945,-5.1484 3.76172,-7.6543 2.8624,-6.70993 5.00537,-13.77951 5.85471,-21.03967 0.69971,-6.96336 0.6665,-13.97133 0.84002,-20.96071 0.27553,-20.13949 0.18784,-40.28148 0.21289,-60.42227 -0.0176,-16.40458 -0.007,-32.81198 -0.43692,-49.21211 -0.18051,-6.13773 -0.45642,-12.41445 -1.11927,-18.57399 -0.64245,-6.16669 -2.09537,-12.24456 -4.37994,-18.01059 -2.67557,-6.84001 -5.66031,-13.60458 -9.68768,-19.7705 -2.03756,-3.19285 -4.2766,-6.25534 -6.6803,-9.18203 -0.61037,-0.7396 -1.40507,-1.67602 -2.11183,-2.4705 -10.99378,-12.41679 -25.21318,-21.69651 -40.49356,-27.97263 -10.62712,-4.38883 -21.78121,-7.42583 -33.09383,-9.42796 -1.48987,-0.2552 -3.30186,-0.55463 -4.81248,-0.7816 -3.10784,-0.46625 -6.16711,-0.848 -9.24963,-1.16607 -3.80388,-0.38969 -7.63958,-0.68202 -11.39412,-0.87613 -5.27125,-0.28126 -10.55113,-0.33888 -15.82892,-0.3012 z m 218.54687,53.86523 c -4.2989,0.1156 -8.85502,0.30793 -12.65422,2.55636 -2.8554,1.8532 -5.38332,4.47577 -6.52403,7.7337 -0.83654,2.69668 -0.84553,5.58568 -0.58013,8.37244 0.33426,2.86728 1.66455,5.59437 3.7686,7.57923 2.05866,2.12134 4.59457,3.89762 7.52829,4.51723 4.34026,0.96857 8.80296,1.18613 13.22723,1.49272 8.06363,0.45408 16.13129,1.12652 24.08092,2.59758 10.2854,1.88397 20.48454,4.97044 29.54456,10.28688 8.61898,5.07204 16.06783,12.45265 20.30409,21.59042 1.43745,3.02682 2.21322,6.32431 2.47831,9.65618 0.85253,8.50731 0.75892,17.06928 0.93717,25.60784 0.31117,24.19278 0.33188,48.38799 0.49378,72.58199 0.075,14.51748 0.15146,29.03495 0.22551,43.55243 -3.72655,7.16354 -6.65304,14.90769 -12.05774,21.04426 -3.61022,4.27586 -8.07471,7.68934 -12.23227,11.39593 -1.33796,1.21479 -2.62884,2.4801 -3.89944,3.76489 -0.27578,0.28326 -0.82943,0.86818 -1.21157,1.26692 -7.3119,7.72552 -13.25243,16.76698 -17.24548,26.63586 -1.91412,4.75886 -3.55606,9.64853 -4.62953,14.66879 -0.67089,3.24497 -0.90275,6.55756 -1.04233,9.86202 -0.0454,0.99839 -0.0751,2.26631 -0.0974,3.36827 -0.43134,18.01389 -0.25743,36.03441 -0.30834,54.05165 0.0313,13.8665 -0.0964,27.7395 0.42194,41.59889 0.0445,0.99919 0.0943,1.84067 0.20736,2.8807 0.1336,1.59816 0.58357,3.15224 1.41311,4.53041 1.27813,2.35922 3.02939,4.51692 5.3737,5.88156 1.7472,1.12469 3.76044,1.78472 5.83529,1.90727 3.98887,0.28152 8.2423,-0.008 11.70831,-2.20247 2.75629,-1.67768 4.56213,-4.51991 5.82737,-7.4169 0.63354,-1.93745 0.56988,-4.02105 0.79301,-6.03175 0.48711,-8.2878 0.55005,-16.53652 0.72814,-24.85588 0.39377,-27.76266 0.70037,-55.52644 1.03302,-83.28987 3.36971,-5.86181 6.25471,-12.09225 10.75792,-17.21022 3.84131,-4.63009 8.5227,-8.44287 13.00922,-12.41344 12.74906,-11.7745 22.31515,-27.22143 26.16059,-44.21619 1.41918,-6.37418 1.48072,-12.92992 1.68359,-19.42578 0.32398,-12.5172 0.27204,-25.20948 0.30773,-37.7949 -0.008,-23.34886 0.0863,-46.70006 -0.31626,-70.04637 -0.11006,-4.51426 -0.25626,-9.05323 -0.53443,-13.59037 -0.094,-1.31331 -0.19849,-2.99498 -0.3125,-4.31445 -0.56729,-6.61452 -1.71959,-13.27823 -4.5272,-19.34355 -3.81853,-8.90549 -8.53577,-17.55173 -15.0657,-24.77736 -5.82521,-6.57678 -12.77004,-12.12454 -20.34265,-16.56269 -0.47995,-0.26483 -1.24354,-0.71903 -1.84156,-1.04393 C 617.21764,259.64683 604.20317,255.59783 591,253.11719 c -0.95296,-0.16677 -1.98026,-0.3639 -2.9838,-0.52735 -3.87891,-0.65823 -7.77989,-1.18128 -11.69003,-1.61523 -1.90278,-0.19209 -4.00904,-0.41866 -5.99424,-0.57893 -4.57208,-0.39624 -9.15784,-0.71859 -13.7499,-0.67107 z m -432.99609,0.004 c -6.14993,0.13438 -12.17315,0.69908 -18.26418,1.36679 -5.12604,0.5808 -10.304079,1.35107 -15.306135,2.33438 -3.796765,0.75212 -7.8509,1.70342 -11.696892,2.79466 -13.567554,3.80979 -26.709107,9.7718 -37.675627,18.72776 -0.985506,0.81075 -1.84646,1.55587 -2.768106,2.37797 -0.529819,0.47493 -1.277766,1.17207 -1.878906,1.74414 -0.821023,0.80373 -1.618565,1.58717 -2.351148,2.35617 -1.926498,2.008 -3.897077,4.28816 -5.644266,6.57399 -3.661739,4.71666 -6.662708,9.91051 -9.197663,15.30878 -2.459042,5.07085 -4.75704,10.29608 -5.762472,15.87588 -0.798966,4.00841 -1.136368,7.9463 -1.409911,12.03979 -0.12676,1.72361 -0.216499,3.4302 -0.301606,5.21465 -0.207943,4.2053 -0.254166,8.28215 -0.346292,12.5089 -0.394714,22.87001 -0.249425,45.74448 -0.280689,68.61676 0.01239,15.21844 -0.06966,30.44347 0.5032,45.65372 0.201496,4.24621 0.748556,8.49871 2.052274,12.55802 3.470527,12.22184 9.456041,23.7675 17.754,33.41321 4.374054,5.19559 9.528889,9.64797 14.656603,14.07256 5.603261,5.07881 10.355016,11.12303 13.758203,17.88727 1.070364,1.92643 2.138781,3.85394 3.210392,5.77967 0.395247,32.00706 0.691523,64.01585 1.267481,96.02029 0.121367,5.06904 0.253065,10.14294 0.697989,15.19494 0.154573,1.90646 0.776039,3.74527 1.800586,5.35978 1.323308,2.34564 3.237119,4.36997 5.631132,5.63482 2.604908,1.5805 5.735469,1.74763 8.700009,1.62121 2.926976,-0.1142 5.925908,-0.68588 8.385834,-2.36391 1.957233,-1.22637 3.433508,-3.05382 4.557984,-5.04525 0.969237,-1.49278 1.595933,-3.20926 1.633928,-4.99938 0.266844,-2.69468 0.332357,-5.31531 0.399641,-7.98052 0.39895,-16.43106 0.234704,-32.86865 0.278856,-49.30291 -0.0199,-14.44499 0.02569,-28.89597 -0.51238,-43.33301 -0.206079,-5.17756 -0.741409,-10.36538 -2.10267,-15.37844 -0.938492,-3.64851 -2.217238,-7.43564 -3.7196,-10.99433 -3.957188,-9.39996 -9.666191,-18.02329 -16.569571,-25.51727 -0.917078,-0.98407 -2.008047,-2.13147 -3.033162,-3.13878 -2.93154,-2.96081 -6.138326,-5.62441 -9.321175,-8.30535 -5.492367,-4.84451 -9.98878,-10.82533 -13.00154,-17.50773 -1.499572,-3.02504 -2.990838,-6.05309 -4.476155,-9.08525 0.221221,-39.7295 0.347022,-79.4599 0.750051,-119.18809 0.126547,-8.11565 0.214752,-16.25187 1.095652,-24.32753 0.601709,-4.31355 2.20854,-8.45579 4.578125,-12.10352 5.706625,-9.36942 14.725067,-16.39174 24.687785,-20.7799 11.65085,-5.24065 24.376119,-7.53241 37.021441,-8.74207 5.48815,-0.47967 11.02196,-0.66728 16.45214,-1.19242 3.95464,-0.41007 8.17278,-0.74339 11.51809,-3.12573 2.91839,-2.22224 5.69392,-5.14111 6.29843,-8.90259 0.52017,-2.97983 0.46945,-6.09139 -0.26226,-9.03087 -0.86059,-2.95048 -2.97894,-5.37031 -5.35423,-7.23622 -2.16857,-1.68697 -4.8182,-2.64137 -7.52905,-2.97982 -2.94975,-0.46173 -5.94461,-0.50472 -8.92414,-0.47522 z m 371.57422,297.19531 c -4.11077,0.0485 -8.38271,1.65309 -10.96289,4.96094 -1.79932,2.16386 -3.50634,4.78532 -3.56059,7.73634 -0.25313,2.70888 -0.34661,5.43034 -0.39643,8.08434 -0.33637,15.80821 -0.20088,31.62143 -0.23411,47.43205 0.0304,13.29809 -0.0719,26.60161 0.38644,39.89375 0.16618,2.01328 0.1562,4.08692 0.76595,6.02709 0.81608,1.99556 2.01301,3.84365 3.43322,5.46083 1.89994,1.92908 4.33249,3.44413 7.00981,3.97302 2.74294,0.40979 5.56943,0.43385 8.30469,-0.0488 3.56051,-0.65761 6.94354,-2.61998 8.91797,-5.70898 0.86138,-1.38789 1.78163,-2.79589 2.24858,-4.37141 0.42521,-2.57326 0.47256,-5.3039 0.58736,-7.83367 0.36165,-11.76516 0.28966,-23.53814 0.3304,-35.30742 -0.009,-14.57597 0.0462,-29.15279 -0.11945,-43.72802 -0.0368,-3.03345 -0.0863,-6.17674 -0.20705,-9.06027 -0.1967,-2.50534 -0.0647,-5.07591 -0.76758,-7.51171 -0.59527,-1.7436 -1.70187,-3.26336 -2.80867,-4.71702 -2.02364,-2.54425 -4.91931,-4.42502 -8.15585,-4.93965 -1.57104,-0.298 -3.17563,-0.37286 -4.7718,-0.34138 z m -309.34766,0 c -4.35265,0.0315 -8.84754,1.88899 -11.39608,5.52452 -1.574,1.96698 -2.92978,4.24956 -3.09415,6.82313 -0.19594,1.78369 -0.26242,3.54304 -0.3221,5.26798 -0.46906,15.5145 -0.26953,31.03862 -0.32813,46.55781 0.0291,14.43942 -0.0874,28.88375 0.366,43.31796 0.1241,2.29134 0.14362,4.64912 0.86144,6.84642 0.97703,2.14413 2.23957,4.21702 3.95388,5.85242 2.22682,2.00403 5.05843,3.46501 8.09391,3.59491 3.94871,0.28649 8.14043,-0.0142 11.59274,-2.13688 2.90242,-1.71601 4.73682,-4.71013 6.05765,-7.72249 0.52155,-1.92656 0.45218,-3.95109 0.61813,-5.92713 0.40423,-8.27367 0.34951,-16.62471 0.41155,-24.96271 0.0192,-20.29728 0.12897,-40.59634 -0.15505,-60.89215 -0.13193,-3.7722 -0.0994,-7.5732 -0.68323,-11.30981 -0.67133,-2.64569 -2.40544,-4.86588 -4.19531,-6.86133 -2.61121,-2.64416 -6.34577,-3.93827 -10.0205,-3.9524 -0.58658,-0.0242 -1.17378,-0.027 -1.76075,-0.0203 z" />
  </g>
</svg>
