<?xml version="1.0" encoding="UTF-8" standalone="no"?>
<!-- Created with Inkscape (http://www.inkscape.org/) -->

<svg
   version="1.1"
   id="svg1"
   width="960"
   height="936"
   viewBox="0 0 960 936"
   sodipodi:docname="time.svg"
   inkscape:export-filename="time.png"
   inkscape:export-xdpi="51.200001"
   inkscape:export-ydpi="51.200001"
   inkscape:version="1.4 (86a8ad7, 2024-10-11)"
   xmlns:inkscape="http://www.inkscape.org/namespaces/inkscape"
   xmlns:sodipodi="http://sodipodi.sourceforge.net/DTD/sodipodi-0.dtd"
   xmlns="http://www.w3.org/2000/svg"
   xmlns:svg="http://www.w3.org/2000/svg">
  <sodipodi:namedview
     id="namedview1"
     pagecolor="#ffffff"
     bordercolor="#000000"
     borderopacity="0.25"
     inkscape:showpageshadow="2"
     inkscape:pageopacity="0.0"
     inkscape:pagecheckerboard="0"
     inkscape:deskcolor="#d1d1d1"
     inkscape:zoom="0.60965296"
     inkscape:cx="389.56589"
     inkscape:cy="368.24229"
     inkscape:window-width="1920"
     inkscape:window-height="1009"
     inkscape:window-x="-8"
     inkscape:window-y="-8"
     inkscape:window-maximized="1"
     inkscape:current-layer="g1" />
  <defs
     id="defs1" />
  <g
     id="g1">
    <path
       style="fill:#000000"
       d="M 677.6803,922.35274 C 593.55681,911.98449 519.54409,857.63007 484.94293,780.80776 l -5.83454,-12.95398 -206.38071,-0.66666 C 66.346967,766.52045 66.346967,766.52045 59.013627,763.47567 c -10.95781,-4.54966 -15.14113,-7.01981 -22.97575,-13.5666 -9.61082,-8.03104 -16.37465,-16.45437 -20.92207,-26.05529 -7.8853001,-16.64812 -7.4377701,1.75385 -7.4094501,-304.66666 0.0244,-263.88491 0.17526,-282.54608 2.3486701,-290.50087 6.83006,-24.99844 24.00441,-43.279308 50.13251,-53.362457 8.80654,-3.398548 8.93615,-3.407099 58.492763,-3.858888 l 49.66667,-0.452792 v -12.52915 c 0,-9.332986 0.6916,-14.377628 2.71113,-19.775292 8.40467,-22.463509 36.25259,-34.7184857 59.28887,-26.091135 5.87534,2.200384 10.0004,5.036754 15.53214,10.679823 9.8333,10.031207 13.01084,18.274924 13.46568,34.934957 l 0.33551,12.28913 151.51897,0.338989 151.51898,0.338989 0.5494,-14.338989 c 0.47435,-12.380011 1.04724,-15.30158 4.19337,-21.384794 4.71438,-9.115536 13.01642,-17.145561 22.21928,-21.491287 6.20184,-2.9286 9.18487,-3.462908 19.33333,-3.462908 10.16939,0 13.11871,0.530507 19.33334,3.477568 9.08982,4.310518 17.74196,12.977117 22.05295,22.089808 2.74655,5.805724 3.2837,8.954662 3.3008,19.350057 0.0112,6.828745 0.47507,13.131003 1.03076,14.005017 0.74362,1.169606 13.8497,1.699387 49.64625,2.006826 47.03768,0.403985 48.9207,0.519923 57.30257,3.528146 24.33733,8.73458 41.81777,26.263422 50.34107,50.480462 2.05708,5.84473 2.28583,20.63328 2.65642,171.73766 l 0.40551,165.3422 7.6235,3.99113 c 4.19293,2.19512 13.32725,7.80406 20.2985,12.46431 83.157,55.59012 122.78584,152.45322 102.56949,250.70627 -6.20432,30.15351 -21.62945,65.57701 -39.54769,90.82055 -14.0113,19.73936 -41.57517,46.50368 -61.51888,59.73438 -28.96233,19.21369 -59.46757,32.21389 -91.49459,38.99162 -10.64175,2.25206 -19.55517,3.34339 -42.43494,3.6865 -15.76666,0.23644 -30.33172,-0.26387 -32.89839,-0.58021 z m 49.94598,-23.22265 c 45.82617,-5.24963 86.25054,-22.70257 121.91918,-52.63774 76.4434,-64.15568 99.3845,-174.46156 54.77317,-263.36149 -14.73666,-29.36671 -38.90347,-57.95996 -66.53041,-78.71625 -14.7509,-11.08244 -40.89151,-25.27339 -57.44125,-31.18311 -44.75375,-15.98106 -95.97822,-16.48642 -142,-1.40092 -16.10541,5.2792 -38.86107,16.67174 -54.94101,27.50601 -19.23133,12.95761 -46.92881,40.58152 -59.34149,59.18386 -21.39737,32.06729 -32.50639,64.26422 -35.79242,103.73607 -5.96055,71.59816 22.75873,140.87923 77.2999,186.47473 45.82628,38.31001 105.52099,56.87504 162.05433,50.39884 z m -25.46054,-25.50243 c -4.37127,-2.1166 -5.81877,-6.86981 -5.81877,-19.10721 0,-12.54935 1.44552,-17.01557 6.20976,-19.1863 4.5766,-2.08524 7.28637,-1.80794 11.12357,1.1383 3.07664,2.36228 3.36911,3.54647 3.79789,15.37742 0.52018,14.35316 -0.88955,19.52492 -5.95075,21.83095 -3.93225,1.79166 -5.57095,1.78235 -9.3617,-0.0532 z m -94.54605,-29.71327 c -4.7412,-4.74121 -4.08727,-9.09692 3.05951,-20.37878 9.2605,-14.61857 12.85601,-16.43656 20.23213,-10.22997 5.63055,4.7378 5.26304,8.462 -1.98217,20.08646 -8.93719,14.33914 -14.66454,17.16722 -21.30947,10.52229 z m 185.72701,1.60606 c -3.73973,-2.86358 -14.33307,-21.36994 -14.33307,-25.0396 0,-7.12528 10.55325,-12.05318 16.3336,-7.62707 3.54382,2.71357 14.33307,21.28093 14.33307,24.66596 0,7.0701 -10.70251,12.31253 -16.3336,8.00071 z m 64.89753,-65.33333 c -2.96715,-1.65 -8.46489,-4.72197 -12.21719,-6.82659 -7.80526,-4.37787 -10.54179,-9.06665 -8.47077,-14.51385 2.93639,-7.72329 10.28684,-8.19509 22.57405,-1.44896 12.58244,6.90823 14.88331,9.26708 14.88331,15.25838 0,3.81796 -0.83275,5.65918 -3.51314,7.76758 -4.46177,3.50962 -6.58781,3.47169 -13.25626,-0.23656 z m -315.38908,0.32438 c -3.87059,-2.26156 -5.6659,-8.60734 -3.62868,-12.8261 2.24973,-4.65886 21.19013,-15.10395 27.45383,-15.14 5.68999,-0.0328 9.66667,3.98577 9.66667,9.7684 0,5.36958 -1.55942,6.8509 -14.78042,14.04028 -10.12773,5.50731 -14.67279,6.51716 -18.7114,4.15742 z M 791.1413,755.56885 c -1.02979,-0.40759 -16.32979,-11.03802 -34,-23.62318 -17.67022,-12.58516 -32.85714,-23.32703 -33.74873,-23.87083 -0.89158,-0.5438 -4.90941,-0.0328 -8.92851,1.1356 -23.09698,6.71448 -43.83015,-14.80149 -36.25111,-37.61982 2.0757,-6.24936 8.85986,-14.33306 14.53792,-17.32276 2.24449,-1.1818 2.39701,-4.14365 2.29997,-44.66535 -0.1265,-52.82491 -0.0813,-53.02144 12.19935,-53.06164 5.18086,-0.017 6.70984,0.58126 9.03245,3.53398 2.71758,3.45483 2.79306,4.80619 2.6947,48.24186 -0.0945,41.74668 0.0569,44.77103 2.30088,45.95739 9.3514,4.94392 15.41477,15.48719 15.60275,27.13076 l 0.13266,8.21775 32.66667,23.24069 c 17.96667,12.78237 33.49435,24.23947 34.50596,25.4602 2.72945,3.2937 0.98865,11.55579 -3.20196,15.19695 -3.39218,2.94741 -6.13139,3.51746 -9.843,2.0484 z m -78.74648,-72.47114 c 1.14738,-2.14392 1.0029,-3.4766 -0.65049,-6 -3.47508,-5.30363 -10.06403,-3.49922 -10.06403,2.75607 0,5.98303 7.95899,8.39269 10.71452,3.24393 z m 150.02775,5.12607 c -3.29429,-4.70326 -2.65463,-11.05432 1.43754,-14.27322 3.00745,-2.36566 5.38063,-2.76344 16.48686,-2.76344 11.10622,0 13.4794,0.39778 16.48685,2.76344 4.40205,3.46265 4.81669,10.59968 0.84648,14.56989 -2.35596,2.35596 -4.44444,2.66667 -17.92439,2.66667 -14.25542,0 -15.39408,-0.19467 -17.33334,-2.96334 z m -345.84318,-1.45593 c -3.8457,-4.09356 -3.69564,-9.57206 0.37364,-13.64134 3.05559,-3.05559 4.19366,-3.27273 17.15352,-3.27273 12.0239,0 14.35076,0.36968 17.39394,2.76344 2.6861,2.11289 3.51314,3.94755 3.51314,7.79335 0,8.31351 -2.41726,9.44321 -20.2059,9.44321 -14.29954,0 -15.524,-0.20729 -18.22834,-3.08593 z m 37.10091,-81.63696 c -11.16281,-6.6109 -14.66667,-10.11056 -14.66667,-14.6491 0,-4.90991 1.38411,-7.25245 5.56155,-9.41269 4.78873,-2.47635 6.82685,-1.8744 19.30629,5.70205 10.1321,6.15135 13.79883,9.91101 13.79883,14.14854 0,3.52667 -7.21473,10.27995 -10.89744,10.20044 -1.70641,-0.0368 -7.60256,-2.732 -13.10256,-5.98924 z m 288.60606,2.7835 c -3.71109,-3.71109 -4.18729,-8.16153 -1.31248,-12.2659 2.62589,-3.74898 22.89082,-15.12804 26.94147,-15.12804 7.12024,0 12.36956,10.49998 8.05588,16.11382 -2.73382,3.5578 -22.9939,14.55285 -26.81589,14.55285 -2.04047,0 -5.01208,-1.41583 -6.86898,-3.27273 z M 618.74053,548.59181 c -4.33233,-3.40781 -14.39356,-20.86564 -14.39356,-24.9751 0,-7.11885 10.77652,-12.49932 16.21594,-8.09626 3.6461,2.95142 14.45211,21.78496 14.40832,25.11191 -0.0499,3.78913 -2.15819,6.84921 -6.20327,9.00363 -4.07497,2.17034 -6.22553,1.9464 -10.02743,-1.04418 z m 165.26942,-0.0503 c -5.91919,-4.65604 -5.79899,-8.52582 0.59543,-19.17026 9.68806,-16.12718 14.42942,-18.81204 21.88946,-12.39518 5.36247,4.6126 4.75433,9.33114 -2.75553,21.38022 -8.39349,13.4668 -12.7188,15.69973 -19.72936,10.18522 z m -83.43056,-24.44033 c -2.60316,-2.77093 -2.89909,-4.54026 -2.89909,-17.33333 0,-12.46962 0.33274,-14.58014 2.66667,-16.91407 3.71387,-3.71387 10.74318,-3.50969 14.43424,0.41927 2.58657,2.75327 2.89909,4.55646 2.89909,16.72727 0,12.70562 -0.22449,13.86583 -3.27273,16.91407 -4.19949,4.19949 -9.98503,4.27764 -13.82818,0.18679 z M 470.59102,740.18712 c -0.42435,-2.38334 -1.68553,-8.53334 -2.80264,-13.66667 -1.11711,-5.13333 -2.72547,-18.09307 -3.57413,-28.79942 -7.87293,-99.32149 46.48173,-192.69215 137.68006,-236.5074 32.07558,-15.41037 59.52893,-21.94353 96.70265,-23.01265 33.01236,-0.94945 57.60732,2.32118 83.38385,11.08835 l 9.03282,3.07226 V 348.44102 244.52045 H 411.66538 32.317137 l 0.34825,229.73612 c 0,0 0.221171,144.3644 0.313062,223.66147 0.01164,10.04476 9.780766,24.45283 9.780766,24.45283 12.243239,11.58893 15.039682,16.59339 32.254412,20.33303 5.48447,1.19142 56.372433,1.62123 201.841133,1.70481 l 194.50779,0.11174 z m -93.95314,-88.55078 c -17.32646,-8.53987 -11.24939,-35.57662 7.99137,-35.55345 11.74267,0.0141 19.70352,7.82255 19.71273,19.33526 0.0108,13.5215 -15.15844,22.4017 -27.7041,16.21819 z m 0.8568,-76.32835 c -2.99319,-2.42081 -3.16888,-3.46005 -3.57896,-21.1692 -0.51748,-22.34714 0.91797,-31.25682 7.02739,-43.61834 6.37738,-12.90369 13.55183,-20.54505 37.09094,-39.50481 27.85755,-22.43809 35.50446,-30.42163 42.19414,-44.05163 13.60037,-27.71027 8.11194,-57.54901 -14.51076,-78.89012 -14.57026,-13.74484 -27.63058,-19.29083 -48.28942,-20.50582 -16.44782,-0.96733 -26.62294,0.97352 -40.82156,7.78648 -13.22778,6.34713 -24.17523,16.60441 -30.55123,28.62516 -4.68053,8.82427 -8.37492,21.24381 -8.37492,28.15421 0,6.70612 -3.86336,9.71986 -12.46002,9.71986 -9.15993,0 -11.53998,-2.38384 -11.53998,-11.55837 0,-8.89858 4.22647,-24.99166 9.09788,-34.64186 12.00958,-23.79085 31.9339,-40.2565 58.90212,-48.67728 8.61878,-2.6912 12.76243,-3.12249 30,-3.12249 20.96961,0 26.52222,0.94103 41.33333,7.00493 28.08985,11.50043 51.3666,39.16247 57.49624,68.32841 4.55408,21.6691 -0.031,46.51495 -12.19736,66.09558 -7.72792,12.43739 -18.24575,22.97266 -43.5539,43.62615 -23.53897,19.20968 -28.08879,23.89226 -32.574,33.52441 -2.87941,6.18365 -3.14603,8.51163 -3.15795,27.57405 -0.0119,19.03316 -0.25022,21.12172 -2.77647,24.33333 -2.30204,2.92657 -3.83573,3.51314 -9.18562,3.51314 -4.33259,0 -7.44635,-0.82832 -9.56989,-2.54579 z M 790.74707,178.52045 c -0.38677,-41.2445 -0.50218,-42.88888 -3.46239,-49.33333 -7.28374,-15.8569 -19.06469,-26.53962 -34.53882,-31.319092 -7.95843,-2.45811 -12.36795,-2.68091 -53.05774,-2.68091 h -44.37795 l -0.4926,19.050372 c -0.4739,18.32747 -0.65711,19.38454 -4.82785,27.85652 -5.04707,10.25205 -12.28473,17.30861 -22.81607,22.24516 -10.6825,5.0074 -25.63753,5.0074 -36.32003,0 -10.53103,-4.9364 -17.76807,-11.99285 -22.82707,-22.25745 -4.19781,-8.51726 -4.36099,-9.46865 -4.77795,-27.85652 L 562.8169,95.187118 H 411.58193 260.34697 v 13.088452 c 0,7.19865 -0.65368,16.62453 -1.45262,20.94639 -2.93839,15.89523 -12.47158,28.59447 -26.3501,35.10121 -6.29444,2.95105 -9.39103,3.53061 -18.86395,3.53061 -9.80531,0 -12.32206,-0.50648 -18.66667,-3.7566 -9.75127,-4.99523 -16.6653,-11.85329 -21.7528,-21.57673 -4.04687,-7.73454 -4.2019,-8.65258 -4.6721,-27.66667 l -0.48634,-19.666662 h -44.26425 c -48.099053,0 -54.308393,0.71134 -65.998493,7.560832 -8.09629,4.7438 -16.36961,13.74465 -20.95575,22.79855 -3.87027,7.64062 -3.87027,7.64062 -4.26876,51.64062 l -0.39849,44 H 411.68191 791.14717 Z m -563.8242,-39.2687 c 8.7277,-6.21468 9.36553,-9.66968 9.36553,-50.731304 0,-41.127967 -0.62839,-44.50489 -9.45273,-50.798574 -6.06566,-4.326138 -19.13211,-4.566011 -24.64188,-0.452374 -5.31803,3.970484 -8.51895,8.717623 -9.90352,14.687473 -1.47983,6.380554 -1.52915,62.727799 -0.0627,71.645779 1.2078,7.34513 4.40425,12.23923 10.90867,16.70237 6.00385,4.11965 17.21929,3.62299 23.78664,-1.05337 z m 394.47939,0.36239 c 1.98626,-1.47275 4.9515,-5.02133 6.58944,-7.88571 2.88774,-5.05003 2.97873,-6.35438 3,-43.006479 0.0245,-42.23009 -0.27608,-43.908816 -9.06191,-50.6101 -3.95282,-3.014959 -6.0471,-3.591405 -13.04793,-3.591405 -9.32717,0 -13.61668,2.27032 -18.86823,9.986441 -2.93955,4.319101 -3,5.181271 -3,42.790604 0,23.951599 0.5347,39.793919 1.42215,42.136159 1.87725,4.9546 6.30549,9.65876 11.24452,11.94516 5.53623,2.56286 17.15902,1.61864 21.72196,-1.76467 z"
       id="path1"
       sodipodi:nodetypes="sscsssssssscssssscccsssssssssssscsssssssssssssssssssssssssssssssssssssssssssssssssssssssssssssscsssssssssssssssssssssssssssssssssssssssssssssssssssssssssssccccccsssscssssssssssssssssssssssssssssssssscsssssscccssssssscsssscccssssssssssssssssssss" />
  </g>
</svg>
