<?xml version="1.0" encoding="us-ascii" standalone="no"?><svg xmlns="http://www.w3.org/2000/svg" xmlns:xlink="http://www.w3.org/1999/xlink" contentStyleType="text/css" height="968px" preserveAspectRatio="none" style="width:2250px;height:968px;background:#FFFFFF;" version="1.1" viewBox="0 0 2250 968" width="2250px" zoomAndPan="magnify"><defs/><g><!--class Employee--><g id="elem_Employee"><rect codeLine="2" fill="#F1F1F1" height="136.0469" id="Employee" rx="2.5" ry="2.5" style="stroke:#181818;stroke-width:0.5;" width="362" x="1379.5" y="16.5"/><ellipse cx="1525.25" cy="32.5" fill="#ADD1B2" rx="11" ry="11" style="stroke:#181818;stroke-width:1.0;"/><path d="M1528.0156,28.375 Q1528.1719,28.1563 1528.3594,28.0469 Q1528.5469,27.9375 1528.7656,27.9375 Q1529.1406,27.9375 1529.375,28.2031 Q1529.6094,28.4531 1529.6094,29.0625 L1529.6094,30.5156 Q1529.6094,31.125 1529.375,31.3906 Q1529.1406,31.6563 1528.7656,31.6563 Q1528.4219,31.6563 1528.2188,31.4531 Q1528.0156,31.2656 1527.9063,30.75 Q1527.8594,30.3906 1527.6719,30.2031 Q1527.3438,29.8281 1526.7344,29.6094 Q1526.125,29.3906 1525.5,29.3906 Q1524.7344,29.3906 1524.0938,29.7188 Q1523.4688,30.0469 1522.9688,30.7969 Q1522.4844,31.5469 1522.4844,32.5781 L1522.4844,33.6719 Q1522.4844,34.9063 1523.375,35.7344 Q1524.2656,36.5469 1525.8594,36.5469 Q1526.7969,36.5469 1527.4531,36.2969 Q1527.8438,36.1406 1528.2656,35.7031 Q1528.5313,35.4375 1528.6719,35.3594 Q1528.8281,35.2813 1529.0313,35.2813 Q1529.3594,35.2813 1529.6094,35.5469 Q1529.875,35.7969 1529.875,36.1406 Q1529.875,36.4844 1529.5313,36.8906 Q1529.0313,37.4688 1528.2344,37.7969 Q1527.1563,38.25 1525.8594,38.25 Q1524.3438,38.25 1523.1406,37.625 Q1522.1563,37.125 1521.4688,36.0625 Q1520.7813,34.9844 1520.7813,33.7031 L1520.7813,32.5469 Q1520.7813,31.2188 1521.3906,30.0781 Q1522.0156,28.9219 1523.1094,28.3125 Q1524.2031,27.6875 1525.4375,27.6875 Q1526.1719,27.6875 1526.8125,27.8594 Q1527.4688,28.0156 1528.0156,28.375 Z " fill="#000000"/><text fill="#000000" font-family="sans-serif" font-size="14" lengthAdjust="spacing" textLength="62" x="1545.75" y="38.2285">Employee</text><line style="stroke:#181818;stroke-width:0.5;" x1="1380.5" x2="1740.5" y1="48.5" y2="48.5"/><text fill="#000000" font-family="sans-serif" font-size="14" lengthAdjust="spacing" textLength="104" x="1385.5" y="67.0332">employee_id: str</text><text fill="#000000" font-family="sans-serif" font-size="14" font-style="italic" lengthAdjust="spacing" textLength="59" x="1385.5" y="84.6426">name: str</text><text fill="#000000" font-family="sans-serif" font-size="14" font-style="italic" lengthAdjust="spacing" textLength="82" x="1385.5" y="102.252">firstname: str</text><line style="stroke:#181818;stroke-width:0.5;" x1="1380.5" x2="1740.5" y1="109.3281" y2="109.3281"/><text fill="#000000" font-family="sans-serif" font-size="14" lengthAdjust="spacing" textLength="350" x="1385.5" y="127.8613">Employee(employee_id: str, *kargs: Any, **kwargs: Any)</text><text fill="#000000" font-family="sans-serif" font-size="14" font-style="italic" lengthAdjust="spacing" textLength="98" x="1385.5" y="145.4707">close() -&gt; None</text></g><g id="elem_GMN3"><path d="M1003,6 L1003,163.1641 A0,0 0 0 0 1003,163.1641 L1344,163.1641 A0,0 0 0 0 1344,163.1641 L1344,88.5 L1379.37,84.5 L1344,80.5 L1344,16 L1334,6 L1003,6 A0,0 0 0 0 1003,6 " fill="#FEFFDD" style="stroke:#181818;stroke-width:0.5;"/><path d="M1334,6 L1334,16 L1344,16 L1334,6 " fill="#FEFFDD" style="stroke:#181818;stroke-width:0.5;"/><text fill="#000000" font-family="sans-serif" font-size="13" lengthAdjust="spacing" textLength="289" x="1009" y="24.4951">The `Employee` is the base interface that provides</text><text fill="#000000" font-family="sans-serif" font-size="13" lengthAdjust="spacing" textLength="320" x="1009" y="40.8467">access to general information about an employee, such</text><text fill="#000000" font-family="sans-serif" font-size="13" lengthAdjust="spacing" textLength="296" x="1009" y="57.1982">as his name, firstname, ID or anything that is static</text><text fill="#000000" font-family="sans-serif" font-size="13" lengthAdjust="spacing" textLength="288" x="1009" y="73.5498">(we may add the role, status, birthday and so on).</text><text fill="#000000" font-family="sans-serif" font-size="13" lengthAdjust="spacing" textLength="303" x="1009" y="89.9014">This interface doesn't provide any setter because the</text><text fill="#000000" font-family="sans-serif" font-size="13" lengthAdjust="spacing" textLength="256" x="1009" y="106.2529">implementation is supposed to be read-only.</text><text fill="#000000" font-family="sans-serif" font-size="13" lengthAdjust="spacing" textLength="277" x="1009" y="122.6045">Implementation(s) of this interface works with IO</text><text fill="#000000" font-family="sans-serif" font-size="13" lengthAdjust="spacing" textLength="307" x="1009" y="138.9561">resources (file, database). A context manager can be</text><text fill="#000000" font-family="sans-serif" font-size="13" lengthAdjust="spacing" textLength="283" x="1009" y="155.3076">used to automatically manage resource lifecycle.</text></g><!--class TimeTracker--><g id="elem_TimeTracker"><rect codeLine="23" fill="#F1F1F1" height="329.75" id="TimeTracker" rx="2.5" ry="2.5" style="stroke:#181818;stroke-width:0.5;" width="448" x="1336.5" y="224"/><ellipse cx="1516.25" cy="240" fill="#ADD1B2" rx="11" ry="11" style="stroke:#181818;stroke-width:1.0;"/><path d="M1519.0156,235.875 Q1519.1719,235.6563 1519.3594,235.5469 Q1519.5469,235.4375 1519.7656,235.4375 Q1520.1406,235.4375 1520.375,235.7031 Q1520.6094,235.9531 1520.6094,236.5625 L1520.6094,238.0156 Q1520.6094,238.625 1520.375,238.8906 Q1520.1406,239.1563 1519.7656,239.1563 Q1519.4219,239.1563 1519.2188,238.9531 Q1519.0156,238.7656 1518.9063,238.25 Q1518.8594,237.8906 1518.6719,237.7031 Q1518.3438,237.3281 1517.7344,237.1094 Q1517.125,236.8906 1516.5,236.8906 Q1515.7344,236.8906 1515.0938,237.2188 Q1514.4688,237.5469 1513.9688,238.2969 Q1513.4844,239.0469 1513.4844,240.0781 L1513.4844,241.1719 Q1513.4844,242.4063 1514.375,243.2344 Q1515.2656,244.0469 1516.8594,244.0469 Q1517.7969,244.0469 1518.4531,243.7969 Q1518.8438,243.6406 1519.2656,243.2031 Q1519.5313,242.9375 1519.6719,242.8594 Q1519.8281,242.7813 1520.0313,242.7813 Q1520.3594,242.7813 1520.6094,243.0469 Q1520.875,243.2969 1520.875,243.6406 Q1520.875,243.9844 1520.5313,244.3906 Q1520.0313,244.9688 1519.2344,245.2969 Q1518.1563,245.75 1516.8594,245.75 Q1515.3438,245.75 1514.1406,245.125 Q1513.1563,244.625 1512.4688,243.5625 Q1511.7813,242.4844 1511.7813,241.2031 L1511.7813,240.0469 Q1511.7813,238.7188 1512.3906,237.5781 Q1513.0156,236.4219 1514.1094,235.8125 Q1515.2031,235.1875 1516.4375,235.1875 Q1517.1719,235.1875 1517.8125,235.3594 Q1518.4688,235.5156 1519.0156,235.875 Z " fill="#000000"/><text fill="#000000" font-family="sans-serif" font-size="14" lengthAdjust="spacing" textLength="80" x="1536.75" y="245.7285">TimeTracker</text><line style="stroke:#181818;stroke-width:0.5;" x1="1337.5" x2="1783.5" y1="256" y2="256"/><text fill="#000000" font-family="sans-serif" font-size="14" font-style="italic" lengthAdjust="spacing" textLength="107" x="1342.5" y="274.5332">tracked_year: int</text><text fill="#000000" font-family="sans-serif" font-size="14" font-style="italic" lengthAdjust="spacing" textLength="228" x="1342.5" y="292.1426">opening_day_schedule: dt.timedelta</text><text fill="#000000" font-family="sans-serif" font-size="14" font-style="italic" lengthAdjust="spacing" textLength="190" x="1342.5" y="309.752">opening_balance: dt.timedelta</text><text fill="#000000" font-family="sans-serif" font-size="14" font-style="italic" lengthAdjust="spacing" textLength="184" x="1342.5" y="327.3613">opening_vacation_days: float</text><text fill="#000000" font-family="sans-serif" font-size="14" font-style="italic" lengthAdjust="spacing" textLength="198" x="1342.5" y="344.9707">max_clock_events_per_day: int</text><line style="stroke:#181818;stroke-width:0.5;" x1="1337.5" x2="1783.5" y1="352.0469" y2="352.0469"/><text fill="#000000" font-family="sans-serif" font-size="14" font-style="italic" lengthAdjust="spacing" textLength="336" x="1342.5" y="370.5801">get_clocks(date: dt.date) -&gt; list[Optional[ClockEvent]]</text><text fill="#000000" font-family="sans-serif" font-size="14" font-style="italic" lengthAdjust="spacing" textLength="355" x="1342.5" y="388.1895">register_clock(date: dt.date, event: ClockEvent) -&gt; None</text><text fill="#000000" font-family="sans-serif" font-size="14" font-style="italic" lengthAdjust="spacing" textLength="436" x="1342.5" y="405.7988">write_clocks(date: dt.date, events: list[Optional[ClockEvent]]) -&gt; None</text><text fill="#000000" font-family="sans-serif" font-size="14" lengthAdjust="spacing" textLength="223" x="1342.5" y="423.4082">is_clocked_in(date: dt.date) -&gt; bool</text><text fill="#000000" font-family="sans-serif" font-size="14" font-style="italic" lengthAdjust="spacing" textLength="326" x="1342.5" y="441.0176">set_vacation(date: dt.date, day_ratio: float) -&gt; None</text><text fill="#000000" font-family="sans-serif" font-size="14" font-style="italic" lengthAdjust="spacing" textLength="218" x="1342.5" y="458.627">get_vacation(date: dt.date) -&gt; float</text><text fill="#000000" font-family="sans-serif" font-size="14" font-style="italic" lengthAdjust="spacing" textLength="363" x="1342.5" y="476.2363">set_paid_absence(date: dt.date, day_ratio: float) -&gt; None</text><text fill="#000000" font-family="sans-serif" font-size="14" font-style="italic" lengthAdjust="spacing" textLength="255" x="1342.5" y="493.8457">get_paid_absence(date: dt.date) -&gt; float</text><text fill="#000000" font-family="sans-serif" font-size="14" font-style="italic" lengthAdjust="spacing" textLength="424" x="1342.5" y="511.4551">set_attendance_error(date: dt.date, error_id: Optional[int]) -&gt; None</text><text fill="#000000" font-family="sans-serif" font-size="14" font-style="italic" lengthAdjust="spacing" textLength="325" x="1342.5" y="529.0645">get_attendance_error(date: dt.date) -&gt; Optional[int]</text><text fill="#000000" font-family="sans-serif" font-size="14" font-style="italic" lengthAdjust="spacing" textLength="94" x="1342.5" y="546.6738">save() -&gt; None</text></g><g id="elem_GMN7"><path d="M950,318.5 L950,459.3125 A0,0 0 0 0 950,459.3125 L1301,459.3125 A0,0 0 0 0 1301,459.3125 L1301,393 L1336.29,389 L1301,385 L1301,328.5 L1291,318.5 L950,318.5 A0,0 0 0 0 950,318.5 " fill="#FEFFDD" style="stroke:#181818;stroke-width:0.5;"/><path d="M1291,318.5 L1291,328.5 L1301,328.5 L1291,318.5 " fill="#FEFFDD" style="stroke:#181818;stroke-width:0.5;"/><text fill="#000000" font-family="sans-serif" font-size="13" lengthAdjust="spacing" textLength="318" x="956" y="336.9951">The `TimeTracker` is a specialization of the `Employee`</text><text fill="#000000" font-family="sans-serif" font-size="13" lengthAdjust="spacing" textLength="315" x="956" y="353.3467">interface that provides methods to read and write clock</text><text fill="#000000" font-family="sans-serif" font-size="13" lengthAdjust="spacing" textLength="320" x="956" y="369.6982">events (such as clock-ins and clock-outs), day vacation</text><text fill="#000000" font-family="sans-serif" font-size="13" lengthAdjust="spacing" textLength="321" x="956" y="386.0498">and day attendance error. It focuses on single days and</text><text fill="#000000" font-family="sans-serif" font-size="13" lengthAdjust="spacing" textLength="329" x="956" y="402.4014">does not evaluate any given data in any way. The `save()`</text><text fill="#000000" font-family="sans-serif" font-size="13" lengthAdjust="spacing" textLength="315" x="956" y="418.7529">method allows to write the data to the storage system.</text><text fill="#000000" font-family="sans-serif" font-size="13" lengthAdjust="spacing" textLength="326" x="956" y="435.1045">Each `TimeTracker` instance is bound to a specific year,</text><text fill="#000000" font-family="sans-serif" font-size="13" lengthAdjust="spacing" textLength="320" x="956" y="451.4561">and all read or write operations must relate to that year.</text></g><!--class TimeTrackerAnalyzer--><g id="elem_TimeTrackerAnalyzer"><rect codeLine="54" fill="#F1F1F1" height="329.75" id="TimeTrackerAnalyzer" rx="2.5" ry="2.5" style="stroke:#181818;stroke-width:0.5;" width="421" x="568" y="632"/><ellipse cx="707.25" cy="648" fill="#ADD1B2" rx="11" ry="11" style="stroke:#181818;stroke-width:1.0;"/><path d="M710.0156,643.875 Q710.1719,643.6563 710.3594,643.5469 Q710.5469,643.4375 710.7656,643.4375 Q711.1406,643.4375 711.375,643.7031 Q711.6094,643.9531 711.6094,644.5625 L711.6094,646.0156 Q711.6094,646.625 711.375,646.8906 Q711.1406,647.1563 710.7656,647.1563 Q710.4219,647.1563 710.2188,646.9531 Q710.0156,646.7656 709.9063,646.25 Q709.8594,645.8906 709.6719,645.7031 Q709.3438,645.3281 708.7344,645.1094 Q708.125,644.8906 707.5,644.8906 Q706.7344,644.8906 706.0938,645.2188 Q705.4688,645.5469 704.9688,646.2969 Q704.4844,647.0469 704.4844,648.0781 L704.4844,649.1719 Q704.4844,650.4063 705.375,651.2344 Q706.2656,652.0469 707.8594,652.0469 Q708.7969,652.0469 709.4531,651.7969 Q709.8438,651.6406 710.2656,651.2031 Q710.5313,650.9375 710.6719,650.8594 Q710.8281,650.7813 711.0313,650.7813 Q711.3594,650.7813 711.6094,651.0469 Q711.875,651.2969 711.875,651.6406 Q711.875,651.9844 711.5313,652.3906 Q711.0313,652.9688 710.2344,653.2969 Q709.1563,653.75 707.8594,653.75 Q706.3438,653.75 705.1406,653.125 Q704.1563,652.625 703.4688,651.5625 Q702.7813,650.4844 702.7813,649.2031 L702.7813,648.0469 Q702.7813,646.7188 703.3906,645.5781 Q704.0156,644.4219 705.1094,643.8125 Q706.2031,643.1875 707.4375,643.1875 Q708.1719,643.1875 708.8125,643.3594 Q709.4688,643.5156 710.0156,643.875 Z " fill="#000000"/><text fill="#000000" font-family="sans-serif" font-size="14" lengthAdjust="spacing" textLength="134" x="727.75" y="653.7285">TimeTrackerAnalyzer</text><line style="stroke:#181818;stroke-width:0.5;" x1="569" x2="988" y1="664" y2="664"/><text fill="#000000" font-family="sans-serif" font-size="14" font-style="italic" lengthAdjust="spacing" textLength="238" x="574" y="682.5332">target_datetime: Optional[dt.datetime]</text><text fill="#000000" font-family="sans-serif" font-size="14" lengthAdjust="spacing" textLength="91" x="574" y="700.1426">analyzed: bool</text><line style="stroke:#181818;stroke-width:0.5;" x1="569" x2="988" y1="707.2188" y2="707.2188"/><text fill="#000000" font-family="sans-serif" font-size="14" lengthAdjust="spacing" textLength="289" x="574" y="725.752">analyze(target_datetime: dt.datetime) -&gt; None</text><text fill="#000000" font-family="sans-serif" font-size="14" font-style="italic" lengthAdjust="spacing" textLength="309" x="574" y="743.3613">read_day_schedule(date: dt.date) -&gt; dt.timedelta</text><text fill="#000000" font-family="sans-serif" font-size="14" font-style="italic" lengthAdjust="spacing" textLength="332" x="574" y="760.9707">read_day_worked_time(date: dt.date) -&gt; dt.timedelta</text><text fill="#000000" font-family="sans-serif" font-size="14" font-style="italic" lengthAdjust="spacing" textLength="302" x="574" y="778.5801">read_day_balance(date: dt.date) -&gt; dt.timedelta</text><text fill="#000000" font-family="sans-serif" font-size="14" font-style="italic" lengthAdjust="spacing" textLength="365" x="574" y="796.1895">read_day_attendance_error(date: dt.date) -&gt; Optional[int]</text><text fill="#000000" font-family="sans-serif" font-size="14" font-style="italic" lengthAdjust="spacing" textLength="409" x="574" y="813.7988">read_month_expected_daily_schedule(month: int) -&gt; dt.timedelta</text><text fill="#000000" font-family="sans-serif" font-size="14" font-style="italic" lengthAdjust="spacing" textLength="307" x="574" y="831.4082">read_month_schedule(month: int) -&gt; dt.timedelta</text><text fill="#000000" font-family="sans-serif" font-size="14" font-style="italic" lengthAdjust="spacing" textLength="330" x="574" y="849.0176">read_month_worked_time(month: int) -&gt; dt.timedelta</text><text fill="#000000" font-family="sans-serif" font-size="14" font-style="italic" lengthAdjust="spacing" textLength="300" x="574" y="866.627">read_month_balance(month: int) -&gt; dt.timedelta</text><text fill="#000000" font-family="sans-serif" font-size="14" font-style="italic" lengthAdjust="spacing" textLength="256" x="574" y="884.2363">read_month_vacation(month: int) -&gt; float</text><text fill="#000000" font-family="sans-serif" font-size="14" font-style="italic" lengthAdjust="spacing" textLength="183" x="574" y="901.8457">read_year_vacation() -&gt; float</text><text fill="#000000" font-family="sans-serif" font-size="14" font-style="italic" lengthAdjust="spacing" textLength="253" x="574" y="919.4551">read_year_remaining_vacation() -&gt; float</text><text fill="#000000" font-family="sans-serif" font-size="14" font-style="italic" lengthAdjust="spacing" textLength="283" x="574" y="937.0645">read_year_to_date_balance() -&gt; dt.timedelta</text><text fill="#000000" font-family="sans-serif" font-size="14" lengthAdjust="spacing" textLength="317" x="574" y="954.6738">read_year_to_yesterday_balance() -&gt; dt.timedelta</text></g><g id="elem_GMN11"><path d="M144.5,645 L144.5,949.3281 A0,0 0 0 0 144.5,949.3281 L532.5,949.3281 A0,0 0 0 0 532.5,949.3281 L532.5,801 L567.76,797 L532.5,793 L532.5,655 L522.5,645 L144.5,645 A0,0 0 0 0 144.5,645 " fill="#FEFFDD" style="stroke:#181818;stroke-width:0.5;"/><path d="M522.5,645 L522.5,655 L532.5,655 L522.5,645 " fill="#FEFFDD" style="stroke:#181818;stroke-width:0.5;"/><text fill="#000000" font-family="sans-serif" font-size="13" lengthAdjust="spacing" textLength="363" x="150.5" y="663.4951">The `TimeTrackerAnalyzer` interface extends the `TimeTracker`</text><text fill="#000000" font-family="sans-serif" font-size="13" lengthAdjust="spacing" textLength="327" x="150.5" y="679.8467">interface by providing methods to analyze an employee&#8217;s</text><text fill="#000000" font-family="sans-serif" font-size="13" lengthAdjust="spacing" textLength="324" x="150.5" y="696.1982">data, including day, month, and year balances, dynamic</text><text fill="#000000" font-family="sans-serif" font-size="13" lengthAdjust="spacing" textLength="358" x="150.5" y="712.5498">daily schedules based on weekdays and vacations, and more.</text><text fill="#000000" font-family="sans-serif" font-size="13" lengthAdjust="spacing" textLength="4" x="150.5" y="728.9014">&#160;</text><text fill="#000000" font-family="sans-serif" font-size="13" lengthAdjust="spacing" textLength="328" x="150.5" y="745.2529">Data is not immediately available. It becomes accessible</text><text fill="#000000" font-family="sans-serif" font-size="13" lengthAdjust="spacing" textLength="321" x="150.5" y="761.6045">only after calling the `analyze()` method with a specified</text><text fill="#000000" font-family="sans-serif" font-size="13" lengthAdjust="spacing" textLength="326" x="150.5" y="777.9561">`target_datetime`. This datetime defines the point in time</text><text fill="#000000" font-family="sans-serif" font-size="13" lengthAdjust="spacing" textLength="315" x="150.5" y="794.3076">the analysis is based on. For example, if the tracker is</text><text fill="#000000" font-family="sans-serif" font-size="13" lengthAdjust="spacing" textLength="346" x="150.5" y="810.6592">analyzed at 10:00 on a given day and the employee clocked</text><text fill="#000000" font-family="sans-serif" font-size="13" lengthAdjust="spacing" textLength="318" x="150.5" y="827.0107">in at 08:00, the worked time will be 2 hours. If analyzed</text><text fill="#000000" font-family="sans-serif" font-size="13" lengthAdjust="spacing" textLength="153" x="150.5" y="843.3623">at 11:00, it will be 3 hours.</text><text fill="#000000" font-family="sans-serif" font-size="13" lengthAdjust="spacing" textLength="4" x="150.5" y="859.7139">&#160;</text><text fill="#000000" font-family="sans-serif" font-size="13" lengthAdjust="spacing" textLength="350" x="150.5" y="876.0654">The analyzer also performs basic attendance error detection,</text><text fill="#000000" font-family="sans-serif" font-size="13" lengthAdjust="spacing" textLength="335" x="150.5" y="892.417">such as identifying missing clock-out events. These errors</text><text fill="#000000" font-family="sans-serif" font-size="13" lengthAdjust="spacing" textLength="332" x="150.5" y="908.7686">can be retrieved using `read_attendance_error(date)`. This</text><text fill="#000000" font-family="sans-serif" font-size="13" lengthAdjust="spacing" textLength="344" x="150.5" y="925.1201">differs from the `set/get_attendance_error()` methods, which</text><text fill="#000000" font-family="sans-serif" font-size="13" lengthAdjust="spacing" textLength="307" x="150.5" y="941.4717">are used to manually define or retrieve custom errors.</text></g><!--class ClockAction--><g id="elem_ClockAction"><rect codeLine="98" fill="#F1F1F1" height="83.2188" id="ClockAction" rx="2.5" ry="2.5" style="stroke:#181818;stroke-width:0.5;" width="106" x="2023.5" y="347.5"/><ellipse cx="2038.5" cy="363.5" fill="#EB937F" rx="11" ry="11" style="stroke:#181818;stroke-width:1.0;"/><path d="M2037.3594,364.2969 L2037.3594,366.7969 L2041.6875,366.7969 L2041.6875,365.875 Q2041.6875,365.2656 2041.9219,365 Q2042.1719,364.7344 2042.5469,364.7344 Q2042.9219,364.7344 2043.1563,365 Q2043.3906,365.2656 2043.3906,365.875 L2043.3906,368.5 L2035.3906,368.5 Q2034.7656,368.5 2034.5,368.2656 Q2034.25,368.0313 2034.25,367.6406 Q2034.25,367.2656 2034.5156,367.0313 Q2034.7813,366.7969 2035.3906,366.7969 L2035.6563,366.7969 L2035.6563,360.1406 L2035.3906,360.1406 Q2034.7656,360.1406 2034.5,359.9063 Q2034.25,359.6719 2034.25,359.2813 Q2034.25,358.9063 2034.5,358.6719 Q2034.7656,358.4375 2035.3906,358.4375 L2043.0156,358.4375 L2043.0156,361.0313 Q2043.0156,361.6406 2042.7813,361.9063 Q2042.5625,362.1563 2042.1719,362.1563 Q2041.7969,362.1563 2041.5625,361.9063 Q2041.3281,361.6406 2041.3281,361.0313 L2041.3281,360.1406 L2037.3594,360.1406 L2037.3594,362.5938 L2038.8438,362.5938 Q2038.8438,361.9375 2038.9688,361.75 Q2039.2344,361.3438 2039.7031,361.3438 Q2040.0781,361.3438 2040.3125,361.6094 Q2040.5469,361.8594 2040.5469,362.4688 L2040.5469,364.4375 Q2040.5469,364.9844 2040.4219,365.1719 Q2040.1563,365.5625 2039.7031,365.5625 Q2039.2344,365.5625 2038.9688,365.1563 Q2038.8438,364.9688 2038.8438,364.2969 L2037.3594,364.2969 Z " fill="#000000"/><text fill="#000000" font-family="sans-serif" font-size="14" lengthAdjust="spacing" textLength="74" x="2052.5" y="369.2285">ClockAction</text><line style="stroke:#181818;stroke-width:0.5;" x1="2024.5" x2="2128.5" y1="379.5" y2="379.5"/><text fill="#000000" font-family="sans-serif" font-size="14" lengthAdjust="spacing" textLength="68" x="2029.5" y="398.0332">CLOCK_IN</text><text fill="#000000" font-family="sans-serif" font-size="14" lengthAdjust="spacing" textLength="85" x="2029.5" y="415.6426">CLOCK_OUT</text><line style="stroke:#181818;stroke-width:0.5;" x1="2024.5" x2="2128.5" y1="422.7188" y2="422.7188"/></g><!--class ClockEvent--><g id="elem_ClockEvent"><rect codeLine="103" fill="#F1F1F1" height="93.9219" id="ClockEvent" rx="2.5" ry="2.5" style="stroke:#181818;stroke-width:0.5;" width="132" x="1819.5" y="342"/><ellipse cx="1847.55" cy="363.3516" fill="#ADD1B2" rx="11" ry="11" style="stroke:#181818;stroke-width:1.0;"/><path d="M1850.3156,359.2266 Q1850.4719,359.0078 1850.6594,358.8984 Q1850.8469,358.7891 1851.0656,358.7891 Q1851.4406,358.7891 1851.675,359.0547 Q1851.9094,359.3047 1851.9094,359.9141 L1851.9094,361.3672 Q1851.9094,361.9766 1851.675,362.2422 Q1851.4406,362.5078 1851.0656,362.5078 Q1850.7219,362.5078 1850.5188,362.3047 Q1850.3156,362.1172 1850.2063,361.6016 Q1850.1594,361.2422 1849.9719,361.0547 Q1849.6438,360.6797 1849.0344,360.4609 Q1848.425,360.2422 1847.8,360.2422 Q1847.0344,360.2422 1846.3938,360.5703 Q1845.7688,360.8984 1845.2688,361.6484 Q1844.7844,362.3984 1844.7844,363.4297 L1844.7844,364.5234 Q1844.7844,365.7578 1845.675,366.5859 Q1846.5656,367.3984 1848.1594,367.3984 Q1849.0969,367.3984 1849.7531,367.1484 Q1850.1438,366.9922 1850.5656,366.5547 Q1850.8313,366.2891 1850.9719,366.2109 Q1851.1281,366.1328 1851.3313,366.1328 Q1851.6594,366.1328 1851.9094,366.3984 Q1852.175,366.6484 1852.175,366.9922 Q1852.175,367.3359 1851.8313,367.7422 Q1851.3313,368.3203 1850.5344,368.6484 Q1849.4563,369.1016 1848.1594,369.1016 Q1846.6438,369.1016 1845.4406,368.4766 Q1844.4563,367.9766 1843.7688,366.9141 Q1843.0813,365.8359 1843.0813,364.5547 L1843.0813,363.3984 Q1843.0813,362.0703 1843.6906,360.9297 Q1844.3156,359.7734 1845.4094,359.1641 Q1846.5031,358.5391 1847.7375,358.5391 Q1848.4719,358.5391 1849.1125,358.7109 Q1849.7688,358.8672 1850.3156,359.2266 Z " fill="#000000"/><text fill="#000000" font-family="sans-serif" font-size="12" font-style="italic" lengthAdjust="spacing" textLength="66" x="1866.95" y="359.457">&#171;dataclass&#187;</text><text fill="#000000" font-family="sans-serif" font-size="14" lengthAdjust="spacing" textLength="71" x="1864.45" y="376.627">ClockEvent</text><line style="stroke:#181818;stroke-width:0.5;" x1="1820.5" x2="1950.5" y1="384.7031" y2="384.7031"/><text fill="#000000" font-family="sans-serif" font-size="14" lengthAdjust="spacing" textLength="120" x="1825.5" y="403.2363">action: ClockAction</text><text fill="#000000" font-family="sans-serif" font-size="14" lengthAdjust="spacing" textLength="80" x="1825.5" y="420.8457">time : dt.time</text><line style="stroke:#181818;stroke-width:0.5;" x1="1820.5" x2="1950.5" y1="427.9219" y2="427.9219"/></g><!--class AttendanceError--><g id="elem_AttendanceError"><rect codeLine="111" fill="#F1F1F1" height="83.2188" id="AttendanceError" rx="2.5" ry="2.5" style="stroke:#181818;stroke-width:0.5;" width="136" x="1128.5" y="755.5"/><ellipse cx="1143.5" cy="771.5" fill="#ADD1B2" rx="11" ry="11" style="stroke:#181818;stroke-width:1.0;"/><path d="M1146.2656,767.375 Q1146.4219,767.1563 1146.6094,767.0469 Q1146.7969,766.9375 1147.0156,766.9375 Q1147.3906,766.9375 1147.625,767.2031 Q1147.8594,767.4531 1147.8594,768.0625 L1147.8594,769.5156 Q1147.8594,770.125 1147.625,770.3906 Q1147.3906,770.6563 1147.0156,770.6563 Q1146.6719,770.6563 1146.4688,770.4531 Q1146.2656,770.2656 1146.1563,769.75 Q1146.1094,769.3906 1145.9219,769.2031 Q1145.5938,768.8281 1144.9844,768.6094 Q1144.375,768.3906 1143.75,768.3906 Q1142.9844,768.3906 1142.3438,768.7188 Q1141.7188,769.0469 1141.2188,769.7969 Q1140.7344,770.5469 1140.7344,771.5781 L1140.7344,772.6719 Q1140.7344,773.9063 1141.625,774.7344 Q1142.5156,775.5469 1144.1094,775.5469 Q1145.0469,775.5469 1145.7031,775.2969 Q1146.0938,775.1406 1146.5156,774.7031 Q1146.7813,774.4375 1146.9219,774.3594 Q1147.0781,774.2813 1147.2813,774.2813 Q1147.6094,774.2813 1147.8594,774.5469 Q1148.125,774.7969 1148.125,775.1406 Q1148.125,775.4844 1147.7813,775.8906 Q1147.2813,776.4688 1146.4844,776.7969 Q1145.4063,777.25 1144.1094,777.25 Q1142.5938,777.25 1141.3906,776.625 Q1140.4063,776.125 1139.7188,775.0625 Q1139.0313,773.9844 1139.0313,772.7031 L1139.0313,771.5469 Q1139.0313,770.2188 1139.6406,769.0781 Q1140.2656,767.9219 1141.3594,767.3125 Q1142.4531,766.6875 1143.6875,766.6875 Q1144.4219,766.6875 1145.0625,766.8594 Q1145.7188,767.0156 1146.2656,767.375 Z " fill="#000000"/><text fill="#000000" font-family="sans-serif" font-size="14" lengthAdjust="spacing" textLength="104" x="1157.5" y="777.2285">AttendanceError</text><line style="stroke:#181818;stroke-width:0.5;" x1="1129.5" x2="1263.5" y1="787.5" y2="787.5"/><text fill="#000000" font-family="sans-serif" font-size="14" lengthAdjust="spacing" textLength="73" x="1134.5" y="806.0332">error_id: int</text><text fill="#000000" font-family="sans-serif" font-size="14" lengthAdjust="spacing" textLength="97" x="1134.5" y="823.6426">description : str</text><line style="stroke:#181818;stroke-width:0.5;" x1="1129.5" x2="1263.5" y1="830.7188" y2="830.7188"/></g><!--class AttendanceValidator--><g id="elem_AttendanceValidator"><rect codeLine="116" fill="#F1F1F1" height="100.8281" id="AttendanceValidator" rx="2.5" ry="2.5" style="stroke:#181818;stroke-width:0.5;" width="521" x="1300" y="746.5"/><ellipse cx="1492.25" cy="762.5" fill="#ADD1B2" rx="11" ry="11" style="stroke:#181818;stroke-width:1.0;"/><path d="M1495.0156,758.375 Q1495.1719,758.1563 1495.3594,758.0469 Q1495.5469,757.9375 1495.7656,757.9375 Q1496.1406,757.9375 1496.375,758.2031 Q1496.6094,758.4531 1496.6094,759.0625 L1496.6094,760.5156 Q1496.6094,761.125 1496.375,761.3906 Q1496.1406,761.6563 1495.7656,761.6563 Q1495.4219,761.6563 1495.2188,761.4531 Q1495.0156,761.2656 1494.9063,760.75 Q1494.8594,760.3906 1494.6719,760.2031 Q1494.3438,759.8281 1493.7344,759.6094 Q1493.125,759.3906 1492.5,759.3906 Q1491.7344,759.3906 1491.0938,759.7188 Q1490.4688,760.0469 1489.9688,760.7969 Q1489.4844,761.5469 1489.4844,762.5781 L1489.4844,763.6719 Q1489.4844,764.9063 1490.375,765.7344 Q1491.2656,766.5469 1492.8594,766.5469 Q1493.7969,766.5469 1494.4531,766.2969 Q1494.8438,766.1406 1495.2656,765.7031 Q1495.5313,765.4375 1495.6719,765.3594 Q1495.8281,765.2813 1496.0313,765.2813 Q1496.3594,765.2813 1496.6094,765.5469 Q1496.875,765.7969 1496.875,766.1406 Q1496.875,766.4844 1496.5313,766.8906 Q1496.0313,767.4688 1495.2344,767.7969 Q1494.1563,768.25 1492.8594,768.25 Q1491.3438,768.25 1490.1406,767.625 Q1489.1563,767.125 1488.4688,766.0625 Q1487.7813,764.9844 1487.7813,763.7031 L1487.7813,762.5469 Q1487.7813,761.2188 1488.3906,760.0781 Q1489.0156,758.9219 1490.1094,758.3125 Q1491.2031,757.6875 1492.4375,757.6875 Q1493.1719,757.6875 1493.8125,757.8594 Q1494.4688,758.0156 1495.0156,758.375 Z " fill="#000000"/><text fill="#000000" font-family="sans-serif" font-size="14" lengthAdjust="spacing" textLength="128" x="1512.75" y="768.2285">AttendanceValidator</text><line style="stroke:#181818;stroke-width:0.5;" x1="1301" x2="1820" y1="778.5" y2="778.5"/><text fill="#000000" font-family="sans-serif" font-size="14" lengthAdjust="spacing" textLength="166" x="1306" y="797.0332">time_tracker: TimeTracker</text><line style="stroke:#181818;stroke-width:0.5;" x1="1301" x2="1820" y1="804.1094" y2="804.1094"/><text fill="#000000" font-family="sans-serif" font-size="14" lengthAdjust="spacing" textLength="490" x="1306" y="822.6426">analyze_date(date: dt.date, update: bool=False) -&gt; Optional[AttendanceError]</text><text fill="#000000" font-family="sans-serif" font-size="14" lengthAdjust="spacing" textLength="509" x="1306" y="840.252">analyze_until(date: dt.date, update: bool=False) -&gt; dict[dt.date, AttendanceError]</text></g><g id="elem_GMN24"><path d="M1856,694 L1856,793 L1821.24,797 L1856,801 L1856,900.2188 A0,0 0 0 0 1856,900.2188 L2243,900.2188 A0,0 0 0 0 2243,900.2188 L2243,704 L2233,694 L1856,694 A0,0 0 0 0 1856,694 " fill="#FEFFDD" style="stroke:#181818;stroke-width:0.5;"/><path d="M2233,694 L2233,704 L2243,704 L2233,694 " fill="#FEFFDD" style="stroke:#181818;stroke-width:0.5;"/><text fill="#000000" font-family="sans-serif" font-size="13" lengthAdjust="spacing" textLength="362" x="1862" y="712.4951">The `AttendanceValidator` class complements the functionality</text><text fill="#000000" font-family="sans-serif" font-size="13" lengthAdjust="spacing" textLength="350" x="1862" y="728.8467">of the `TimeTrackerAnalyzer` by detecting additional types of</text><text fill="#000000" font-family="sans-serif" font-size="13" lengthAdjust="spacing" textLength="358" x="1862" y="745.1982">attendance errors, such as unordered clock events or custom-</text><text fill="#000000" font-family="sans-serif" font-size="13" lengthAdjust="spacing" textLength="291" x="1862" y="761.5498">defined conditions like excessive daily work hours.</text><text fill="#000000" font-family="sans-serif" font-size="13" lengthAdjust="spacing" textLength="4" x="1862" y="777.9014">&#160;</text><text fill="#000000" font-family="sans-serif" font-size="13" lengthAdjust="spacing" textLength="340" x="1862" y="794.2529">The `update` argument can optionally be set to `True` when</text><text fill="#000000" font-family="sans-serif" font-size="13" lengthAdjust="spacing" textLength="343" x="1862" y="810.6045">analyzing for errors. When enabled, it instructs the validator</text><text fill="#000000" font-family="sans-serif" font-size="13" lengthAdjust="spacing" textLength="352" x="1862" y="826.9561">to write all detected errors to the time tracker and save them.</text><text fill="#000000" font-family="sans-serif" font-size="13" lengthAdjust="spacing" textLength="4" x="1862" y="843.3076">&#160;</text><text fill="#000000" font-family="sans-serif" font-size="13" lengthAdjust="spacing" textLength="344" x="1862" y="859.6592">It is designed for extensibility &#8212; subclasses can implement</text><text fill="#000000" font-family="sans-serif" font-size="13" lengthAdjust="spacing" textLength="347" x="1862" y="876.0107">additional validation rules to support custom error checks as</text><text fill="#000000" font-family="sans-serif" font-size="13" lengthAdjust="spacing" textLength="46" x="1862" y="892.3623">needed.</text></g><!--class TimeTrackerAnalyzerFactory--><g id="elem_TimeTrackerAnalyzerFactory"><rect codeLine="140" fill="#F1F1F1" height="93.9219" id="TimeTrackerAnalyzerFactory" rx="2.5" ry="2.5" style="stroke:#181818;stroke-width:0.5;" width="480" x="434.5" y="342"/><ellipse cx="579.25" cy="363.3516" fill="#ADD1B2" rx="11" ry="11" style="stroke:#181818;stroke-width:1.0;"/><path d="M582.0156,359.2266 Q582.1719,359.0078 582.3594,358.8984 Q582.5469,358.7891 582.7656,358.7891 Q583.1406,358.7891 583.375,359.0547 Q583.6094,359.3047 583.6094,359.9141 L583.6094,361.3672 Q583.6094,361.9766 583.375,362.2422 Q583.1406,362.5078 582.7656,362.5078 Q582.4219,362.5078 582.2188,362.3047 Q582.0156,362.1172 581.9063,361.6016 Q581.8594,361.2422 581.6719,361.0547 Q581.3438,360.6797 580.7344,360.4609 Q580.125,360.2422 579.5,360.2422 Q578.7344,360.2422 578.0938,360.5703 Q577.4688,360.8984 576.9688,361.6484 Q576.4844,362.3984 576.4844,363.4297 L576.4844,364.5234 Q576.4844,365.7578 577.375,366.5859 Q578.2656,367.3984 579.8594,367.3984 Q580.7969,367.3984 581.4531,367.1484 Q581.8438,366.9922 582.2656,366.5547 Q582.5313,366.2891 582.6719,366.2109 Q582.8281,366.1328 583.0313,366.1328 Q583.3594,366.1328 583.6094,366.3984 Q583.875,366.6484 583.875,366.9922 Q583.875,367.3359 583.5313,367.7422 Q583.0313,368.3203 582.2344,368.6484 Q581.1563,369.1016 579.8594,369.1016 Q578.3438,369.1016 577.1406,368.4766 Q576.1563,367.9766 575.4688,366.9141 Q574.7813,365.8359 574.7813,364.5547 L574.7813,363.3984 Q574.7813,362.0703 575.3906,360.9297 Q576.0156,359.7734 577.1094,359.1641 Q578.2031,358.5391 579.4375,358.5391 Q580.1719,358.5391 580.8125,358.7109 Q581.4688,358.8672 582.0156,359.2266 Z " fill="#000000"/><text fill="#000000" font-family="sans-serif" font-size="12" font-style="italic" lengthAdjust="spacing" textLength="66" x="657.75" y="359.457">&#171;Singleton&#187;</text><text fill="#000000" font-family="sans-serif" font-size="14" lengthAdjust="spacing" textLength="182" x="599.75" y="376.627">TimeTrackerAnalyzerFactory</text><line style="stroke:#181818;stroke-width:0.5;" x1="435.5" x2="913.5" y1="384.7031" y2="384.7031"/><line style="stroke:#181818;stroke-width:0.5;" x1="435.5" x2="913.5" y1="392.7031" y2="392.7031"/><text fill="#000000" font-family="sans-serif" font-size="14" font-style="italic" lengthAdjust="spacing" textLength="468" x="440.5" y="411.2363">create(employee_id: str, year: int, readonly: bool) -&gt; TimeTrackerAnalyzer</text><text fill="#000000" font-family="sans-serif" font-size="14" font-style="italic" lengthAdjust="spacing" textLength="184" x="440.5" y="428.8457">list_employee_ids() -&gt; list[str]</text></g><g id="elem_GMN30"><path d="M6,294 L6,483.8672 A0,0 0 0 0 6,483.8672 L399,483.8672 A0,0 0 0 0 399,483.8672 L399,393 L434.26,389 L399,385 L399,304 L389,294 L6,294 A0,0 0 0 0 6,294 " fill="#FEFFDD" style="stroke:#181818;stroke-width:0.5;"/><path d="M389,294 L389,304 L399,304 L389,294 " fill="#FEFFDD" style="stroke:#181818;stroke-width:0.5;"/><text fill="#000000" font-family="sans-serif" font-size="13" lengthAdjust="spacing" textLength="341" x="12" y="312.4951">The TimeTrackerAnalyzerFactory is a generic interface that</text><text fill="#000000" font-family="sans-serif" font-size="13" lengthAdjust="spacing" textLength="368" x="12" y="328.8467">provides a simple way to create TimeTrackerAnalyzer instances</text><text fill="#000000" font-family="sans-serif" font-size="13" lengthAdjust="spacing" textLength="231" x="12" y="345.1982">using an employee ID and a target year.</text><text fill="#000000" font-family="sans-serif" font-size="13" lengthAdjust="spacing" textLength="330" x="12" y="361.5498">Typically, implementations of this interface are created at</text><text fill="#000000" font-family="sans-serif" font-size="13" lengthAdjust="spacing" textLength="348" x="12" y="377.9014">startup and injected into any module that needs to work with</text><text fill="#000000" font-family="sans-serif" font-size="13" lengthAdjust="spacing" textLength="344" x="12" y="394.2529">time trackers, allowing the module to remain unaware of the</text><text fill="#000000" font-family="sans-serif" font-size="13" lengthAdjust="spacing" textLength="252" x="12" y="410.6045">specific time tracker implementation in use.</text><text fill="#000000" font-family="sans-serif" font-size="13" lengthAdjust="spacing" textLength="313" x="12" y="426.9561">The factory also provides a utility method to retrieve all</text><text fill="#000000" font-family="sans-serif" font-size="13" lengthAdjust="spacing" textLength="227" x="12" y="443.3076">employee IDs registered in the system.</text><text fill="#000000" font-family="sans-serif" font-size="13" lengthAdjust="spacing" textLength="319" x="12" y="459.6592">The `readonly` flag can be specified. If supported by the</text><text fill="#000000" font-family="sans-serif" font-size="13" lengthAdjust="spacing" textLength="324" x="12" y="476.0107">implementation, a read-only time tracker will be created.</text></g><!--reverse link Employee to TimeTracker--><g id="link_Employee_TimeTracker"><path codeLine="95" d="M1560.5,170.63 C1560.5,192.04 1560.5,198.75 1560.5,223.93 " fill="none" id="Employee-backto-TimeTracker" style="stroke:#181818;stroke-width:1.0;"/><polygon fill="none" points="1560.5,152.63,1554.5,170.63,1566.5,170.63,1560.5,152.63" style="stroke:#181818;stroke-width:1.0;"/></g><!--reverse link TimeTracker to TimeTrackerAnalyzer--><g id="link_TimeTracker_TimeTrackerAnalyzer"><path codeLine="96" d="M1320.7131,553.0636 C1314.7031,556.3736 1324.47,550.91 1318.5,554 C1231.2,599.22 1201.71,592.9 1111.5,632 C1071.59,649.3 1029.57,668.88 989.34,688.33 " fill="none" id="TimeTracker-backto-TimeTrackerAnalyzer" style="stroke:#181818;stroke-width:1.0;"/><polygon fill="none" points="1336.48,544.38,1317.8186,547.808,1323.6076,558.3192,1336.48,544.38" style="stroke:#181818;stroke-width:1.0;"/></g><!--reverse link TimeTracker to ClockEvent--><g id="link_TimeTracker_ClockEvent"><path codeLine="108" d="M1790.57,389 C1802.14,389 1807.7,389 1819.27,389 " fill="none" id="TimeTracker-backto-ClockEvent" style="stroke:#181818;stroke-width:1.0;stroke-dasharray:7.0,7.0;"/><polygon fill="#181818" points="1784.57,389,1793.57,393,1789.57,389,1793.57,385,1784.57,389" style="stroke:#181818;stroke-width:1.0;"/></g><!--reverse link ClockEvent to ClockAction--><g id="link_ClockEvent_ClockAction"><path codeLine="109" d="M1963.77,389 C1987.15,389 2001.11,389 2023.28,389 " fill="none" id="ClockEvent-backto-ClockAction" style="stroke:#181818;stroke-width:1.0;"/><polygon fill="#181818" points="1951.77,389,1957.77,393,1963.77,389,1957.77,385,1951.77,389" style="stroke:#181818;stroke-width:1.0;"/><text fill="#000000" font-family="sans-serif" font-size="13" lengthAdjust="spacing" textLength="35" x="1970" y="382.4951">action</text></g><!--link TimeTracker to AttendanceValidator--><g id="link_TimeTracker_AttendanceValidator"><path codeLine="137" d="M1560.5,554.26 C1560.5,623.32 1560.5,686.6 1560.5,734.49 " fill="none" id="TimeTracker-to-AttendanceValidator" style="stroke:#181818;stroke-width:1.0;"/><polygon fill="none" points="1560.5,746.49,1564.5,740.49,1560.5,734.49,1556.5,740.49,1560.5,746.49" style="stroke:#181818;stroke-width:1.0;"/><text fill="#000000" font-family="sans-serif" font-size="13" lengthAdjust="spacing" textLength="72" x="1561.5" y="598.4951">time_tracker</text></g><!--link AttendanceError to AttendanceValidator--><g id="link_AttendanceError_AttendanceValidator"><path codeLine="138" d="M1264.75,797 C1276.5,797 1282.24,797 1293.99,797 " fill="none" id="AttendanceError-to-AttendanceValidator" style="stroke:#181818;stroke-width:1.0;stroke-dasharray:7.0,7.0;"/><polygon fill="#181818" points="1299.99,797,1290.99,793,1294.99,797,1290.99,801,1299.99,797" style="stroke:#181818;stroke-width:1.0;"/></g><!--reverse link TimeTrackerAnalyzerFactory to TimeTrackerAnalyzer--><g id="link_TimeTrackerAnalyzerFactory_TimeTrackerAnalyzer"><path codeLine="159" d="M687.819,441.9923 C700.039,489.6923 718.33,561.11 736.44,631.82 " fill="none" id="TimeTrackerAnalyzerFactory-backto-TimeTrackerAnalyzer" style="stroke:#181818;stroke-width:1.0;stroke-dasharray:7.0,7.0;"/><polygon fill="#181818" points="686.33,436.18,684.6887,445.8911,687.5709,441.0236,692.4384,443.9058,686.33,436.18" style="stroke:#181818;stroke-width:1.0;"/></g><!--SRC=[fLZ1Zjms4hthAmg-x8pHq-liNeA1ry30iO515l5X9xi7m-XcIrGtCvBO8AbfAuc1VCHUzlVo9VkgIAcb7lN4cDowALQngbZrwXNpIdbFBzxL-yfsMh-WNp8YdVwjJ75DFZWi_Q8s-A7oyALHjNwyMXhdm_4JllKgBqwrBUZblN9RVqqtJOS_B-yFmz_BYTAyibvVNDBL6_h1DZhxacMD3PegNGR2phkTfdL_pfgCfu2LZVAQJ1EqArMkiQG2xPrzC8NsBANoNCFdO6ch6-rKXSsbTRKAnZQaDhODf9eX20loRRvZEKyx7C5EBcZmTq6ttv5raEZ2pZJRU1xs-G25EUGk3ffgrP4g2h7FsOgLudFh5xGnBkmA_jmKv2tPvd8fha75qOd2Qj_yPV23JoEl0pxJHkUgzLfKGz30R5th9aHts91slqSS2_PuW-ErAgviKtLypErazuM_95j2q-JiWtNtdWucxEZs0n_XjBUjGn3feZJiIw62ugXVBkc6SWl9pm4kDseB-tB4SYEcjSa8rGRBqSvLLNLftw2KAbFglCihlSmqGi8NdcLvJDCxK-ixfCQzTZ5JZxaIPBbOTLgvQxP-yjNkTOFBMI7GAv_lTD5MoDGYB0Cq5heAQdRxHbMgoRzcvuFA9OHy0bAvhAoQMb2hpolaStw_qW-8jr_jjUFDqTR9rgqESQk_G6JZwVn32g4oFdpyiEUpLFNnBMzxnme_VPheS7gBZJX254trB4XCkAQZzB76naeEpWGzQqfI0K_FspFMQNnKWmiopOnN6skhoT58xY6cfqVp9Jh-ak8yR_psh0RP__Y6-CYzCiKAAngt_lnZpsjvucY5QcuAJhULTiwwHm7dHS7G8Th8d4_dhNXQeSXDD4qjKW_da3SJs1sLeY2l8h_NkL6L-JaYZm3919-pSw1Swx2pXK0oevD0eUGUIT9G5fEDBXY96OTb-SeqNhR6Vu1jVoctHFsrKyQV1Lo7MCGuBkasK6bpG987v9973LUQjuhAZF6MeGTfhgeMuHB4tHhO8MY7efMLW-gMiGt5WAspw0i1skn1F8gES2X442lysmVh6FPyXogjbzax1SzEWjgWHx35Y2wQKXEnCuQvD3anqYsYYpWjHWwDA9u7N99SHOZgrWTyhTWBEHsXPzcdyVK6QT7zF8EpwDL8BauXHiHHDgR4ubNE9HKL85zJSH_NBXuf6SdE9pHxDq7lcMm-2zA3CBSoG13lUfPywWVFalrJvIXQQdJMtKf_HW84pKfDDOg7V9LkyXK6HLL_HdOSocU8zv5yXkW0wYUoZs5LX3ZLZp9_kDFfMfb9I_zZcM0bbGUdvboPxEuqz-PnHZqMUH9o- -fSZtWQI1SIB7BWAPACW7VJ9TXbgZh2tLIPO-Bx-s__0rzcq5hWbBngHGP6BqWYln3mPPSeUG4wMtGWnG2dJBAJ-WppmieBXjg3rlSzpWv8xQEosZhGlkmxGTW8mAP6G0oY2stg0KhL1jIGuHl4rzRG7FcymJ9bp6j9bK5uPrL5FevmzC1pkKvEHpuxe2bCozOdgBHUHXRU_wT2bwRHCS1xYvXo5v0l6I_96Pwfyz7R9Rq79ElFYdasmXXxOkIgZZTcFKoYHT4thwvVlU8OgQ7LnBc0XVfheKIa-5PPwDMt45h8bbYJqQI3GKy0x_uRxS2hFI9M3f2CKt7ODo9dmh3rxsbh9kcMDcEogJ2Me9tmZ2IUuNfF-obY4u1Ak4bqfBvBexStmPITf9hnt6EFlJeHIEcUFcb1EDAqu7Hm1ZiA30qijfRocONGo_wUiiAKfOQIqjawNZjurLzdgT2G1qYymyx0tamvFKmec4bQ6KxYbNDRxIqYS0QCBydWSG_jYGwz_lNgYaO5c8r-F_hOLt86JMrDBuH1tqWeO-jz-yyFRxzVtVum_Fpmuns3GshPHyRzWbw_vcgL3s_UYB0IHOdfHwrObGGPXXfMTjH2oshvPcBzI9QkgfUZgG4wuW63DJT3eDznVD9pmi1SurW6ofSx8xsEudF1bna5_mQLX3kz4hPqbGhdUcBVG2kaSazfSxkF2qn2_l4UkNpIQayi7Z6NLOlihRvINs7oy77Oz4Xf3-RER7UXVxcOyNLDCGv0jZIOHxWfsoQF1flGCPFgsVLiJzXqVJsYT5HHc2XAeTiptIs5YfrKi8_l75otRMDTePrEp3fLAXT1pFqhkKCkZ8Ad_QZUOnAyvoOaOFp0R9SR04FI02l9xnZ2DG5kMtPHdWXikX38eFvHk5o7wplNOkDX1omSBeQTAXbLOmNIV_YhRhWl589dJ9nTcwVGFVInPGq37sV676C49nBu96ekrT53jBpAWDhpbtePMUojlEyWYysMGo2sSEz53p9oFx__zby4SoDNYO2pUyEpZFXnl99a7PU2apu98-J1neK9qX0QAQPmlXueQ3H8GZ46dp74N5rPciajrDguYBAJ92MK_OpKKxF1UrI_THq3pxzaW0gsIS0pUiG3T8UvLy3XfMOXv8XRTomhAQWvY1ohvNU7rKYflpW-Zs3Bfob_YfbtteKumSfx8BhRoPmAwM5K1MEGg-J9Z-ygUZUdUPZVV7pxabeyiYj-DfJHZIBjI2CP3EtsyMLiSVAMvsVUvhXfHHE4G40SPxhGxaMtQNwA2Gu1A_DgRPcDHRSuYUA4oZKgVAZl3Ib5c9Nn7DlJg5wQntHcoK0ATM0J4XhnyVrqEgcYqqV9XZljCjrAcQuWyenZeDiGgoaHDZarzM2ktj4xDMBfgN_n4dVZZ9rcwmGxVPAjmUNLjd-N70YWCAHKUj0138MEHm-gYCZn1NNgP4-ZqdsSgSxJn7kzNCxc-ly1]--></g></svg>