<?xml version="1.0" encoding="us-ascii" standalone="no"?><svg xmlns="http://www.w3.org/2000/svg" xmlns:xlink="http://www.w3.org/1999/xlink" contentStyleType="text/css" height="1003px" preserveAspectRatio="none" style="width:2250px;height:1003px;background:#FFFFFF;" version="1.1" viewBox="0 0 2250 1003" width="2250px" zoomAndPan="magnify"><defs/><g><!--class Employee--><g id="elem_Employee"><rect codeLine="2" fill="#F1F1F1" height="136.0469" id="Employee" rx="2.5" ry="2.5" style="stroke:#181818;stroke-width:0.5;" width="362" x="1379.5" y="16.5"/><ellipse cx="1525.25" cy="32.5" fill="#ADD1B2" rx="11" ry="11" style="stroke:#181818;stroke-width:1.0;"/><path d="M1528.0156,28.375 Q1528.1719,28.1563 1528.3594,28.0469 Q1528.5469,27.9375 1528.7656,27.9375 Q1529.1406,27.9375 1529.375,28.2031 Q1529.6094,28.4531 1529.6094,29.0625 L1529.6094,30.5156 Q1529.6094,31.125 1529.375,31.3906 Q1529.1406,31.6563 1528.7656,31.6563 Q1528.4219,31.6563 1528.2188,31.4531 Q1528.0156,31.2656 1527.9063,30.75 Q1527.8594,30.3906 1527.6719,30.2031 Q1527.3438,29.8281 1526.7344,29.6094 Q1526.125,29.3906 1525.5,29.3906 Q1524.7344,29.3906 1524.0938,29.7188 Q1523.4688,30.0469 1522.9688,30.7969 Q1522.4844,31.5469 1522.4844,32.5781 L1522.4844,33.6719 Q1522.4844,34.9063 1523.375,35.7344 Q1524.2656,36.5469 1525.8594,36.5469 Q1526.7969,36.5469 1527.4531,36.2969 Q1527.8438,36.1406 1528.2656,35.7031 Q1528.5313,35.4375 1528.6719,35.3594 Q1528.8281,35.2813 1529.0313,35.2813 Q1529.3594,35.2813 1529.6094,35.5469 Q1529.875,35.7969 1529.875,36.1406 Q1529.875,36.4844 1529.5313,36.8906 Q1529.0313,37.4688 1528.2344,37.7969 Q1527.1563,38.25 1525.8594,38.25 Q1524.3438,38.25 1523.1406,37.625 Q1522.1563,37.125 1521.4688,36.0625 Q1520.7813,34.9844 1520.7813,33.7031 L1520.7813,32.5469 Q1520.7813,31.2188 1521.3906,30.0781 Q1522.0156,28.9219 1523.1094,28.3125 Q1524.2031,27.6875 1525.4375,27.6875 Q1526.1719,27.6875 1526.8125,27.8594 Q1527.4688,28.0156 1528.0156,28.375 Z " fill="#000000"/><text fill="#000000" font-family="sans-serif" font-size="14" lengthAdjust="spacing" textLength="62" x="1545.75" y="38.2285">Employee</text><line style="stroke:#181818;stroke-width:0.5;" x1="1380.5" x2="1740.5" y1="48.5" y2="48.5"/><text fill="#000000" font-family="sans-serif" font-size="14" lengthAdjust="spacing" textLength="104" x="1385.5" y="67.0332">employee_id: str</text><text fill="#000000" font-family="sans-serif" font-size="14" font-style="italic" lengthAdjust="spacing" textLength="59" x="1385.5" y="84.6426">name: str</text><text fill="#000000" font-family="sans-serif" font-size="14" font-style="italic" lengthAdjust="spacing" textLength="82" x="1385.5" y="102.252">firstname: str</text><line style="stroke:#181818;stroke-width:0.5;" x1="1380.5" x2="1740.5" y1="109.3281" y2="109.3281"/><text fill="#000000" font-family="sans-serif" font-size="14" lengthAdjust="spacing" textLength="350" x="1385.5" y="127.8613">Employee(employee_id: str, *kargs: Any, **kwargs: Any)</text><text fill="#000000" font-family="sans-serif" font-size="14" font-style="italic" lengthAdjust="spacing" textLength="98" x="1385.5" y="145.4707">close() -&gt; None</text></g><g id="elem_GMN3"><path d="M1003,6 L1003,163.1641 A0,0 0 0 0 1003,163.1641 L1344,163.1641 A0,0 0 0 0 1344,163.1641 L1344,88.5 L1379.37,84.5 L1344,80.5 L1344,16 L1334,6 L1003,6 A0,0 0 0 0 1003,6 " fill="#FEFFDD" style="stroke:#181818;stroke-width:0.5;"/><path d="M1334,6 L1334,16 L1344,16 L1334,6 " fill="#FEFFDD" style="stroke:#181818;stroke-width:0.5;"/><text fill="#000000" font-family="sans-serif" font-size="13" lengthAdjust="spacing" textLength="289" x="1009" y="24.4951">The `Employee` is the base interface that provides</text><text fill="#000000" font-family="sans-serif" font-size="13" lengthAdjust="spacing" textLength="320" x="1009" y="40.8467">access to general information about an employee, such</text><text fill="#000000" font-family="sans-serif" font-size="13" lengthAdjust="spacing" textLength="296" x="1009" y="57.1982">as his name, firstname, ID or anything that is static</text><text fill="#000000" font-family="sans-serif" font-size="13" lengthAdjust="spacing" textLength="288" x="1009" y="73.5498">(we may add the role, status, birthday and so on).</text><text fill="#000000" font-family="sans-serif" font-size="13" lengthAdjust="spacing" textLength="303" x="1009" y="89.9014">This interface doesn't provide any setter because the</text><text fill="#000000" font-family="sans-serif" font-size="13" lengthAdjust="spacing" textLength="256" x="1009" y="106.2529">implementation is supposed to be read-only.</text><text fill="#000000" font-family="sans-serif" font-size="13" lengthAdjust="spacing" textLength="277" x="1009" y="122.6045">Implementation(s) of this interface works with IO</text><text fill="#000000" font-family="sans-serif" font-size="13" lengthAdjust="spacing" textLength="307" x="1009" y="138.9561">resources (file, database). A context manager can be</text><text fill="#000000" font-family="sans-serif" font-size="13" lengthAdjust="spacing" textLength="283" x="1009" y="155.3076">used to automatically manage resource lifecycle.</text></g><!--class TimeTracker--><g id="elem_TimeTracker"><rect codeLine="23" fill="#F1F1F1" height="347.3594" id="TimeTracker" rx="2.5" ry="2.5" style="stroke:#181818;stroke-width:0.5;" width="448" x="1336.5" y="224"/><ellipse cx="1516.25" cy="240" fill="#ADD1B2" rx="11" ry="11" style="stroke:#181818;stroke-width:1.0;"/><path d="M1519.0156,235.875 Q1519.1719,235.6563 1519.3594,235.5469 Q1519.5469,235.4375 1519.7656,235.4375 Q1520.1406,235.4375 1520.375,235.7031 Q1520.6094,235.9531 1520.6094,236.5625 L1520.6094,238.0156 Q1520.6094,238.625 1520.375,238.8906 Q1520.1406,239.1563 1519.7656,239.1563 Q1519.4219,239.1563 1519.2188,238.9531 Q1519.0156,238.7656 1518.9063,238.25 Q1518.8594,237.8906 1518.6719,237.7031 Q1518.3438,237.3281 1517.7344,237.1094 Q1517.125,236.8906 1516.5,236.8906 Q1515.7344,236.8906 1515.0938,237.2188 Q1514.4688,237.5469 1513.9688,238.2969 Q1513.4844,239.0469 1513.4844,240.0781 L1513.4844,241.1719 Q1513.4844,242.4063 1514.375,243.2344 Q1515.2656,244.0469 1516.8594,244.0469 Q1517.7969,244.0469 1518.4531,243.7969 Q1518.8438,243.6406 1519.2656,243.2031 Q1519.5313,242.9375 1519.6719,242.8594 Q1519.8281,242.7813 1520.0313,242.7813 Q1520.3594,242.7813 1520.6094,243.0469 Q1520.875,243.2969 1520.875,243.6406 Q1520.875,243.9844 1520.5313,244.3906 Q1520.0313,244.9688 1519.2344,245.2969 Q1518.1563,245.75 1516.8594,245.75 Q1515.3438,245.75 1514.1406,245.125 Q1513.1563,244.625 1512.4688,243.5625 Q1511.7813,242.4844 1511.7813,241.2031 L1511.7813,240.0469 Q1511.7813,238.7188 1512.3906,237.5781 Q1513.0156,236.4219 1514.1094,235.8125 Q1515.2031,235.1875 1516.4375,235.1875 Q1517.1719,235.1875 1517.8125,235.3594 Q1518.4688,235.5156 1519.0156,235.875 Z " fill="#000000"/><text fill="#000000" font-family="sans-serif" font-size="14" lengthAdjust="spacing" textLength="80" x="1536.75" y="245.7285">TimeTracker</text><line style="stroke:#181818;stroke-width:0.5;" x1="1337.5" x2="1783.5" y1="256" y2="256"/><text fill="#000000" font-family="sans-serif" font-size="14" font-style="italic" lengthAdjust="spacing" textLength="107" x="1342.5" y="274.5332">tracked_year: int</text><text fill="#000000" font-family="sans-serif" font-size="14" font-style="italic" lengthAdjust="spacing" textLength="228" x="1342.5" y="292.1426">opening_day_schedule: dt.timedelta</text><text fill="#000000" font-family="sans-serif" font-size="14" font-style="italic" lengthAdjust="spacing" textLength="190" x="1342.5" y="309.752">opening_balance: dt.timedelta</text><text fill="#000000" font-family="sans-serif" font-size="14" font-style="italic" lengthAdjust="spacing" textLength="184" x="1342.5" y="327.3613">opening_vacation_days: float</text><text fill="#000000" font-family="sans-serif" font-size="14" font-style="italic" lengthAdjust="spacing" textLength="198" x="1342.5" y="344.9707">max_clock_events_per_day: int</text><line style="stroke:#181818;stroke-width:0.5;" x1="1337.5" x2="1783.5" y1="352.0469" y2="352.0469"/><text fill="#000000" font-family="sans-serif" font-size="14" font-style="italic" lengthAdjust="spacing" textLength="336" x="1342.5" y="370.5801">get_clocks(date: dt.date) -&gt; list[Optional[ClockEvent]]</text><text fill="#000000" font-family="sans-serif" font-size="14" font-style="italic" lengthAdjust="spacing" textLength="355" x="1342.5" y="388.1895">register_clock(date: dt.date, event: ClockEvent) -&gt; None</text><text fill="#000000" font-family="sans-serif" font-size="14" font-style="italic" lengthAdjust="spacing" textLength="436" x="1342.5" y="405.7988">write_clocks(date: dt.date, events: list[Optional[ClockEvent]]) -&gt; None</text><text fill="#000000" font-family="sans-serif" font-size="14" lengthAdjust="spacing" textLength="223" x="1342.5" y="423.4082">is_clocked_in(date: dt.date) -&gt; bool</text><text fill="#000000" font-family="sans-serif" font-size="14" font-style="italic" lengthAdjust="spacing" textLength="326" x="1342.5" y="441.0176">set_vacation(date: dt.date, day_ratio: float) -&gt; None</text><text fill="#000000" font-family="sans-serif" font-size="14" font-style="italic" lengthAdjust="spacing" textLength="218" x="1342.5" y="458.627">get_vacation(date: dt.date) -&gt; float</text><text fill="#000000" font-family="sans-serif" font-size="14" font-style="italic" lengthAdjust="spacing" textLength="363" x="1342.5" y="476.2363">set_paid_absence(date: dt.date, day_ratio: float) -&gt; None</text><text fill="#000000" font-family="sans-serif" font-size="14" font-style="italic" lengthAdjust="spacing" textLength="255" x="1342.5" y="493.8457">get_paid_absence(date: dt.date) -&gt; float</text><text fill="#000000" font-family="sans-serif" font-size="14" font-style="italic" lengthAdjust="spacing" textLength="424" x="1342.5" y="511.4551">set_attendance_error(date: dt.date, error_id: Optional[int]) -&gt; None</text><text fill="#000000" font-family="sans-serif" font-size="14" font-style="italic" lengthAdjust="spacing" textLength="325" x="1342.5" y="529.0645">get_attendance_error(date: dt.date) -&gt; Optional[int]</text><text fill="#000000" font-family="sans-serif" font-size="14" font-style="italic" lengthAdjust="spacing" textLength="296" x="1342.5" y="546.6738">get_attendance_error_desc(error_id: int) -&gt; str</text><text fill="#000000" font-family="sans-serif" font-size="14" font-style="italic" lengthAdjust="spacing" textLength="94" x="1342.5" y="564.2832">save() -&gt; None</text></g><g id="elem_GMN7"><path d="M950,327 L950,467.8125 A0,0 0 0 0 950,467.8125 L1301,467.8125 A0,0 0 0 0 1301,467.8125 L1301,401.5 L1336.29,397.5 L1301,393.5 L1301,337 L1291,327 L950,327 A0,0 0 0 0 950,327 " fill="#FEFFDD" style="stroke:#181818;stroke-width:0.5;"/><path d="M1291,327 L1291,337 L1301,337 L1291,327 " fill="#FEFFDD" style="stroke:#181818;stroke-width:0.5;"/><text fill="#000000" font-family="sans-serif" font-size="13" lengthAdjust="spacing" textLength="318" x="956" y="345.4951">The `TimeTracker` is a specialization of the `Employee`</text><text fill="#000000" font-family="sans-serif" font-size="13" lengthAdjust="spacing" textLength="315" x="956" y="361.8467">interface that provides methods to read and write clock</text><text fill="#000000" font-family="sans-serif" font-size="13" lengthAdjust="spacing" textLength="320" x="956" y="378.1982">events (such as clock-ins and clock-outs), day vacation</text><text fill="#000000" font-family="sans-serif" font-size="13" lengthAdjust="spacing" textLength="321" x="956" y="394.5498">and day attendance error. It focuses on single days and</text><text fill="#000000" font-family="sans-serif" font-size="13" lengthAdjust="spacing" textLength="329" x="956" y="410.9014">does not evaluate any given data in any way. The `save()`</text><text fill="#000000" font-family="sans-serif" font-size="13" lengthAdjust="spacing" textLength="315" x="956" y="427.2529">method allows to write the data to the storage system.</text><text fill="#000000" font-family="sans-serif" font-size="13" lengthAdjust="spacing" textLength="326" x="956" y="443.6045">Each `TimeTracker` instance is bound to a specific year,</text><text fill="#000000" font-family="sans-serif" font-size="13" lengthAdjust="spacing" textLength="320" x="956" y="459.9561">and all read or write operations must relate to that year.</text></g><!--class TimeTrackerAnalyzer--><g id="elem_TimeTrackerAnalyzer"><rect codeLine="55" fill="#F1F1F1" height="347.3594" id="TimeTrackerAnalyzer" rx="2.5" ry="2.5" style="stroke:#181818;stroke-width:0.5;" width="421" x="568" y="649"/><ellipse cx="707.25" cy="665" fill="#ADD1B2" rx="11" ry="11" style="stroke:#181818;stroke-width:1.0;"/><path d="M710.0156,660.875 Q710.1719,660.6563 710.3594,660.5469 Q710.5469,660.4375 710.7656,660.4375 Q711.1406,660.4375 711.375,660.7031 Q711.6094,660.9531 711.6094,661.5625 L711.6094,663.0156 Q711.6094,663.625 711.375,663.8906 Q711.1406,664.1563 710.7656,664.1563 Q710.4219,664.1563 710.2188,663.9531 Q710.0156,663.7656 709.9063,663.25 Q709.8594,662.8906 709.6719,662.7031 Q709.3438,662.3281 708.7344,662.1094 Q708.125,661.8906 707.5,661.8906 Q706.7344,661.8906 706.0938,662.2188 Q705.4688,662.5469 704.9688,663.2969 Q704.4844,664.0469 704.4844,665.0781 L704.4844,666.1719 Q704.4844,667.4063 705.375,668.2344 Q706.2656,669.0469 707.8594,669.0469 Q708.7969,669.0469 709.4531,668.7969 Q709.8438,668.6406 710.2656,668.2031 Q710.5313,667.9375 710.6719,667.8594 Q710.8281,667.7813 711.0313,667.7813 Q711.3594,667.7813 711.6094,668.0469 Q711.875,668.2969 711.875,668.6406 Q711.875,668.9844 711.5313,669.3906 Q711.0313,669.9688 710.2344,670.2969 Q709.1563,670.75 707.8594,670.75 Q706.3438,670.75 705.1406,670.125 Q704.1563,669.625 703.4688,668.5625 Q702.7813,667.4844 702.7813,666.2031 L702.7813,665.0469 Q702.7813,663.7188 703.3906,662.5781 Q704.0156,661.4219 705.1094,660.8125 Q706.2031,660.1875 707.4375,660.1875 Q708.1719,660.1875 708.8125,660.3594 Q709.4688,660.5156 710.0156,660.875 Z " fill="#000000"/><text fill="#000000" font-family="sans-serif" font-size="14" lengthAdjust="spacing" textLength="134" x="727.75" y="670.7285">TimeTrackerAnalyzer</text><line style="stroke:#181818;stroke-width:0.5;" x1="569" x2="988" y1="681" y2="681"/><text fill="#000000" font-family="sans-serif" font-size="14" font-style="italic" lengthAdjust="spacing" textLength="238" x="574" y="699.5332">target_datetime: Optional[dt.datetime]</text><text fill="#000000" font-family="sans-serif" font-size="14" lengthAdjust="spacing" textLength="91" x="574" y="717.1426">analyzed: bool</text><line style="stroke:#181818;stroke-width:0.5;" x1="569" x2="988" y1="724.2188" y2="724.2188"/><text fill="#000000" font-family="sans-serif" font-size="14" lengthAdjust="spacing" textLength="289" x="574" y="742.752">analyze(target_datetime: dt.datetime) -&gt; None</text><text fill="#000000" font-family="sans-serif" font-size="14" font-style="italic" lengthAdjust="spacing" textLength="309" x="574" y="760.3613">read_day_schedule(date: dt.date) -&gt; dt.timedelta</text><text fill="#000000" font-family="sans-serif" font-size="14" font-style="italic" lengthAdjust="spacing" textLength="332" x="574" y="777.9707">read_day_worked_time(date: dt.date) -&gt; dt.timedelta</text><text fill="#000000" font-family="sans-serif" font-size="14" font-style="italic" lengthAdjust="spacing" textLength="302" x="574" y="795.5801">read_day_balance(date: dt.date) -&gt; dt.timedelta</text><text fill="#000000" font-family="sans-serif" font-size="14" font-style="italic" lengthAdjust="spacing" textLength="365" x="574" y="813.1895">read_day_attendance_error(date: dt.date) -&gt; Optional[int]</text><text fill="#000000" font-family="sans-serif" font-size="14" font-style="italic" lengthAdjust="spacing" textLength="409" x="574" y="830.7988">read_month_expected_daily_schedule(month: int) -&gt; dt.timedelta</text><text fill="#000000" font-family="sans-serif" font-size="14" font-style="italic" lengthAdjust="spacing" textLength="307" x="574" y="848.4082">read_month_schedule(month: int) -&gt; dt.timedelta</text><text fill="#000000" font-family="sans-serif" font-size="14" font-style="italic" lengthAdjust="spacing" textLength="330" x="574" y="866.0176">read_month_worked_time(month: int) -&gt; dt.timedelta</text><text fill="#000000" font-family="sans-serif" font-size="14" font-style="italic" lengthAdjust="spacing" textLength="300" x="574" y="883.627">read_month_balance(month: int) -&gt; dt.timedelta</text><text fill="#000000" font-family="sans-serif" font-size="14" font-style="italic" lengthAdjust="spacing" textLength="256" x="574" y="901.2363">read_month_vacation(month: int) -&gt; float</text><text fill="#000000" font-family="sans-serif" font-size="14" font-style="italic" lengthAdjust="spacing" textLength="183" x="574" y="918.8457">read_year_vacation() -&gt; float</text><text fill="#000000" font-family="sans-serif" font-size="14" font-style="italic" lengthAdjust="spacing" textLength="253" x="574" y="936.4551">read_year_remaining_vacation() -&gt; float</text><text fill="#000000" font-family="sans-serif" font-size="14" font-style="italic" lengthAdjust="spacing" textLength="283" x="574" y="954.0645">read_year_to_date_balance() -&gt; dt.timedelta</text><text fill="#000000" font-family="sans-serif" font-size="14" lengthAdjust="spacing" textLength="317" x="574" y="971.6738">read_year_to_yesterday_balance() -&gt; dt.timedelta</text><text fill="#000000" font-family="sans-serif" font-size="14" font-style="italic" lengthAdjust="spacing" textLength="290" x="574" y="989.2832">read_year_attendance_error() -&gt; Optional[int]</text></g><g id="elem_GMN11"><path d="M144.5,670.5 L144.5,974.8281 A0,0 0 0 0 144.5,974.8281 L532.5,974.8281 A0,0 0 0 0 532.5,974.8281 L532.5,826.5 L567.76,822.5 L532.5,818.5 L532.5,680.5 L522.5,670.5 L144.5,670.5 A0,0 0 0 0 144.5,670.5 " fill="#FEFFDD" style="stroke:#181818;stroke-width:0.5;"/><path d="M522.5,670.5 L522.5,680.5 L532.5,680.5 L522.5,670.5 " fill="#FEFFDD" style="stroke:#181818;stroke-width:0.5;"/><text fill="#000000" font-family="sans-serif" font-size="13" lengthAdjust="spacing" textLength="363" x="150.5" y="688.9951">The `TimeTrackerAnalyzer` interface extends the `TimeTracker`</text><text fill="#000000" font-family="sans-serif" font-size="13" lengthAdjust="spacing" textLength="327" x="150.5" y="705.3467">interface by providing methods to analyze an employee&#8217;s</text><text fill="#000000" font-family="sans-serif" font-size="13" lengthAdjust="spacing" textLength="324" x="150.5" y="721.6982">data, including day, month, and year balances, dynamic</text><text fill="#000000" font-family="sans-serif" font-size="13" lengthAdjust="spacing" textLength="358" x="150.5" y="738.0498">daily schedules based on weekdays and vacations, and more.</text><text fill="#000000" font-family="sans-serif" font-size="13" lengthAdjust="spacing" textLength="4" x="150.5" y="754.4014">&#160;</text><text fill="#000000" font-family="sans-serif" font-size="13" lengthAdjust="spacing" textLength="328" x="150.5" y="770.7529">Data is not immediately available. It becomes accessible</text><text fill="#000000" font-family="sans-serif" font-size="13" lengthAdjust="spacing" textLength="321" x="150.5" y="787.1045">only after calling the `analyze()` method with a specified</text><text fill="#000000" font-family="sans-serif" font-size="13" lengthAdjust="spacing" textLength="326" x="150.5" y="803.4561">`target_datetime`. This datetime defines the point in time</text><text fill="#000000" font-family="sans-serif" font-size="13" lengthAdjust="spacing" textLength="315" x="150.5" y="819.8076">the analysis is based on. For example, if the tracker is</text><text fill="#000000" font-family="sans-serif" font-size="13" lengthAdjust="spacing" textLength="346" x="150.5" y="836.1592">analyzed at 10:00 on a given day and the employee clocked</text><text fill="#000000" font-family="sans-serif" font-size="13" lengthAdjust="spacing" textLength="318" x="150.5" y="852.5107">in at 08:00, the worked time will be 2 hours. If analyzed</text><text fill="#000000" font-family="sans-serif" font-size="13" lengthAdjust="spacing" textLength="153" x="150.5" y="868.8623">at 11:00, it will be 3 hours.</text><text fill="#000000" font-family="sans-serif" font-size="13" lengthAdjust="spacing" textLength="4" x="150.5" y="885.2139">&#160;</text><text fill="#000000" font-family="sans-serif" font-size="13" lengthAdjust="spacing" textLength="350" x="150.5" y="901.5654">The analyzer also performs basic attendance error detection,</text><text fill="#000000" font-family="sans-serif" font-size="13" lengthAdjust="spacing" textLength="335" x="150.5" y="917.917">such as identifying missing clock-out events. These errors</text><text fill="#000000" font-family="sans-serif" font-size="13" lengthAdjust="spacing" textLength="332" x="150.5" y="934.2686">can be retrieved using `read_attendance_error(date)`. This</text><text fill="#000000" font-family="sans-serif" font-size="13" lengthAdjust="spacing" textLength="344" x="150.5" y="950.6201">differs from the `set/get_attendance_error()` methods, which</text><text fill="#000000" font-family="sans-serif" font-size="13" lengthAdjust="spacing" textLength="307" x="150.5" y="966.9717">are used to manually define or retrieve custom errors.</text></g><!--class ClockAction--><g id="elem_ClockAction"><rect codeLine="100" fill="#F1F1F1" height="83.2188" id="ClockAction" rx="2.5" ry="2.5" style="stroke:#181818;stroke-width:0.5;" width="106" x="2023.5" y="356"/><ellipse cx="2038.5" cy="372" fill="#EB937F" rx="11" ry="11" style="stroke:#181818;stroke-width:1.0;"/><path d="M2037.3594,372.7969 L2037.3594,375.2969 L2041.6875,375.2969 L2041.6875,374.375 Q2041.6875,373.7656 2041.9219,373.5 Q2042.1719,373.2344 2042.5469,373.2344 Q2042.9219,373.2344 2043.1563,373.5 Q2043.3906,373.7656 2043.3906,374.375 L2043.3906,377 L2035.3906,377 Q2034.7656,377 2034.5,376.7656 Q2034.25,376.5313 2034.25,376.1406 Q2034.25,375.7656 2034.5156,375.5313 Q2034.7813,375.2969 2035.3906,375.2969 L2035.6563,375.2969 L2035.6563,368.6406 L2035.3906,368.6406 Q2034.7656,368.6406 2034.5,368.4063 Q2034.25,368.1719 2034.25,367.7813 Q2034.25,367.4063 2034.5,367.1719 Q2034.7656,366.9375 2035.3906,366.9375 L2043.0156,366.9375 L2043.0156,369.5313 Q2043.0156,370.1406 2042.7813,370.4063 Q2042.5625,370.6563 2042.1719,370.6563 Q2041.7969,370.6563 2041.5625,370.4063 Q2041.3281,370.1406 2041.3281,369.5313 L2041.3281,368.6406 L2037.3594,368.6406 L2037.3594,371.0938 L2038.8438,371.0938 Q2038.8438,370.4375 2038.9688,370.25 Q2039.2344,369.8438 2039.7031,369.8438 Q2040.0781,369.8438 2040.3125,370.1094 Q2040.5469,370.3594 2040.5469,370.9688 L2040.5469,372.9375 Q2040.5469,373.4844 2040.4219,373.6719 Q2040.1563,374.0625 2039.7031,374.0625 Q2039.2344,374.0625 2038.9688,373.6563 Q2038.8438,373.4688 2038.8438,372.7969 L2037.3594,372.7969 Z " fill="#000000"/><text fill="#000000" font-family="sans-serif" font-size="14" lengthAdjust="spacing" textLength="74" x="2052.5" y="377.7285">ClockAction</text><line style="stroke:#181818;stroke-width:0.5;" x1="2024.5" x2="2128.5" y1="388" y2="388"/><text fill="#000000" font-family="sans-serif" font-size="14" lengthAdjust="spacing" textLength="68" x="2029.5" y="406.5332">CLOCK_IN</text><text fill="#000000" font-family="sans-serif" font-size="14" lengthAdjust="spacing" textLength="85" x="2029.5" y="424.1426">CLOCK_OUT</text><line style="stroke:#181818;stroke-width:0.5;" x1="2024.5" x2="2128.5" y1="431.2188" y2="431.2188"/></g><!--class ClockEvent--><g id="elem_ClockEvent"><rect codeLine="105" fill="#F1F1F1" height="93.9219" id="ClockEvent" rx="2.5" ry="2.5" style="stroke:#181818;stroke-width:0.5;" width="132" x="1819.5" y="350.5"/><ellipse cx="1847.55" cy="371.8516" fill="#ADD1B2" rx="11" ry="11" style="stroke:#181818;stroke-width:1.0;"/><path d="M1850.3156,367.7266 Q1850.4719,367.5078 1850.6594,367.3984 Q1850.8469,367.2891 1851.0656,367.2891 Q1851.4406,367.2891 1851.675,367.5547 Q1851.9094,367.8047 1851.9094,368.4141 L1851.9094,369.8672 Q1851.9094,370.4766 1851.675,370.7422 Q1851.4406,371.0078 1851.0656,371.0078 Q1850.7219,371.0078 1850.5188,370.8047 Q1850.3156,370.6172 1850.2063,370.1016 Q1850.1594,369.7422 1849.9719,369.5547 Q1849.6438,369.1797 1849.0344,368.9609 Q1848.425,368.7422 1847.8,368.7422 Q1847.0344,368.7422 1846.3938,369.0703 Q1845.7688,369.3984 1845.2688,370.1484 Q1844.7844,370.8984 1844.7844,371.9297 L1844.7844,373.0234 Q1844.7844,374.2578 1845.675,375.0859 Q1846.5656,375.8984 1848.1594,375.8984 Q1849.0969,375.8984 1849.7531,375.6484 Q1850.1438,375.4922 1850.5656,375.0547 Q1850.8313,374.7891 1850.9719,374.7109 Q1851.1281,374.6328 1851.3313,374.6328 Q1851.6594,374.6328 1851.9094,374.8984 Q1852.175,375.1484 1852.175,375.4922 Q1852.175,375.8359 1851.8313,376.2422 Q1851.3313,376.8203 1850.5344,377.1484 Q1849.4563,377.6016 1848.1594,377.6016 Q1846.6438,377.6016 1845.4406,376.9766 Q1844.4563,376.4766 1843.7688,375.4141 Q1843.0813,374.3359 1843.0813,373.0547 L1843.0813,371.8984 Q1843.0813,370.5703 1843.6906,369.4297 Q1844.3156,368.2734 1845.4094,367.6641 Q1846.5031,367.0391 1847.7375,367.0391 Q1848.4719,367.0391 1849.1125,367.2109 Q1849.7688,367.3672 1850.3156,367.7266 Z " fill="#000000"/><text fill="#000000" font-family="sans-serif" font-size="12" font-style="italic" lengthAdjust="spacing" textLength="66" x="1866.95" y="367.957">&#171;dataclass&#187;</text><text fill="#000000" font-family="sans-serif" font-size="14" lengthAdjust="spacing" textLength="71" x="1864.45" y="385.127">ClockEvent</text><line style="stroke:#181818;stroke-width:0.5;" x1="1820.5" x2="1950.5" y1="393.2031" y2="393.2031"/><text fill="#000000" font-family="sans-serif" font-size="14" lengthAdjust="spacing" textLength="120" x="1825.5" y="411.7363">action: ClockAction</text><text fill="#000000" font-family="sans-serif" font-size="14" lengthAdjust="spacing" textLength="80" x="1825.5" y="429.3457">time : dt.time</text><line style="stroke:#181818;stroke-width:0.5;" x1="1820.5" x2="1950.5" y1="436.4219" y2="436.4219"/></g><!--class AttendanceError--><g id="elem_AttendanceError"><rect codeLine="113" fill="#F1F1F1" height="83.2188" id="AttendanceError" rx="2.5" ry="2.5" style="stroke:#181818;stroke-width:0.5;" width="136" x="1128.5" y="781"/><ellipse cx="1143.5" cy="797" fill="#ADD1B2" rx="11" ry="11" style="stroke:#181818;stroke-width:1.0;"/><path d="M1146.2656,792.875 Q1146.4219,792.6563 1146.6094,792.5469 Q1146.7969,792.4375 1147.0156,792.4375 Q1147.3906,792.4375 1147.625,792.7031 Q1147.8594,792.9531 1147.8594,793.5625 L1147.8594,795.0156 Q1147.8594,795.625 1147.625,795.8906 Q1147.3906,796.1563 1147.0156,796.1563 Q1146.6719,796.1563 1146.4688,795.9531 Q1146.2656,795.7656 1146.1563,795.25 Q1146.1094,794.8906 1145.9219,794.7031 Q1145.5938,794.3281 1144.9844,794.1094 Q1144.375,793.8906 1143.75,793.8906 Q1142.9844,793.8906 1142.3438,794.2188 Q1141.7188,794.5469 1141.2188,795.2969 Q1140.7344,796.0469 1140.7344,797.0781 L1140.7344,798.1719 Q1140.7344,799.4063 1141.625,800.2344 Q1142.5156,801.0469 1144.1094,801.0469 Q1145.0469,801.0469 1145.7031,800.7969 Q1146.0938,800.6406 1146.5156,800.2031 Q1146.7813,799.9375 1146.9219,799.8594 Q1147.0781,799.7813 1147.2813,799.7813 Q1147.6094,799.7813 1147.8594,800.0469 Q1148.125,800.2969 1148.125,800.6406 Q1148.125,800.9844 1147.7813,801.3906 Q1147.2813,801.9688 1146.4844,802.2969 Q1145.4063,802.75 1144.1094,802.75 Q1142.5938,802.75 1141.3906,802.125 Q1140.4063,801.625 1139.7188,800.5625 Q1139.0313,799.4844 1139.0313,798.2031 L1139.0313,797.0469 Q1139.0313,795.7188 1139.6406,794.5781 Q1140.2656,793.4219 1141.3594,792.8125 Q1142.4531,792.1875 1143.6875,792.1875 Q1144.4219,792.1875 1145.0625,792.3594 Q1145.7188,792.5156 1146.2656,792.875 Z " fill="#000000"/><text fill="#000000" font-family="sans-serif" font-size="14" lengthAdjust="spacing" textLength="104" x="1157.5" y="802.7285">AttendanceError</text><line style="stroke:#181818;stroke-width:0.5;" x1="1129.5" x2="1263.5" y1="813" y2="813"/><text fill="#000000" font-family="sans-serif" font-size="14" lengthAdjust="spacing" textLength="73" x="1134.5" y="831.5332">error_id: int</text><text fill="#000000" font-family="sans-serif" font-size="14" lengthAdjust="spacing" textLength="97" x="1134.5" y="849.1426">description : str</text><line style="stroke:#181818;stroke-width:0.5;" x1="1129.5" x2="1263.5" y1="856.2188" y2="856.2188"/></g><!--class AttendanceValidator--><g id="elem_AttendanceValidator"><rect codeLine="118" fill="#F1F1F1" height="100.8281" id="AttendanceValidator" rx="2.5" ry="2.5" style="stroke:#181818;stroke-width:0.5;" width="521" x="1300" y="772"/><ellipse cx="1492.25" cy="788" fill="#ADD1B2" rx="11" ry="11" style="stroke:#181818;stroke-width:1.0;"/><path d="M1495.0156,783.875 Q1495.1719,783.6563 1495.3594,783.5469 Q1495.5469,783.4375 1495.7656,783.4375 Q1496.1406,783.4375 1496.375,783.7031 Q1496.6094,783.9531 1496.6094,784.5625 L1496.6094,786.0156 Q1496.6094,786.625 1496.375,786.8906 Q1496.1406,787.1563 1495.7656,787.1563 Q1495.4219,787.1563 1495.2188,786.9531 Q1495.0156,786.7656 1494.9063,786.25 Q1494.8594,785.8906 1494.6719,785.7031 Q1494.3438,785.3281 1493.7344,785.1094 Q1493.125,784.8906 1492.5,784.8906 Q1491.7344,784.8906 1491.0938,785.2188 Q1490.4688,785.5469 1489.9688,786.2969 Q1489.4844,787.0469 1489.4844,788.0781 L1489.4844,789.1719 Q1489.4844,790.4063 1490.375,791.2344 Q1491.2656,792.0469 1492.8594,792.0469 Q1493.7969,792.0469 1494.4531,791.7969 Q1494.8438,791.6406 1495.2656,791.2031 Q1495.5313,790.9375 1495.6719,790.8594 Q1495.8281,790.7813 1496.0313,790.7813 Q1496.3594,790.7813 1496.6094,791.0469 Q1496.875,791.2969 1496.875,791.6406 Q1496.875,791.9844 1496.5313,792.3906 Q1496.0313,792.9688 1495.2344,793.2969 Q1494.1563,793.75 1492.8594,793.75 Q1491.3438,793.75 1490.1406,793.125 Q1489.1563,792.625 1488.4688,791.5625 Q1487.7813,790.4844 1487.7813,789.2031 L1487.7813,788.0469 Q1487.7813,786.7188 1488.3906,785.5781 Q1489.0156,784.4219 1490.1094,783.8125 Q1491.2031,783.1875 1492.4375,783.1875 Q1493.1719,783.1875 1493.8125,783.3594 Q1494.4688,783.5156 1495.0156,783.875 Z " fill="#000000"/><text fill="#000000" font-family="sans-serif" font-size="14" lengthAdjust="spacing" textLength="128" x="1512.75" y="793.7285">AttendanceValidator</text><line style="stroke:#181818;stroke-width:0.5;" x1="1301" x2="1820" y1="804" y2="804"/><text fill="#000000" font-family="sans-serif" font-size="14" lengthAdjust="spacing" textLength="166" x="1306" y="822.5332">time_tracker: TimeTracker</text><line style="stroke:#181818;stroke-width:0.5;" x1="1301" x2="1820" y1="829.6094" y2="829.6094"/><text fill="#000000" font-family="sans-serif" font-size="14" lengthAdjust="spacing" textLength="490" x="1306" y="848.1426">analyze_date(date: dt.date, update: bool=False) -&gt; Optional[AttendanceError]</text><text fill="#000000" font-family="sans-serif" font-size="14" lengthAdjust="spacing" textLength="509" x="1306" y="865.752">analyze_until(date: dt.date, update: bool=False) -&gt; dict[dt.date, AttendanceError]</text></g><g id="elem_GMN24"><path d="M1856,719.5 L1856,818.5 L1821.24,822.5 L1856,826.5 L1856,925.7188 A0,0 0 0 0 1856,925.7188 L2243,925.7188 A0,0 0 0 0 2243,925.7188 L2243,729.5 L2233,719.5 L1856,719.5 A0,0 0 0 0 1856,719.5 " fill="#FEFFDD" style="stroke:#181818;stroke-width:0.5;"/><path d="M2233,719.5 L2233,729.5 L2243,729.5 L2233,719.5 " fill="#FEFFDD" style="stroke:#181818;stroke-width:0.5;"/><text fill="#000000" font-family="sans-serif" font-size="13" lengthAdjust="spacing" textLength="362" x="1862" y="737.9951">The `AttendanceValidator` class complements the functionality</text><text fill="#000000" font-family="sans-serif" font-size="13" lengthAdjust="spacing" textLength="350" x="1862" y="754.3467">of the `TimeTrackerAnalyzer` by detecting additional types of</text><text fill="#000000" font-family="sans-serif" font-size="13" lengthAdjust="spacing" textLength="358" x="1862" y="770.6982">attendance errors, such as unordered clock events or custom-</text><text fill="#000000" font-family="sans-serif" font-size="13" lengthAdjust="spacing" textLength="291" x="1862" y="787.0498">defined conditions like excessive daily work hours.</text><text fill="#000000" font-family="sans-serif" font-size="13" lengthAdjust="spacing" textLength="4" x="1862" y="803.4014">&#160;</text><text fill="#000000" font-family="sans-serif" font-size="13" lengthAdjust="spacing" textLength="340" x="1862" y="819.7529">The `update` argument can optionally be set to `True` when</text><text fill="#000000" font-family="sans-serif" font-size="13" lengthAdjust="spacing" textLength="343" x="1862" y="836.1045">analyzing for errors. When enabled, it instructs the validator</text><text fill="#000000" font-family="sans-serif" font-size="13" lengthAdjust="spacing" textLength="352" x="1862" y="852.4561">to write all detected errors to the time tracker and save them.</text><text fill="#000000" font-family="sans-serif" font-size="13" lengthAdjust="spacing" textLength="4" x="1862" y="868.8076">&#160;</text><text fill="#000000" font-family="sans-serif" font-size="13" lengthAdjust="spacing" textLength="344" x="1862" y="885.1592">It is designed for extensibility &#8212; subclasses can implement</text><text fill="#000000" font-family="sans-serif" font-size="13" lengthAdjust="spacing" textLength="347" x="1862" y="901.5107">additional validation rules to support custom error checks as</text><text fill="#000000" font-family="sans-serif" font-size="13" lengthAdjust="spacing" textLength="46" x="1862" y="917.8623">needed.</text></g><!--class TimeTrackerAnalyzerFactory--><g id="elem_TimeTrackerAnalyzerFactory"><rect codeLine="142" fill="#F1F1F1" height="93.9219" id="TimeTrackerAnalyzerFactory" rx="2.5" ry="2.5" style="stroke:#181818;stroke-width:0.5;" width="480" x="434.5" y="350.5"/><ellipse cx="579.25" cy="371.8516" fill="#ADD1B2" rx="11" ry="11" style="stroke:#181818;stroke-width:1.0;"/><path d="M582.0156,367.7266 Q582.1719,367.5078 582.3594,367.3984 Q582.5469,367.2891 582.7656,367.2891 Q583.1406,367.2891 583.375,367.5547 Q583.6094,367.8047 583.6094,368.4141 L583.6094,369.8672 Q583.6094,370.4766 583.375,370.7422 Q583.1406,371.0078 582.7656,371.0078 Q582.4219,371.0078 582.2188,370.8047 Q582.0156,370.6172 581.9063,370.1016 Q581.8594,369.7422 581.6719,369.5547 Q581.3438,369.1797 580.7344,368.9609 Q580.125,368.7422 579.5,368.7422 Q578.7344,368.7422 578.0938,369.0703 Q577.4688,369.3984 576.9688,370.1484 Q576.4844,370.8984 576.4844,371.9297 L576.4844,373.0234 Q576.4844,374.2578 577.375,375.0859 Q578.2656,375.8984 579.8594,375.8984 Q580.7969,375.8984 581.4531,375.6484 Q581.8438,375.4922 582.2656,375.0547 Q582.5313,374.7891 582.6719,374.7109 Q582.8281,374.6328 583.0313,374.6328 Q583.3594,374.6328 583.6094,374.8984 Q583.875,375.1484 583.875,375.4922 Q583.875,375.8359 583.5313,376.2422 Q583.0313,376.8203 582.2344,377.1484 Q581.1563,377.6016 579.8594,377.6016 Q578.3438,377.6016 577.1406,376.9766 Q576.1563,376.4766 575.4688,375.4141 Q574.7813,374.3359 574.7813,373.0547 L574.7813,371.8984 Q574.7813,370.5703 575.3906,369.4297 Q576.0156,368.2734 577.1094,367.6641 Q578.2031,367.0391 579.4375,367.0391 Q580.1719,367.0391 580.8125,367.2109 Q581.4688,367.3672 582.0156,367.7266 Z " fill="#000000"/><text fill="#000000" font-family="sans-serif" font-size="12" font-style="italic" lengthAdjust="spacing" textLength="66" x="657.75" y="367.957">&#171;Singleton&#187;</text><text fill="#000000" font-family="sans-serif" font-size="14" lengthAdjust="spacing" textLength="182" x="599.75" y="385.127">TimeTrackerAnalyzerFactory</text><line style="stroke:#181818;stroke-width:0.5;" x1="435.5" x2="913.5" y1="393.2031" y2="393.2031"/><line style="stroke:#181818;stroke-width:0.5;" x1="435.5" x2="913.5" y1="401.2031" y2="401.2031"/><text fill="#000000" font-family="sans-serif" font-size="14" font-style="italic" lengthAdjust="spacing" textLength="468" x="440.5" y="419.7363">create(employee_id: str, year: int, readonly: bool) -&gt; TimeTrackerAnalyzer</text><text fill="#000000" font-family="sans-serif" font-size="14" font-style="italic" lengthAdjust="spacing" textLength="184" x="440.5" y="437.3457">list_employee_ids() -&gt; list[str]</text></g><g id="elem_GMN30"><path d="M6,302.5 L6,492.3672 A0,0 0 0 0 6,492.3672 L399,492.3672 A0,0 0 0 0 399,492.3672 L399,401.5 L434.26,397.5 L399,393.5 L399,312.5 L389,302.5 L6,302.5 A0,0 0 0 0 6,302.5 " fill="#FEFFDD" style="stroke:#181818;stroke-width:0.5;"/><path d="M389,302.5 L389,312.5 L399,312.5 L389,302.5 " fill="#FEFFDD" style="stroke:#181818;stroke-width:0.5;"/><text fill="#000000" font-family="sans-serif" font-size="13" lengthAdjust="spacing" textLength="341" x="12" y="320.9951">The TimeTrackerAnalyzerFactory is a generic interface that</text><text fill="#000000" font-family="sans-serif" font-size="13" lengthAdjust="spacing" textLength="368" x="12" y="337.3467">provides a simple way to create TimeTrackerAnalyzer instances</text><text fill="#000000" font-family="sans-serif" font-size="13" lengthAdjust="spacing" textLength="231" x="12" y="353.6982">using an employee ID and a target year.</text><text fill="#000000" font-family="sans-serif" font-size="13" lengthAdjust="spacing" textLength="330" x="12" y="370.0498">Typically, implementations of this interface are created at</text><text fill="#000000" font-family="sans-serif" font-size="13" lengthAdjust="spacing" textLength="348" x="12" y="386.4014">startup and injected into any module that needs to work with</text><text fill="#000000" font-family="sans-serif" font-size="13" lengthAdjust="spacing" textLength="344" x="12" y="402.7529">time trackers, allowing the module to remain unaware of the</text><text fill="#000000" font-family="sans-serif" font-size="13" lengthAdjust="spacing" textLength="252" x="12" y="419.1045">specific time tracker implementation in use.</text><text fill="#000000" font-family="sans-serif" font-size="13" lengthAdjust="spacing" textLength="313" x="12" y="435.4561">The factory also provides a utility method to retrieve all</text><text fill="#000000" font-family="sans-serif" font-size="13" lengthAdjust="spacing" textLength="227" x="12" y="451.8076">employee IDs registered in the system.</text><text fill="#000000" font-family="sans-serif" font-size="13" lengthAdjust="spacing" textLength="319" x="12" y="468.1592">The `readonly` flag can be specified. If supported by the</text><text fill="#000000" font-family="sans-serif" font-size="13" lengthAdjust="spacing" textLength="324" x="12" y="484.5107">implementation, a read-only time tracker will be created.</text></g><!--reverse link Employee to TimeTracker--><g id="link_Employee_TimeTracker"><path codeLine="97" d="M1560.5,170.6 C1560.5,191.94 1560.5,198.6 1560.5,223.88 " fill="none" id="Employee-backto-TimeTracker" style="stroke:#181818;stroke-width:1.0;"/><polygon fill="none" points="1560.5,152.6,1554.5,170.6,1566.5,170.6,1560.5,152.6" style="stroke:#181818;stroke-width:1.0;"/></g><!--reverse link TimeTracker to TimeTrackerAnalyzer--><g id="link_TimeTracker_TimeTrackerAnalyzer"><path codeLine="98" d="M1320.659,570.0708 C1314.709,573.4508 1324.42,567.84 1318.5,571 C1231.75,617.25 1201.3,608.99 1111.5,649 C1071.5,666.82 1029.54,687.18 989.41,707.52 " fill="none" id="TimeTracker-backto-TimeTrackerAnalyzer" style="stroke:#181818;stroke-width:1.0;"/><polygon fill="none" points="1336.31,561.18,1317.6954,564.8538,1323.6226,575.2878,1336.31,561.18" style="stroke:#181818;stroke-width:1.0;"/></g><!--reverse link TimeTracker to ClockEvent--><g id="link_TimeTracker_ClockEvent"><path codeLine="110" d="M1790.57,397.5 C1802.14,397.5 1807.7,397.5 1819.27,397.5 " fill="none" id="TimeTracker-backto-ClockEvent" style="stroke:#181818;stroke-width:1.0;stroke-dasharray:7.0,7.0;"/><polygon fill="#181818" points="1784.57,397.5,1793.57,401.5,1789.57,397.5,1793.57,393.5,1784.57,397.5" style="stroke:#181818;stroke-width:1.0;"/></g><!--reverse link ClockEvent to ClockAction--><g id="link_ClockEvent_ClockAction"><path codeLine="111" d="M1963.77,397.5 C1987.15,397.5 2001.11,397.5 2023.28,397.5 " fill="none" id="ClockEvent-backto-ClockAction" style="stroke:#181818;stroke-width:1.0;"/><polygon fill="#181818" points="1951.77,397.5,1957.77,401.5,1963.77,397.5,1957.77,393.5,1951.77,397.5" style="stroke:#181818;stroke-width:1.0;"/><text fill="#000000" font-family="sans-serif" font-size="13" lengthAdjust="spacing" textLength="35" x="1970" y="390.9951">action</text></g><!--link TimeTracker to AttendanceValidator--><g id="link_TimeTracker_AttendanceValidator"><path codeLine="139" d="M1560.5,571.16 C1560.5,643.58 1560.5,710.29 1560.5,759.74 " fill="none" id="TimeTracker-to-AttendanceValidator" style="stroke:#181818;stroke-width:1.0;"/><polygon fill="none" points="1560.5,771.74,1564.5,765.74,1560.5,759.74,1556.5,765.74,1560.5,771.74" style="stroke:#181818;stroke-width:1.0;"/><text fill="#000000" font-family="sans-serif" font-size="13" lengthAdjust="spacing" textLength="72" x="1561.5" y="615.4951">time_tracker</text></g><!--link AttendanceError to AttendanceValidator--><g id="link_AttendanceError_AttendanceValidator"><path codeLine="140" d="M1264.75,822.5 C1276.5,822.5 1282.24,822.5 1293.99,822.5 " fill="none" id="AttendanceError-to-AttendanceValidator" style="stroke:#181818;stroke-width:1.0;stroke-dasharray:7.0,7.0;"/><polygon fill="#181818" points="1299.99,822.5,1290.99,818.5,1294.99,822.5,1290.99,826.5,1299.99,822.5" style="stroke:#181818;stroke-width:1.0;"/></g><!--reverse link TimeTrackerAnalyzerFactory to TimeTrackerAnalyzer--><g id="link_TimeTrackerAnalyzerFactory_TimeTrackerAnalyzer"><path codeLine="161" d="M687.2621,450.3966 C699.3421,499.5466 717.78,574.53 736.03,648.76 " fill="none" id="TimeTrackerAnalyzerFactory-backto-TimeTrackerAnalyzer" style="stroke:#181818;stroke-width:1.0;stroke-dasharray:7.0,7.0;"/><polygon fill="#181818" points="685.83,444.57,684.0937,454.2646,687.0234,449.4255,691.8625,452.3552,685.83,444.57" style="stroke:#181818;stroke-width:1.0;"/></g><!--SRC=[fLZ1Zjou4RthAmg-fCVewNYJIp1m30oyDZ18i3vaaZqOHZTRehgPaSG6IKrRksjWFoAN_RtzahmgKcgfHpCsPc_T5AjOLQnwzOfvfRod5-_gGsKxhL_GpncHJl_MfhWY7noMVbPR_51v-DAeMZzSBOtpuVG9ttgLYtDjItfvfzpENz5rq-7FoxlZyFTYeZIlhDUB2xfyGp_OHcTVigonGLEboq3OURlNjEdFsP3n5B2oLLwJQO9sfSerbbIWWxFtfj2UfLIUQ_WSBErqevsgiBcqhbR1s8RKrhQ1L3C4OKc-pVSivscF8zZ99Gt-BkdcUx8E4btOcsONpyC-7w0mXzpYgAbM7QcY4FkShLWfFhT-ILlZmhxWpqr1tf9jBbRY6bISd2YizisV1Z_uDF8wu3DjTQvQhqKr10tCrhLkGdI73MaF1yInO8-tE5whuj8sLSV7t4nsB_m5sHAQ9cSVhRlpT3HXJpSV-0YdlMqTWaYBqh0lXGgAetwneclABIG_1xZSg1tion7BhPZM9YDK6on7ErTLrQLzWrAgJAdpBg_qAjC82LzubkKnJMzDhM-H6dVQnKmzvKgGvMBTQUMksFh9LtlG3IvdZK2lVRxNHLiXKukm2j1Ow2gesUrRLQac_vQTzogN4F89IEMoicfgGQq-hv7F-TrQtoFUVdtGZZT7MoTRTph4hNw1oCRJ-OSKGcLy-FZXm6UfwkDRtlQE5NxwDD7Xz0uRSOGeckfPafXmHIVfKusDbHoT2NhMbAG2dZvkprYdyL4DBiWqCrvjhQqcHoEvXvYU7ysNwFXBYlEyyRj7DSZ-XpV4HnwKATPOqRZrvn_xk9OdZbQevgRWT5jhvwnx471U50mTeetC-VIu5Kyh5Bc9fgygM0D0yyN93fFovhmNU7N_66fd0jcZCXRKLkGFEZUgCZz5r18Gcc1xzXYWrphiRI5mpiWcC2fvIv9mbCL4fGMZE6EuB5-QnilM-0-Gxo_aXgbF6Shuim3p48Pu1okw2LJQ773c0TVaKV-LvgsYCcEiPjX2YQYgHQW5hNS6TWXI8cwoSbJTAhQm6B1D5dqXmA8zYaVH4Gw526A5V_jW7KEcxr3XzIfxf-3PML0Rz1Us6D55GsiYxiOmboOdHibbT16dnSYXYSNpW6cIvmXHtVg0hnLx8QSZz2pxD3PV8wMwdsOm6dqUUSNfnsWwokIKbBpAUQYY0kHO0eRJskA1af7iV36mTnFadwc4Hm5-4EOs2FZYNS-IJxtaMR9_g9H5Iuskl5_hpqY0e5cfgKRnaA-dWdxQeAZgZyYEG_aCyJwIpn0T6iAPx4D85Y5EzPFCLtSwNIipeGDVbmbMKdbmQiwLoUvESryVPzGtU2_23x9e9d6U1Ek-hZSZTWYg1wMHUKynQ0JPsou1DXFa4MAdcXxJxTz__GqidU5kYLFogXKPkBiakREbm3RxGyb_aEYY0nK7h6MIrzJdffTPe62GFcfzroFqWF4-Agkj0zdClXTiZj1jQeJIu5wWJTr3gTg2a3BmWsxR6fhZ566mJ1cpQL9b4BPRLN4AG3XwoBhO9ASZYnvm6APbcpCyswmYz-__Kw5Bq-WOu8D5JBb_o9UCb-GCpuJzvEsAtWFCzMV5x1vXZDqqCcJ76xCUOD7SwBjNLwzUSOpKqAJYDC92_RLGeczygopqwcyGMigMMCtHfAD1Dm7R_mljmUOz8bOEO8vJSTXt8cV2iFMlQMicwPOsOvwgC0oX4V5a9fxXUiyxCM8JW6UuIVIolh-35JJ1b9sacl7SdKzTFj5MwRi-QK4uqepYT706EmgCAYosaTgP1T-B_fwomfIbXfBIsJfUEzZSdsS9s907IBpZti3UJ3azp4MOX5ePYUALSqFkBIAm3GnDoU1nz-qf4ht-vVAIHWMOZNu_-DXNSWPDRKqlXBTVIoXZqtxxpmzl_x6- -M7u-U7VjmmEgTcVUFuBUlsQgrK-l7aZmaeKfVaYQiMg9CWmIh6oanPQLQit4-j7idHPlHpDAj0H3nYikHu2_OxZanunnZmL_vcyEYDWH_6HuikCWl-0XCATNWbRkaw5SpMnRo0aKhddPBqzn0McBtz_Zrm-Qz9d5eyupxf5zbRVgAymUVWuR7gWj0TpPtRxqB-NpFYweHW785jw3eXmKxPD7WqseMCErlFosPwmxVfwHEceeZ1Hb49tOA9S2eaxgs0VNrUuRjl6ka8xdJXvgbGkWfZxbtA7N1W5lp54zHxpvnqt8G7ZU-R9t00OaWPOINx746u8SDkoY_8mOTE5G0RrZyBbEjpSkXORZtjWuN0nx5J9g1eha7xahxhXlb08dZ7bTcsUGdVVnvOr34oUkNQC4Pn8u9D8lLH73z7o5eIXWB_KgyX_R-HL2LbiTXm2iOLxBtgGaVlv_TV_8PXRkKe4dDqR7eF4ZzEL9Eku59pqIHWXpqGkJ926q4Wn-_FrG46ZGI-ACVYC8URoqj9CRg7MnaMKdIKfeUndf9wQAjwZ-gth67Z-9QDNi4q2dj7J8Q0xpBqz3kz3Iw5LtBfZMKb1pK7aM2s_Tgn7IltYz2Y3BMVyAMRUuox4sLTU8T7TpYPSI0z3BXY3N2NFZ7nNqRivpSFav-EBczJYYLtnOwKCVHHfHnhcO6XtYEznoxCNH3_p8iXDAveW10BYEDE5zY2wJVFVcE0Gi3BfrfRPM7IBaoZEjboZmeVwtf1IX5aPJy0zZUgbUS1dVWsaK4Ss8Q4H7z_FjPCgEdyARRZJhjAjbEaA8iyu1ReDiPeIOPDJKm_cwXszZYEMdlftDd4tJkTfAa-mqoVP1bE0slMleGC158QKIWywWA7GyU0P5n4vlTjEdUnfLBgFHwhpFF5UhrQpkVv_]--></g></svg>