<?xml version="1.0" encoding="us-ascii" standalone="no"?><svg xmlns="http://www.w3.org/2000/svg" xmlns:xlink="http://www.w3.org/1999/xlink" contentStyleType="text/css" height="916px" preserveAspectRatio="none" style="width:2181px;height:916px;background:#FFFFFF;" version="1.1" viewBox="0 0 2181 916" width="2181px" zoomAndPan="magnify"><defs/><g><!--class Employee--><g id="elem_Employee"><rect codeLine="2" fill="#F1F1F1" height="118.4375" id="Employee" rx="2.5" ry="2.5" style="stroke:#181818;stroke-width:0.5;" width="116" x="1433.5" y="25.5"/><ellipse cx="1458.4" cy="41.5" fill="#ADD1B2" rx="11" ry="11" style="stroke:#181818;stroke-width:1.0;"/><path d="M1461.1656,37.375 Q1461.3219,37.1563 1461.5094,37.0469 Q1461.6969,36.9375 1461.9156,36.9375 Q1462.2906,36.9375 1462.525,37.2031 Q1462.7594,37.4531 1462.7594,38.0625 L1462.7594,39.5156 Q1462.7594,40.125 1462.525,40.3906 Q1462.2906,40.6563 1461.9156,40.6563 Q1461.5719,40.6563 1461.3688,40.4531 Q1461.1656,40.2656 1461.0563,39.75 Q1461.0094,39.3906 1460.8219,39.2031 Q1460.4938,38.8281 1459.8844,38.6094 Q1459.275,38.3906 1458.65,38.3906 Q1457.8844,38.3906 1457.2438,38.7188 Q1456.6188,39.0469 1456.1188,39.7969 Q1455.6344,40.5469 1455.6344,41.5781 L1455.6344,42.6719 Q1455.6344,43.9063 1456.525,44.7344 Q1457.4156,45.5469 1459.0094,45.5469 Q1459.9469,45.5469 1460.6031,45.2969 Q1460.9938,45.1406 1461.4156,44.7031 Q1461.6813,44.4375 1461.8219,44.3594 Q1461.9781,44.2813 1462.1813,44.2813 Q1462.5094,44.2813 1462.7594,44.5469 Q1463.025,44.7969 1463.025,45.1406 Q1463.025,45.4844 1462.6813,45.8906 Q1462.1813,46.4688 1461.3844,46.7969 Q1460.3063,47.25 1459.0094,47.25 Q1457.4938,47.25 1456.2906,46.625 Q1455.3063,46.125 1454.6188,45.0625 Q1453.9313,43.9844 1453.9313,42.7031 L1453.9313,41.5469 Q1453.9313,40.2188 1454.5406,39.0781 Q1455.1656,37.9219 1456.2594,37.3125 Q1457.3531,36.6875 1458.5875,36.6875 Q1459.3219,36.6875 1459.9625,36.8594 Q1460.6188,37.0156 1461.1656,37.375 Z " fill="#000000"/><text fill="#000000" font-family="sans-serif" font-size="14" lengthAdjust="spacing" textLength="62" x="1474.6" y="47.2285">Employee</text><line style="stroke:#181818;stroke-width:0.5;" x1="1434.5" x2="1548.5" y1="57.5" y2="57.5"/><text fill="#000000" font-family="sans-serif" font-size="14" font-style="italic" lengthAdjust="spacing" textLength="59" x="1439.5" y="76.0332">name: str</text><text fill="#000000" font-family="sans-serif" font-size="14" font-style="italic" lengthAdjust="spacing" textLength="82" x="1439.5" y="93.6426">firstname: str</text><text fill="#000000" font-family="sans-serif" font-size="14" font-style="italic" lengthAdjust="spacing" textLength="104" x="1439.5" y="111.252">employee_id: str</text><line style="stroke:#181818;stroke-width:0.5;" x1="1434.5" x2="1548.5" y1="118.3281" y2="118.3281"/><text fill="#000000" font-family="sans-serif" font-size="14" font-style="italic" lengthAdjust="spacing" textLength="98" x="1439.5" y="136.8613">close() -&gt; None</text></g><g id="elem_GMN3"><path d="M1057,6 L1057,163.1641 A0,0 0 0 0 1057,163.1641 L1398,163.1641 A0,0 0 0 0 1398,163.1641 L1398,88.5 L1433.17,84.5 L1398,80.5 L1398,16 L1388,6 L1057,6 A0,0 0 0 0 1057,6 " fill="#FEFFDD" style="stroke:#181818;stroke-width:0.5;"/><path d="M1388,6 L1388,16 L1398,16 L1388,6 " fill="#FEFFDD" style="stroke:#181818;stroke-width:0.5;"/><text fill="#000000" font-family="sans-serif" font-size="13" lengthAdjust="spacing" textLength="289" x="1063" y="24.4951">The `Employee` is the base interface that provides</text><text fill="#000000" font-family="sans-serif" font-size="13" lengthAdjust="spacing" textLength="320" x="1063" y="40.8467">access to general information about an employee, such</text><text fill="#000000" font-family="sans-serif" font-size="13" lengthAdjust="spacing" textLength="296" x="1063" y="57.1982">as his name, firstname, ID or anything that is static</text><text fill="#000000" font-family="sans-serif" font-size="13" lengthAdjust="spacing" textLength="288" x="1063" y="73.5498">(we may add the role, status, birthday and so on).</text><text fill="#000000" font-family="sans-serif" font-size="13" lengthAdjust="spacing" textLength="303" x="1063" y="89.9014">This interface doesn't provide any setter because the</text><text fill="#000000" font-family="sans-serif" font-size="13" lengthAdjust="spacing" textLength="256" x="1063" y="106.2529">implementation is supposed to be read-only.</text><text fill="#000000" font-family="sans-serif" font-size="13" lengthAdjust="spacing" textLength="277" x="1063" y="122.6045">Implementation(s) of this interface works with IO</text><text fill="#000000" font-family="sans-serif" font-size="13" lengthAdjust="spacing" textLength="307" x="1063" y="138.9561">resources (file, database). A context manager can be</text><text fill="#000000" font-family="sans-serif" font-size="13" lengthAdjust="spacing" textLength="283" x="1063" y="155.3076">used to automatically manage resource lifecycle.</text></g><!--class TimeTracker--><g id="elem_TimeTracker"><rect codeLine="22" fill="#F1F1F1" height="294.5313" id="TimeTracker" rx="2.5" ry="2.5" style="stroke:#181818;stroke-width:0.5;" width="506" x="1238.5" y="224"/><ellipse cx="1447.25" cy="240" fill="#ADD1B2" rx="11" ry="11" style="stroke:#181818;stroke-width:1.0;"/><path d="M1450.0156,235.875 Q1450.1719,235.6563 1450.3594,235.5469 Q1450.5469,235.4375 1450.7656,235.4375 Q1451.1406,235.4375 1451.375,235.7031 Q1451.6094,235.9531 1451.6094,236.5625 L1451.6094,238.0156 Q1451.6094,238.625 1451.375,238.8906 Q1451.1406,239.1563 1450.7656,239.1563 Q1450.4219,239.1563 1450.2188,238.9531 Q1450.0156,238.7656 1449.9063,238.25 Q1449.8594,237.8906 1449.6719,237.7031 Q1449.3438,237.3281 1448.7344,237.1094 Q1448.125,236.8906 1447.5,236.8906 Q1446.7344,236.8906 1446.0938,237.2188 Q1445.4688,237.5469 1444.9688,238.2969 Q1444.4844,239.0469 1444.4844,240.0781 L1444.4844,241.1719 Q1444.4844,242.4063 1445.375,243.2344 Q1446.2656,244.0469 1447.8594,244.0469 Q1448.7969,244.0469 1449.4531,243.7969 Q1449.8438,243.6406 1450.2656,243.2031 Q1450.5313,242.9375 1450.6719,242.8594 Q1450.8281,242.7813 1451.0313,242.7813 Q1451.3594,242.7813 1451.6094,243.0469 Q1451.875,243.2969 1451.875,243.6406 Q1451.875,243.9844 1451.5313,244.3906 Q1451.0313,244.9688 1450.2344,245.2969 Q1449.1563,245.75 1447.8594,245.75 Q1446.3438,245.75 1445.1406,245.125 Q1444.1563,244.625 1443.4688,243.5625 Q1442.7813,242.4844 1442.7813,241.2031 L1442.7813,240.0469 Q1442.7813,238.7188 1443.3906,237.5781 Q1444.0156,236.4219 1445.1094,235.8125 Q1446.2031,235.1875 1447.4375,235.1875 Q1448.1719,235.1875 1448.8125,235.3594 Q1449.4688,235.5156 1450.0156,235.875 Z " fill="#000000"/><text fill="#000000" font-family="sans-serif" font-size="14" lengthAdjust="spacing" textLength="80" x="1467.75" y="245.7285">TimeTracker</text><line style="stroke:#181818;stroke-width:0.5;" x1="1239.5" x2="1743.5" y1="256" y2="256"/><text fill="#000000" font-family="sans-serif" font-size="14" font-style="italic" lengthAdjust="spacing" textLength="107" x="1244.5" y="274.5332">tracked_year: int</text><text fill="#000000" font-family="sans-serif" font-size="14" font-style="italic" lengthAdjust="spacing" textLength="228" x="1244.5" y="292.1426">opening_day_schedule: dt.timedelta</text><text fill="#000000" font-family="sans-serif" font-size="14" font-style="italic" lengthAdjust="spacing" textLength="190" x="1244.5" y="309.752">opening_balance: dt.timedelta</text><text fill="#000000" font-family="sans-serif" font-size="14" font-style="italic" lengthAdjust="spacing" textLength="184" x="1244.5" y="327.3613">opening_vacation_days: float</text><text fill="#000000" font-family="sans-serif" font-size="14" font-style="italic" lengthAdjust="spacing" textLength="198" x="1244.5" y="344.9707">max_clock_events_per_day: int</text><line style="stroke:#181818;stroke-width:0.5;" x1="1239.5" x2="1743.5" y1="352.0469" y2="352.0469"/><text fill="#000000" font-family="sans-serif" font-size="14" font-style="italic" lengthAdjust="spacing" textLength="336" x="1244.5" y="370.5801">get_clocks(date: dt.date) -&gt; list[Optional[ClockEvent]]</text><text fill="#000000" font-family="sans-serif" font-size="14" font-style="italic" lengthAdjust="spacing" textLength="355" x="1244.5" y="388.1895">register_clock(date: dt.date, event: ClockEvent) -&gt; None</text><text fill="#000000" font-family="sans-serif" font-size="14" font-style="italic" lengthAdjust="spacing" textLength="436" x="1244.5" y="405.7988">write_clocks(date: dt.date, events: list[Optional[ClockEvent]]) -&gt; None</text><text fill="#000000" font-family="sans-serif" font-size="14" lengthAdjust="spacing" textLength="223" x="1244.5" y="423.4082">is_clocked_in(date: dt.date) -&gt; bool</text><text fill="#000000" font-family="sans-serif" font-size="14" font-style="italic" lengthAdjust="spacing" textLength="326" x="1244.5" y="441.0176">set_vacation(date: dt.date, day_ratio: float) -&gt; None</text><text fill="#000000" font-family="sans-serif" font-size="14" font-style="italic" lengthAdjust="spacing" textLength="218" x="1244.5" y="458.627">get_vacation(date: dt.date) -&gt; float</text><text fill="#000000" font-family="sans-serif" font-size="14" font-style="italic" lengthAdjust="spacing" textLength="494" x="1244.5" y="476.2363">set_attendance_error(date: dt.date, error: Optional[AttendanceError]) -&gt; None</text><text fill="#000000" font-family="sans-serif" font-size="14" font-style="italic" lengthAdjust="spacing" textLength="414" x="1244.5" y="493.8457">get_attendance_error(date: dt.date) -&gt; Optional[AttendanceError]</text><text fill="#000000" font-family="sans-serif" font-size="14" font-style="italic" lengthAdjust="spacing" textLength="94" x="1244.5" y="511.4551">save() -&gt; None</text></g><g id="elem_GMN7"><path d="M852,301 L852,441.8125 A0,0 0 0 0 852,441.8125 L1203,441.8125 A0,0 0 0 0 1203,441.8125 L1203,375.5 L1238.49,371.5 L1203,367.5 L1203,311 L1193,301 L852,301 A0,0 0 0 0 852,301 " fill="#FEFFDD" style="stroke:#181818;stroke-width:0.5;"/><path d="M1193,301 L1193,311 L1203,311 L1193,301 " fill="#FEFFDD" style="stroke:#181818;stroke-width:0.5;"/><text fill="#000000" font-family="sans-serif" font-size="13" lengthAdjust="spacing" textLength="318" x="858" y="319.4951">The `TimeTracker` is a specialization of the `Employee`</text><text fill="#000000" font-family="sans-serif" font-size="13" lengthAdjust="spacing" textLength="315" x="858" y="335.8467">interface that provides methods to read and write clock</text><text fill="#000000" font-family="sans-serif" font-size="13" lengthAdjust="spacing" textLength="320" x="858" y="352.1982">events (such as clock-ins and clock-outs), day vacation</text><text fill="#000000" font-family="sans-serif" font-size="13" lengthAdjust="spacing" textLength="321" x="858" y="368.5498">and day attendance error. It focuses on single days and</text><text fill="#000000" font-family="sans-serif" font-size="13" lengthAdjust="spacing" textLength="329" x="858" y="384.9014">does not evaluate any given data in any way. The `save()`</text><text fill="#000000" font-family="sans-serif" font-size="13" lengthAdjust="spacing" textLength="315" x="858" y="401.2529">method allows to write the data to the storage system.</text><text fill="#000000" font-family="sans-serif" font-size="13" lengthAdjust="spacing" textLength="326" x="858" y="417.6045">Each `TimeTracker` instance is bound to a specific year,</text><text fill="#000000" font-family="sans-serif" font-size="13" lengthAdjust="spacing" textLength="320" x="858" y="433.9561">and all read or write operations must relate to that year.</text></g><!--class TimeTrackerAnalyzer--><g id="elem_TimeTrackerAnalyzer"><rect codeLine="51" fill="#F1F1F1" height="312.1406" id="TimeTrackerAnalyzer" rx="2.5" ry="2.5" style="stroke:#181818;stroke-width:0.5;" width="435" x="499" y="597"/><ellipse cx="645.25" cy="613" fill="#ADD1B2" rx="11" ry="11" style="stroke:#181818;stroke-width:1.0;"/><path d="M648.0156,608.875 Q648.1719,608.6563 648.3594,608.5469 Q648.5469,608.4375 648.7656,608.4375 Q649.1406,608.4375 649.375,608.7031 Q649.6094,608.9531 649.6094,609.5625 L649.6094,611.0156 Q649.6094,611.625 649.375,611.8906 Q649.1406,612.1563 648.7656,612.1563 Q648.4219,612.1563 648.2188,611.9531 Q648.0156,611.7656 647.9063,611.25 Q647.8594,610.8906 647.6719,610.7031 Q647.3438,610.3281 646.7344,610.1094 Q646.125,609.8906 645.5,609.8906 Q644.7344,609.8906 644.0938,610.2188 Q643.4688,610.5469 642.9688,611.2969 Q642.4844,612.0469 642.4844,613.0781 L642.4844,614.1719 Q642.4844,615.4063 643.375,616.2344 Q644.2656,617.0469 645.8594,617.0469 Q646.7969,617.0469 647.4531,616.7969 Q647.8438,616.6406 648.2656,616.2031 Q648.5313,615.9375 648.6719,615.8594 Q648.8281,615.7813 649.0313,615.7813 Q649.3594,615.7813 649.6094,616.0469 Q649.875,616.2969 649.875,616.6406 Q649.875,616.9844 649.5313,617.3906 Q649.0313,617.9688 648.2344,618.2969 Q647.1563,618.75 645.8594,618.75 Q644.3438,618.75 643.1406,618.125 Q642.1563,617.625 641.4688,616.5625 Q640.7813,615.4844 640.7813,614.2031 L640.7813,613.0469 Q640.7813,611.7188 641.3906,610.5781 Q642.0156,609.4219 643.1094,608.8125 Q644.2031,608.1875 645.4375,608.1875 Q646.1719,608.1875 646.8125,608.3594 Q647.4688,608.5156 648.0156,608.875 Z " fill="#000000"/><text fill="#000000" font-family="sans-serif" font-size="14" lengthAdjust="spacing" textLength="134" x="665.75" y="618.7285">TimeTrackerAnalyzer</text><line style="stroke:#181818;stroke-width:0.5;" x1="500" x2="933" y1="629" y2="629"/><text fill="#000000" font-family="sans-serif" font-size="14" lengthAdjust="spacing" textLength="177" x="505" y="647.5332">target_datetime: dt.datetime</text><text fill="#000000" font-family="sans-serif" font-size="14" lengthAdjust="spacing" textLength="91" x="505" y="665.1426">analyzed: bool</text><line style="stroke:#181818;stroke-width:0.5;" x1="500" x2="933" y1="672.2188" y2="672.2188"/><text fill="#000000" font-family="sans-serif" font-size="14" font-style="italic" lengthAdjust="spacing" textLength="291" x="505" y="690.752">analyze(target_datetime: dt.datetime) -&gt; None</text><text fill="#000000" font-family="sans-serif" font-size="14" font-style="italic" lengthAdjust="spacing" textLength="309" x="505" y="708.3613">read_day_schedule(date: dt.date) -&gt; dt.timedelta</text><text fill="#000000" font-family="sans-serif" font-size="14" font-style="italic" lengthAdjust="spacing" textLength="332" x="505" y="725.9707">read_day_worked_time(date: dt.date) -&gt; dt.timedelta</text><text fill="#000000" font-family="sans-serif" font-size="14" font-style="italic" lengthAdjust="spacing" textLength="302" x="505" y="743.5801">read_day_balance(date: dt.date) -&gt; dt.timedelta</text><text fill="#000000" font-family="sans-serif" font-size="14" font-style="italic" lengthAdjust="spacing" textLength="423" x="505" y="761.1895">read_attendance_error(date: dt.date) -&gt; Optional[AttendanceError]</text><text fill="#000000" font-family="sans-serif" font-size="14" font-style="italic" lengthAdjust="spacing" textLength="307" x="505" y="778.7988">read_month_schedule(month: int) -&gt; dt.timedelta</text><text fill="#000000" font-family="sans-serif" font-size="14" font-style="italic" lengthAdjust="spacing" textLength="330" x="505" y="796.4082">read_month_worked_time(month: int) -&gt; dt.timedelta</text><text fill="#000000" font-family="sans-serif" font-size="14" font-style="italic" lengthAdjust="spacing" textLength="300" x="505" y="814.0176">read_month_balance(month: int) -&gt; dt.timedelta</text><text fill="#000000" font-family="sans-serif" font-size="14" font-style="italic" lengthAdjust="spacing" textLength="256" x="505" y="831.627">read_month_vacation(month: int) -&gt; float</text><text fill="#000000" font-family="sans-serif" font-size="14" font-style="italic" lengthAdjust="spacing" textLength="183" x="505" y="849.2363">read_year_vacation() -&gt; float</text><text fill="#000000" font-family="sans-serif" font-size="14" font-style="italic" lengthAdjust="spacing" textLength="253" x="505" y="866.8457">read_year_remaining_vacation() -&gt; float</text><text fill="#000000" font-family="sans-serif" font-size="14" font-style="italic" lengthAdjust="spacing" textLength="283" x="505" y="884.4551">read_year_to_date_balance() -&gt; dt.timedelta</text><text fill="#000000" font-family="sans-serif" font-size="14" lengthAdjust="spacing" textLength="317" x="505" y="902.0645">read_year_to_yesterday_balance() -&gt; dt.timedelta</text></g><g id="elem_GMN11"><path d="M75.5,601 L75.5,905.3281 A0,0 0 0 0 75.5,905.3281 L463.5,905.3281 A0,0 0 0 0 463.5,905.3281 L463.5,757 L498.8,753 L463.5,749 L463.5,611 L453.5,601 L75.5,601 A0,0 0 0 0 75.5,601 " fill="#FEFFDD" style="stroke:#181818;stroke-width:0.5;"/><path d="M453.5,601 L453.5,611 L463.5,611 L453.5,601 " fill="#FEFFDD" style="stroke:#181818;stroke-width:0.5;"/><text fill="#000000" font-family="sans-serif" font-size="13" lengthAdjust="spacing" textLength="363" x="81.5" y="619.4951">The `TimeTrackerAnalyzer` interface extends the `TimeTracker`</text><text fill="#000000" font-family="sans-serif" font-size="13" lengthAdjust="spacing" textLength="327" x="81.5" y="635.8467">interface by providing methods to analyze an employee&#8217;s</text><text fill="#000000" font-family="sans-serif" font-size="13" lengthAdjust="spacing" textLength="324" x="81.5" y="652.1982">data, including day, month, and year balances, dynamic</text><text fill="#000000" font-family="sans-serif" font-size="13" lengthAdjust="spacing" textLength="358" x="81.5" y="668.5498">daily schedules based on weekdays and vacations, and more.</text><text fill="#000000" font-family="sans-serif" font-size="13" lengthAdjust="spacing" textLength="4" x="81.5" y="684.9014">&#160;</text><text fill="#000000" font-family="sans-serif" font-size="13" lengthAdjust="spacing" textLength="328" x="81.5" y="701.2529">Data is not immediately available. It becomes accessible</text><text fill="#000000" font-family="sans-serif" font-size="13" lengthAdjust="spacing" textLength="321" x="81.5" y="717.6045">only after calling the `analyze()` method with a specified</text><text fill="#000000" font-family="sans-serif" font-size="13" lengthAdjust="spacing" textLength="326" x="81.5" y="733.9561">`target_datetime`. This datetime defines the point in time</text><text fill="#000000" font-family="sans-serif" font-size="13" lengthAdjust="spacing" textLength="315" x="81.5" y="750.3076">the analysis is based on. For example, if the tracker is</text><text fill="#000000" font-family="sans-serif" font-size="13" lengthAdjust="spacing" textLength="346" x="81.5" y="766.6592">analyzed at 10:00 on a given day and the employee clocked</text><text fill="#000000" font-family="sans-serif" font-size="13" lengthAdjust="spacing" textLength="318" x="81.5" y="783.0107">in at 08:00, the worked time will be 2 hours. If analyzed</text><text fill="#000000" font-family="sans-serif" font-size="13" lengthAdjust="spacing" textLength="153" x="81.5" y="799.3623">at 11:00, it will be 3 hours.</text><text fill="#000000" font-family="sans-serif" font-size="13" lengthAdjust="spacing" textLength="4" x="81.5" y="815.7139">&#160;</text><text fill="#000000" font-family="sans-serif" font-size="13" lengthAdjust="spacing" textLength="350" x="81.5" y="832.0654">The analyzer also performs basic attendance error detection,</text><text fill="#000000" font-family="sans-serif" font-size="13" lengthAdjust="spacing" textLength="335" x="81.5" y="848.417">such as identifying missing clock-out events. These errors</text><text fill="#000000" font-family="sans-serif" font-size="13" lengthAdjust="spacing" textLength="332" x="81.5" y="864.7686">can be retrieved using `read_attendance_error(date)`. This</text><text fill="#000000" font-family="sans-serif" font-size="13" lengthAdjust="spacing" textLength="344" x="81.5" y="881.1201">differs from the `set/get_attendance_error()` methods, which</text><text fill="#000000" font-family="sans-serif" font-size="13" lengthAdjust="spacing" textLength="307" x="81.5" y="897.4717">are used to manually define or retrieve custom errors.</text></g><!--class ClockAction--><g id="elem_ClockAction"><rect codeLine="94" fill="#F1F1F1" height="83.2188" id="ClockAction" rx="2.5" ry="2.5" style="stroke:#181818;stroke-width:0.5;" width="106" x="1983.5" y="330"/><ellipse cx="1998.5" cy="346" fill="#EB937F" rx="11" ry="11" style="stroke:#181818;stroke-width:1.0;"/><path d="M1997.3594,346.7969 L1997.3594,349.2969 L2001.6875,349.2969 L2001.6875,348.375 Q2001.6875,347.7656 2001.9219,347.5 Q2002.1719,347.2344 2002.5469,347.2344 Q2002.9219,347.2344 2003.1563,347.5 Q2003.3906,347.7656 2003.3906,348.375 L2003.3906,351 L1995.3906,351 Q1994.7656,351 1994.5,350.7656 Q1994.25,350.5313 1994.25,350.1406 Q1994.25,349.7656 1994.5156,349.5313 Q1994.7813,349.2969 1995.3906,349.2969 L1995.6563,349.2969 L1995.6563,342.6406 L1995.3906,342.6406 Q1994.7656,342.6406 1994.5,342.4063 Q1994.25,342.1719 1994.25,341.7813 Q1994.25,341.4063 1994.5,341.1719 Q1994.7656,340.9375 1995.3906,340.9375 L2003.0156,340.9375 L2003.0156,343.5313 Q2003.0156,344.1406 2002.7813,344.4063 Q2002.5625,344.6563 2002.1719,344.6563 Q2001.7969,344.6563 2001.5625,344.4063 Q2001.3281,344.1406 2001.3281,343.5313 L2001.3281,342.6406 L1997.3594,342.6406 L1997.3594,345.0938 L1998.8438,345.0938 Q1998.8438,344.4375 1998.9688,344.25 Q1999.2344,343.8438 1999.7031,343.8438 Q2000.0781,343.8438 2000.3125,344.1094 Q2000.5469,344.3594 2000.5469,344.9688 L2000.5469,346.9375 Q2000.5469,347.4844 2000.4219,347.6719 Q2000.1563,348.0625 1999.7031,348.0625 Q1999.2344,348.0625 1998.9688,347.6563 Q1998.8438,347.4688 1998.8438,346.7969 L1997.3594,346.7969 Z " fill="#000000"/><text fill="#000000" font-family="sans-serif" font-size="14" lengthAdjust="spacing" textLength="74" x="2012.5" y="351.7285">ClockAction</text><line style="stroke:#181818;stroke-width:0.5;" x1="1984.5" x2="2088.5" y1="362" y2="362"/><text fill="#000000" font-family="sans-serif" font-size="14" lengthAdjust="spacing" textLength="68" x="1989.5" y="380.5332">CLOCK_IN</text><text fill="#000000" font-family="sans-serif" font-size="14" lengthAdjust="spacing" textLength="85" x="1989.5" y="398.1426">CLOCK_OUT</text><line style="stroke:#181818;stroke-width:0.5;" x1="1984.5" x2="2088.5" y1="405.2188" y2="405.2188"/></g><!--class ClockEvent--><g id="elem_ClockEvent"><rect codeLine="99" fill="#F1F1F1" height="83.2188" id="ClockEvent" rx="2.5" ry="2.5" style="stroke:#181818;stroke-width:0.5;" width="132" x="1779.5" y="330"/><ellipse cx="1807.55" cy="346" fill="#ADD1B2" rx="11" ry="11" style="stroke:#181818;stroke-width:1.0;"/><path d="M1810.3156,341.875 Q1810.4719,341.6563 1810.6594,341.5469 Q1810.8469,341.4375 1811.0656,341.4375 Q1811.4406,341.4375 1811.675,341.7031 Q1811.9094,341.9531 1811.9094,342.5625 L1811.9094,344.0156 Q1811.9094,344.625 1811.675,344.8906 Q1811.4406,345.1563 1811.0656,345.1563 Q1810.7219,345.1563 1810.5188,344.9531 Q1810.3156,344.7656 1810.2063,344.25 Q1810.1594,343.8906 1809.9719,343.7031 Q1809.6438,343.3281 1809.0344,343.1094 Q1808.425,342.8906 1807.8,342.8906 Q1807.0344,342.8906 1806.3938,343.2188 Q1805.7688,343.5469 1805.2688,344.2969 Q1804.7844,345.0469 1804.7844,346.0781 L1804.7844,347.1719 Q1804.7844,348.4063 1805.675,349.2344 Q1806.5656,350.0469 1808.1594,350.0469 Q1809.0969,350.0469 1809.7531,349.7969 Q1810.1438,349.6406 1810.5656,349.2031 Q1810.8313,348.9375 1810.9719,348.8594 Q1811.1281,348.7813 1811.3313,348.7813 Q1811.6594,348.7813 1811.9094,349.0469 Q1812.175,349.2969 1812.175,349.6406 Q1812.175,349.9844 1811.8313,350.3906 Q1811.3313,350.9688 1810.5344,351.2969 Q1809.4563,351.75 1808.1594,351.75 Q1806.6438,351.75 1805.4406,351.125 Q1804.4563,350.625 1803.7688,349.5625 Q1803.0813,348.4844 1803.0813,347.2031 L1803.0813,346.0469 Q1803.0813,344.7188 1803.6906,343.5781 Q1804.3156,342.4219 1805.4094,341.8125 Q1806.5031,341.1875 1807.7375,341.1875 Q1808.4719,341.1875 1809.1125,341.3594 Q1809.7688,341.5156 1810.3156,341.875 Z " fill="#000000"/><text fill="#000000" font-family="sans-serif" font-size="14" lengthAdjust="spacing" textLength="71" x="1824.45" y="351.7285">ClockEvent</text><line style="stroke:#181818;stroke-width:0.5;" x1="1780.5" x2="1910.5" y1="362" y2="362"/><text fill="#000000" font-family="sans-serif" font-size="14" lengthAdjust="spacing" textLength="120" x="1785.5" y="380.5332">action: ClockAction</text><text fill="#000000" font-family="sans-serif" font-size="14" lengthAdjust="spacing" textLength="80" x="1785.5" y="398.1426">time : dt.time</text><line style="stroke:#181818;stroke-width:0.5;" x1="1780.5" x2="1910.5" y1="405.2188" y2="405.2188"/></g><!--class AttendanceError--><g id="elem_AttendanceError"><rect codeLine="107" fill="#F1F1F1" height="83.2188" id="AttendanceError" rx="2.5" ry="2.5" style="stroke:#181818;stroke-width:0.5;" width="136" x="1059.5" y="711.5"/><ellipse cx="1074.5" cy="727.5" fill="#ADD1B2" rx="11" ry="11" style="stroke:#181818;stroke-width:1.0;"/><path d="M1077.2656,723.375 Q1077.4219,723.1563 1077.6094,723.0469 Q1077.7969,722.9375 1078.0156,722.9375 Q1078.3906,722.9375 1078.625,723.2031 Q1078.8594,723.4531 1078.8594,724.0625 L1078.8594,725.5156 Q1078.8594,726.125 1078.625,726.3906 Q1078.3906,726.6563 1078.0156,726.6563 Q1077.6719,726.6563 1077.4688,726.4531 Q1077.2656,726.2656 1077.1563,725.75 Q1077.1094,725.3906 1076.9219,725.2031 Q1076.5938,724.8281 1075.9844,724.6094 Q1075.375,724.3906 1074.75,724.3906 Q1073.9844,724.3906 1073.3438,724.7188 Q1072.7188,725.0469 1072.2188,725.7969 Q1071.7344,726.5469 1071.7344,727.5781 L1071.7344,728.6719 Q1071.7344,729.9063 1072.625,730.7344 Q1073.5156,731.5469 1075.1094,731.5469 Q1076.0469,731.5469 1076.7031,731.2969 Q1077.0938,731.1406 1077.5156,730.7031 Q1077.7813,730.4375 1077.9219,730.3594 Q1078.0781,730.2813 1078.2813,730.2813 Q1078.6094,730.2813 1078.8594,730.5469 Q1079.125,730.7969 1079.125,731.1406 Q1079.125,731.4844 1078.7813,731.8906 Q1078.2813,732.4688 1077.4844,732.7969 Q1076.4063,733.25 1075.1094,733.25 Q1073.5938,733.25 1072.3906,732.625 Q1071.4063,732.125 1070.7188,731.0625 Q1070.0313,729.9844 1070.0313,728.7031 L1070.0313,727.5469 Q1070.0313,726.2188 1070.6406,725.0781 Q1071.2656,723.9219 1072.3594,723.3125 Q1073.4531,722.6875 1074.6875,722.6875 Q1075.4219,722.6875 1076.0625,722.8594 Q1076.7188,723.0156 1077.2656,723.375 Z " fill="#000000"/><text fill="#000000" font-family="sans-serif" font-size="14" lengthAdjust="spacing" textLength="104" x="1088.5" y="733.2285">AttendanceError</text><line style="stroke:#181818;stroke-width:0.5;" x1="1060.5" x2="1194.5" y1="743.5" y2="743.5"/><text fill="#000000" font-family="sans-serif" font-size="14" lengthAdjust="spacing" textLength="73" x="1065.5" y="762.0332">error_id: int</text><text fill="#000000" font-family="sans-serif" font-size="14" lengthAdjust="spacing" textLength="97" x="1065.5" y="779.6426">description : str</text><line style="stroke:#181818;stroke-width:0.5;" x1="1060.5" x2="1194.5" y1="786.7188" y2="786.7188"/></g><!--class AttendanceValidator--><g id="elem_AttendanceValidator"><rect codeLine="112" fill="#F1F1F1" height="100.8281" id="AttendanceValidator" rx="2.5" ry="2.5" style="stroke:#181818;stroke-width:0.5;" width="521" x="1231" y="702.5"/><ellipse cx="1423.25" cy="718.5" fill="#ADD1B2" rx="11" ry="11" style="stroke:#181818;stroke-width:1.0;"/><path d="M1426.0156,714.375 Q1426.1719,714.1563 1426.3594,714.0469 Q1426.5469,713.9375 1426.7656,713.9375 Q1427.1406,713.9375 1427.375,714.2031 Q1427.6094,714.4531 1427.6094,715.0625 L1427.6094,716.5156 Q1427.6094,717.125 1427.375,717.3906 Q1427.1406,717.6563 1426.7656,717.6563 Q1426.4219,717.6563 1426.2188,717.4531 Q1426.0156,717.2656 1425.9063,716.75 Q1425.8594,716.3906 1425.6719,716.2031 Q1425.3438,715.8281 1424.7344,715.6094 Q1424.125,715.3906 1423.5,715.3906 Q1422.7344,715.3906 1422.0938,715.7188 Q1421.4688,716.0469 1420.9688,716.7969 Q1420.4844,717.5469 1420.4844,718.5781 L1420.4844,719.6719 Q1420.4844,720.9063 1421.375,721.7344 Q1422.2656,722.5469 1423.8594,722.5469 Q1424.7969,722.5469 1425.4531,722.2969 Q1425.8438,722.1406 1426.2656,721.7031 Q1426.5313,721.4375 1426.6719,721.3594 Q1426.8281,721.2813 1427.0313,721.2813 Q1427.3594,721.2813 1427.6094,721.5469 Q1427.875,721.7969 1427.875,722.1406 Q1427.875,722.4844 1427.5313,722.8906 Q1427.0313,723.4688 1426.2344,723.7969 Q1425.1563,724.25 1423.8594,724.25 Q1422.3438,724.25 1421.1406,723.625 Q1420.1563,723.125 1419.4688,722.0625 Q1418.7813,720.9844 1418.7813,719.7031 L1418.7813,718.5469 Q1418.7813,717.2188 1419.3906,716.0781 Q1420.0156,714.9219 1421.1094,714.3125 Q1422.2031,713.6875 1423.4375,713.6875 Q1424.1719,713.6875 1424.8125,713.8594 Q1425.4688,714.0156 1426.0156,714.375 Z " fill="#000000"/><text fill="#000000" font-family="sans-serif" font-size="14" lengthAdjust="spacing" textLength="128" x="1443.75" y="724.2285">AttendanceValidator</text><line style="stroke:#181818;stroke-width:0.5;" x1="1232" x2="1751" y1="734.5" y2="734.5"/><text fill="#000000" font-family="sans-serif" font-size="14" lengthAdjust="spacing" textLength="78" x="1237" y="753.0332">time_tracker</text><line style="stroke:#181818;stroke-width:0.5;" x1="1232" x2="1751" y1="760.1094" y2="760.1094"/><text fill="#000000" font-family="sans-serif" font-size="14" lengthAdjust="spacing" textLength="490" x="1237" y="778.6426">analyze_date(date: dt.date, update: bool=False) -&gt; Optional[AttendanceError]</text><text fill="#000000" font-family="sans-serif" font-size="14" lengthAdjust="spacing" textLength="509" x="1237" y="796.252">analyze_until(date: dt.date, update: bool=False) -&gt; dict[dt.date, AttendanceError]</text></g><g id="elem_GMN24"><path d="M1787,650 L1787,749 L1752.24,753 L1787,757 L1787,856.2188 A0,0 0 0 0 1787,856.2188 L2174,856.2188 A0,0 0 0 0 2174,856.2188 L2174,660 L2164,650 L1787,650 A0,0 0 0 0 1787,650 " fill="#FEFFDD" style="stroke:#181818;stroke-width:0.5;"/><path d="M2164,650 L2164,660 L2174,660 L2164,650 " fill="#FEFFDD" style="stroke:#181818;stroke-width:0.5;"/><text fill="#000000" font-family="sans-serif" font-size="13" lengthAdjust="spacing" textLength="362" x="1793" y="668.4951">The `AttendanceValidator` class complements the functionality</text><text fill="#000000" font-family="sans-serif" font-size="13" lengthAdjust="spacing" textLength="350" x="1793" y="684.8467">of the `TimeTrackerAnalyzer` by detecting additional types of</text><text fill="#000000" font-family="sans-serif" font-size="13" lengthAdjust="spacing" textLength="358" x="1793" y="701.1982">attendance errors, such as unordered clock events or custom-</text><text fill="#000000" font-family="sans-serif" font-size="13" lengthAdjust="spacing" textLength="291" x="1793" y="717.5498">defined conditions like excessive daily work hours.</text><text fill="#000000" font-family="sans-serif" font-size="13" lengthAdjust="spacing" textLength="4" x="1793" y="733.9014">&#160;</text><text fill="#000000" font-family="sans-serif" font-size="13" lengthAdjust="spacing" textLength="340" x="1793" y="750.2529">The `update` argument can optionally be set to `True` when</text><text fill="#000000" font-family="sans-serif" font-size="13" lengthAdjust="spacing" textLength="343" x="1793" y="766.6045">analyzing for errors. When enabled, it instructs the validator</text><text fill="#000000" font-family="sans-serif" font-size="13" lengthAdjust="spacing" textLength="352" x="1793" y="782.9561">to write all detected errors to the time tracker and save them.</text><text fill="#000000" font-family="sans-serif" font-size="13" lengthAdjust="spacing" textLength="4" x="1793" y="799.3076">&#160;</text><text fill="#000000" font-family="sans-serif" font-size="13" lengthAdjust="spacing" textLength="344" x="1793" y="815.6592">It is designed for extensibility &#8212; subclasses can implement</text><text fill="#000000" font-family="sans-serif" font-size="13" lengthAdjust="spacing" textLength="347" x="1793" y="832.0107">additional validation rules to support custom error checks as</text><text fill="#000000" font-family="sans-serif" font-size="13" lengthAdjust="spacing" textLength="46" x="1793" y="848.3623">needed.</text></g><!--class TimeTrackerAnalyzerFactory--><g id="elem_TimeTrackerAnalyzerFactory"><rect codeLine="136" fill="#F1F1F1" height="83.2188" id="TimeTrackerAnalyzerFactory" rx="2.5" ry="2.5" style="stroke:#181818;stroke-width:0.5;" width="382" x="434.5" y="330"/><ellipse cx="530.25" cy="346" fill="#ADD1B2" rx="11" ry="11" style="stroke:#181818;stroke-width:1.0;"/><path d="M533.0156,341.875 Q533.1719,341.6563 533.3594,341.5469 Q533.5469,341.4375 533.7656,341.4375 Q534.1406,341.4375 534.375,341.7031 Q534.6094,341.9531 534.6094,342.5625 L534.6094,344.0156 Q534.6094,344.625 534.375,344.8906 Q534.1406,345.1563 533.7656,345.1563 Q533.4219,345.1563 533.2188,344.9531 Q533.0156,344.7656 532.9063,344.25 Q532.8594,343.8906 532.6719,343.7031 Q532.3438,343.3281 531.7344,343.1094 Q531.125,342.8906 530.5,342.8906 Q529.7344,342.8906 529.0938,343.2188 Q528.4688,343.5469 527.9688,344.2969 Q527.4844,345.0469 527.4844,346.0781 L527.4844,347.1719 Q527.4844,348.4063 528.375,349.2344 Q529.2656,350.0469 530.8594,350.0469 Q531.7969,350.0469 532.4531,349.7969 Q532.8438,349.6406 533.2656,349.2031 Q533.5313,348.9375 533.6719,348.8594 Q533.8281,348.7813 534.0313,348.7813 Q534.3594,348.7813 534.6094,349.0469 Q534.875,349.2969 534.875,349.6406 Q534.875,349.9844 534.5313,350.3906 Q534.0313,350.9688 533.2344,351.2969 Q532.1563,351.75 530.8594,351.75 Q529.3438,351.75 528.1406,351.125 Q527.1563,350.625 526.4688,349.5625 Q525.7813,348.4844 525.7813,347.2031 L525.7813,346.0469 Q525.7813,344.7188 526.3906,343.5781 Q527.0156,342.4219 528.1094,341.8125 Q529.2031,341.1875 530.4375,341.1875 Q531.1719,341.1875 531.8125,341.3594 Q532.4688,341.5156 533.0156,341.875 Z " fill="#000000"/><text fill="#000000" font-family="sans-serif" font-size="14" lengthAdjust="spacing" textLength="182" x="550.75" y="351.7285">TimeTrackerAnalyzerFactory</text><line style="stroke:#181818;stroke-width:0.5;" x1="435.5" x2="815.5" y1="362" y2="362"/><line style="stroke:#181818;stroke-width:0.5;" x1="435.5" x2="815.5" y1="370" y2="370"/><text fill="#000000" font-family="sans-serif" font-size="14" font-style="italic" lengthAdjust="spacing" textLength="370" x="440.5" y="388.5332">create(employee_id: str, year: int) -&gt; TimeTrackerAnalyzer</text><text fill="#000000" font-family="sans-serif" font-size="14" font-style="italic" lengthAdjust="spacing" textLength="184" x="440.5" y="406.1426">list_employee_ids() -&gt; list[str]</text></g><g id="elem_GMN30"><path d="M6,293 L6,450.1641 A0,0 0 0 0 6,450.1641 L399,450.1641 A0,0 0 0 0 399,450.1641 L399,375.5 L434.5,371.5 L399,367.5 L399,303 L389,293 L6,293 A0,0 0 0 0 6,293 " fill="#FEFFDD" style="stroke:#181818;stroke-width:0.5;"/><path d="M389,293 L389,303 L399,303 L389,293 " fill="#FEFFDD" style="stroke:#181818;stroke-width:0.5;"/><text fill="#000000" font-family="sans-serif" font-size="13" lengthAdjust="spacing" textLength="341" x="12" y="311.4951">The TimeTrackerAnalyzerFactory is a generic interface that</text><text fill="#000000" font-family="sans-serif" font-size="13" lengthAdjust="spacing" textLength="368" x="12" y="327.8467">provides a simple way to create TimeTrackerAnalyzer instances</text><text fill="#000000" font-family="sans-serif" font-size="13" lengthAdjust="spacing" textLength="231" x="12" y="344.1982">using an employee ID and a target year.</text><text fill="#000000" font-family="sans-serif" font-size="13" lengthAdjust="spacing" textLength="330" x="12" y="360.5498">Typically, implementations of this interface are created at</text><text fill="#000000" font-family="sans-serif" font-size="13" lengthAdjust="spacing" textLength="348" x="12" y="376.9014">startup and injected into any module that needs to work with</text><text fill="#000000" font-family="sans-serif" font-size="13" lengthAdjust="spacing" textLength="344" x="12" y="393.2529">time trackers, allowing the module to remain unaware of the</text><text fill="#000000" font-family="sans-serif" font-size="13" lengthAdjust="spacing" textLength="252" x="12" y="409.6045">specific time tracker implementation in use.</text><text fill="#000000" font-family="sans-serif" font-size="13" lengthAdjust="spacing" textLength="313" x="12" y="425.9561">The factory also provides a utility method to retrieve all</text><text fill="#000000" font-family="sans-serif" font-size="13" lengthAdjust="spacing" textLength="227" x="12" y="442.3076">employee IDs registered in the system.</text></g><!--reverse link Employee to TimeTracker--><g id="link_Employee_TimeTracker"><path codeLine="91" d="M1491.5,161.52 C1491.5,185.04 1491.5,195.36 1491.5,223.9 " fill="none" id="Employee-backto-TimeTracker" style="stroke:#181818;stroke-width:1.0;"/><polygon fill="none" points="1491.5,143.52,1485.5,161.52,1497.5,161.52,1491.5,143.52" style="stroke:#181818;stroke-width:1.0;"/></g><!--reverse link TimeTracker to TimeTrackerAnalyzer--><g id="link_TimeTracker_TimeTrackerAnalyzer"><path codeLine="92" d="M1222.1995,518.2383 C1216.2195,521.2183 1226.39,516.12 1220.5,519 C1142.89,556.9 1121.07,561.12 1042.5,597 C1007.44,613.01 970.41,630.27 934.39,647.27 " fill="none" id="TimeTracker-backto-TimeTrackerAnalyzer" style="stroke:#181818;stroke-width:1.0;"/><polygon fill="none" points="1238.31,510.21,1219.5235,512.8681,1224.8756,523.6084,1238.31,510.21" style="stroke:#181818;stroke-width:1.0;"/></g><!--reverse link TimeTracker to ClockEvent--><g id="link_TimeTracker_ClockEvent"><path codeLine="104" d="M1750.55,371.5 C1762.12,371.5 1767.69,371.5 1779.25,371.5 " fill="none" id="TimeTracker-backto-ClockEvent" style="stroke:#181818;stroke-width:1.0;stroke-dasharray:7.0,7.0;"/><polygon fill="#181818" points="1744.55,371.5,1753.55,375.5,1749.55,371.5,1753.55,367.5,1744.55,371.5" style="stroke:#181818;stroke-width:1.0;"/></g><!--reverse link ClockEvent to ClockAction--><g id="link_ClockEvent_ClockAction"><path codeLine="105" d="M1923.77,371.5 C1947.15,371.5 1961.11,371.5 1983.28,371.5 " fill="none" id="ClockEvent-backto-ClockAction" style="stroke:#181818;stroke-width:1.0;"/><polygon fill="#181818" points="1911.77,371.5,1917.77,375.5,1923.77,371.5,1917.77,367.5,1911.77,371.5" style="stroke:#181818;stroke-width:1.0;"/><text fill="#000000" font-family="sans-serif" font-size="13" lengthAdjust="spacing" textLength="35" x="1930" y="364.9951">action</text></g><!--link TimeTracker to AttendanceValidator--><g id="link_TimeTracker_AttendanceValidator"><path codeLine="133" d="M1491.5,519.22 C1491.5,583.88 1491.5,643.58 1491.5,690.09 " fill="none" id="TimeTracker-to-AttendanceValidator" style="stroke:#181818;stroke-width:1.0;"/><polygon fill="none" points="1491.5,702.09,1495.5,696.09,1491.5,690.09,1487.5,696.09,1491.5,702.09" style="stroke:#181818;stroke-width:1.0;"/><text fill="#000000" font-family="sans-serif" font-size="13" lengthAdjust="spacing" textLength="72" x="1492.5" y="563.4951">time_tracker</text></g><!--link AttendanceError to AttendanceValidator--><g id="link_AttendanceError_AttendanceValidator"><path codeLine="134" d="M1195.75,753 C1207.5,753 1213.24,753 1224.99,753 " fill="none" id="AttendanceError-to-AttendanceValidator" style="stroke:#181818;stroke-width:1.0;stroke-dasharray:7.0,7.0;"/><polygon fill="#181818" points="1230.99,753,1221.99,749,1225.99,753,1221.99,757,1230.99,753" style="stroke:#181818;stroke-width:1.0;"/></g><!--reverse link TimeTrackerAnalyzerFactory to TimeTrackerAnalyzer--><g id="link_TimeTrackerAnalyzerFactory_TimeTrackerAnalyzer"><path codeLine="153" d="M636.6383,418.9448 C647.1783,462.9248 663.25,529.95 679.3,596.86 " fill="none" id="TimeTrackerAnalyzerFactory-backto-TimeTrackerAnalyzer" style="stroke:#181818;stroke-width:1.0;stroke-dasharray:7.0,7.0;"/><polygon fill="#181818" points="635.24,413.11,633.4476,422.7944,636.4053,417.9723,641.2274,420.93,635.24,413.11" style="stroke:#181818;stroke-width:1.0;"/></g><!--SRC=[hLZ1Zjj64htpAmg-P2QGj4voMGoI08PZ0uCDuilivc0OKejiIhr3ieNkviXCOY0ViPVyNhuahwgR5AcXnewnDudTLLrLNVNgLUULyfwUlQeFbUsqVaQ_PaI_ggqFJkNXGwDgVKFuC_bQ6kV3_99EYjQcY8kJrRooNbzTq_9x-iasElkGPOqDcYfT1iBEkxscJM_BXeodW2zRvJMP9cXNgbpZamfqSFR15DgpbCfp3IU2fPrkj5CLDfVMrIeOsv3QsZQGQgWtRK6-pVSivscF8zYH1Gq-BUZs1x8E4btOcsONpyC-7w0mXzpLKLEjEb958VOvMx5IBBT-GLlZmhxWvQOWRyasrojn3IfEJXHM- -QBmGy-ZRmEMAQjpbNhjQY6e87PkjPDYEwm8UtXW3WMxF4MnsjLB6rJTNpCxMJtbRycMqBJvEoZTVUUZYRiwVOD7-6qjwr34EcgDEnBeOBYg5-lw0Nb5fBl0rnkr0xsvOZbLanhan6g3PQZdQkgwjA-GIbLfjHvbrTwbMc4X2yyo_AOTtUcrdT8ZNljpbCloETYtMdbRjZwoQezw0QNiqQWrpxVwwAja8r5M0LeB7GLrEpshQfKat_ApWULImZv17z3PMNLr89QlLyZd_FxjNv0lFtwe1rlZhPEjkvqY5lz5I8RJ-SVKWYLyU7jcmEVfQgtBtdRArRuxjr4XzCxRCGHecYgPq5YmWsTf4yrDbPoT2ReMLEI2dXwsPwnJkEZ6boGQMQysbfRJOv6SWynFJ-QBz7nIehplF6xYnfa_-CRuYCLIgef-CxNsZdh7ddD7szeyFV5iFyLhxoxRChJcaNkejQfcUhX4YPc0eYZ8X5CLEGFEZUgChz4J90Ido1dTWakQntsjX2mPDmGa9Ai8BbEoc8Qq1LZ92EaV5wQnilM-0-0wg_bsgY_4CfuMM1ly3K6TqMtWKgR0omym90ygglIl5LKPeo430f8G5Mr29rWuSx03i4Xb9DyEQfk5Hj43DWcYxuGGCSUnQFe28T21F65V_jW7GEIxr0_zIfxfU3PML0Re3TRZEYYNJGHrMAOIvCJOz0YkeZJOkJG8k9vG0n9NeIeRdt0QiLUoEa8FSi-ZNmla2BTBpq21kKulJY96A66ZE8_tBJYPdJNL6AJN4ghLqyfcKzfzcc2fZFvV14q1s5kBO04tlLPyWcV_xRi_wqOHLkDZhS_1KB-2gn_WYLHTXo7pn3lm_0PeWD2dia-XaSHukmyoNnqfzErCfF- -76PO2KF1wVcN9dixZGtkd4wF1Pv4YNxWjgCI0yO36uz4iffyO-mSjibf6JUDuBAL5PZ5lddxt-0V3BEB71ANhKY0wCN995V25woIvIy03SiEZ1Cu0da39XIds5UA6x1w7ZK-hw7nW5SVLHMMmSEbVqWe1WnqzG8Y45qeKqzGAdQWcSnue95sXgQ8pas-4mPaqHIPH0ILrMHt28SFMfSRvBJaHmE00ZJiiqPf6nMaTBs_wdGfMbq3F318gOCtBAIyISvmpCFFNcxejT0KVrUCMb566CRYyJFySQiHpjq5Vhg-StpvnmZDNI7IB9PgByMIgo4RvM5dlyJGWlP4ciocdGqW76GsAzf3vBg4R5oG5QSYiE-4ZaJXgtVfAsPf5lQZ36X0iT71-21Gpp3zPwtGCGcw9nl4asaRwnenqqmPIUfPZotnLDxJMnC6fvFMX2EHBsT3ivWHm46pcARonXutTzJLfYor51IEbl7QmS_-iSiando08btt1lOcocd1xeFWjyAquzNpfsmjuZGvZ4B98F7RQ_d9lJjRyibZGem6_r-jDXNSWPDRKtFX8w-a536RldonpSl_xM-_Mdu-URVTmmEgSkUw6lShaGq4UMeXrikfyGm4x3uIOvMrUhxYRqZMLfMNuv8DtJ40uRpptfDD4A28mDod6h0ot9df3rH79e_p2Zu3_WURhHNmfQkKwcSQ86Kvpd7RG_n0nE6xruZOJ_U47jrBLAq-aHzXSd3ss7J8wKzOZkpsuT-rfznRqFHTS1N6cKZffHjaqU3JUYOzVIiTnRujrrVTAWF3EecYbBe3an3ItatE2jJ7ry6k3ZRnhf2EvqORof7plIOu4kvDix-WkVZgDvZThhdJYE8-y0ib56USMV0ZkHt3E66WAajkoX3jKqN0XaKEQgJYsrpvrfiFEu1UCF5i5CbGsSiC_gPLtN3u5y8Q36XTMsUGlVGnvOr33oPcMoC4Pn829CeinH4ZyFoZW7ApIlrAZBEMtaHGUAQ7OT0RE46YqPZv7x-_Fr_2EPMhX81P_U6XmpnutGboJhEVYVD44R84uSB4pWXT4lChNmzKD1eC85YZ31Z75akBSta5ifhKZTdIKgez1cffpZxQnIyTTtvuqKEH4OXdh-6BMXupP2IcKEwiHgUnTSZ9Vxgz6I0BU-cD2ZcrcKZu-meRsHeKcSJ8gI78H6DNowBPow-ZUZDdEPXSlBnFKYgxKII-2bDXgOqrQHX28PsX_XQj3Xxt_8pxrNSUw89mWCWZZDTQ0-YspJ_ZIaC0IkJOcsPL4MtE4tYRCXLABIc1_oK14okU8BisL0lpGCoarrWWJgo2Gbl-FX-BfpKoVb3NSCDSvLkfKnN4Ed2AT1jYFMIU9UScbefroTtYrCiFVMlGE9kd6xJL3jR1-S9yErgDPjpVm40]--></g></svg>