<?xml version="1.0" encoding="us-ascii" standalone="no"?><svg xmlns="http://www.w3.org/2000/svg" xmlns:xlink="http://www.w3.org/1999/xlink" contentStyleType="text/css" height="1039px" preserveAspectRatio="none" style="width:2136px;height:1039px;background:#FFFFFF;" version="1.1" viewBox="0 0 2136 1039" width="2136px" zoomAndPan="magnify"><defs/><g><!--class Employee--><g id="elem_Employee"><rect codeLine="2" fill="#F1F1F1" height="136.0469" id="Employee" rx="2.5" ry="2.5" style="stroke:#181818;stroke-width:0.5;" width="362" x="1379.5" y="16.5"/><ellipse cx="1525.25" cy="32.5" fill="#A9DCDF" rx="11" ry="11" style="stroke:#181818;stroke-width:1.0;"/><path d="M1527.4375,34.2656 L1523.2969,34.2656 L1522.875,35.2969 L1523.2969,35.2969 Q1523.9063,35.2969 1524.1719,35.5313 Q1524.4375,35.7656 1524.4375,36.1563 Q1524.4375,36.5313 1524.1719,36.7656 Q1523.9063,37 1523.2969,37 L1521,37 Q1520.3906,37 1520.1406,36.7656 Q1519.875,36.5313 1519.875,36.1406 Q1519.875,35.7656 1520.1563,35.5313 Q1520.4219,35.2813 1521.0469,35.2969 L1523.7188,28.6406 L1522.6094,28.6406 Q1522,28.6406 1521.7344,28.4063 Q1521.4688,28.1719 1521.4688,27.7813 Q1521.4688,27.4063 1521.7344,27.1719 Q1522,26.9375 1522.6094,26.9375 L1526.2813,26.9375 L1529.6719,35.2969 Q1530.2656,35.2969 1530.4531,35.4375 Q1530.8438,35.7031 1530.8438,36.1563 Q1530.8438,36.5313 1530.5781,36.7656 Q1530.3281,37 1529.7188,37 L1527.4219,37 Q1526.8125,37 1526.5469,36.7656 Q1526.2813,36.5313 1526.2813,36.1406 Q1526.2813,35.7656 1526.5469,35.5313 Q1526.8125,35.2969 1527.4219,35.2969 L1527.8438,35.2969 L1527.4375,34.2656 Z M1526.7188,32.5625 L1525.3594,29.1875 L1523.9844,32.5625 L1526.7188,32.5625 Z " fill="#000000"/><text fill="#000000" font-family="sans-serif" font-size="14" font-style="italic" lengthAdjust="spacing" textLength="62" x="1545.75" y="38.2285">Employee</text><line style="stroke:#181818;stroke-width:0.5;" x1="1380.5" x2="1740.5" y1="48.5" y2="48.5"/><text fill="#000000" font-family="sans-serif" font-size="14" lengthAdjust="spacing" textLength="104" x="1385.5" y="67.0332">employee_id: str</text><text fill="#000000" font-family="sans-serif" font-size="14" font-style="italic" lengthAdjust="spacing" textLength="59" x="1385.5" y="84.6426">name: str</text><text fill="#000000" font-family="sans-serif" font-size="14" font-style="italic" lengthAdjust="spacing" textLength="82" x="1385.5" y="102.252">firstname: str</text><line style="stroke:#181818;stroke-width:0.5;" x1="1380.5" x2="1740.5" y1="109.3281" y2="109.3281"/><text fill="#000000" font-family="sans-serif" font-size="14" lengthAdjust="spacing" textLength="350" x="1385.5" y="127.8613">Employee(employee_id: str, *kargs: Any, **kwargs: Any)</text><text fill="#000000" font-family="sans-serif" font-size="14" font-style="italic" lengthAdjust="spacing" textLength="98" x="1385.5" y="145.4707">close() -&gt; None</text></g><g id="elem_GMN3"><path d="M1003,6 L1003,163.1641 A0,0 0 0 0 1003,163.1641 L1344,163.1641 A0,0 0 0 0 1344,163.1641 L1344,88.5 L1379.37,84.5 L1344,80.5 L1344,16 L1334,6 L1003,6 A0,0 0 0 0 1003,6 " fill="#FEFFDD" style="stroke:#181818;stroke-width:0.5;"/><path d="M1334,6 L1334,16 L1344,16 L1334,6 " fill="#FEFFDD" style="stroke:#181818;stroke-width:0.5;"/><text fill="#000000" font-family="sans-serif" font-size="13" lengthAdjust="spacing" textLength="289" x="1009" y="24.4951">The `Employee` is the base interface that provides</text><text fill="#000000" font-family="sans-serif" font-size="13" lengthAdjust="spacing" textLength="320" x="1009" y="40.8467">access to general information about an employee, such</text><text fill="#000000" font-family="sans-serif" font-size="13" lengthAdjust="spacing" textLength="296" x="1009" y="57.1982">as his name, firstname, ID or anything that is static</text><text fill="#000000" font-family="sans-serif" font-size="13" lengthAdjust="spacing" textLength="288" x="1009" y="73.5498">(we may add the role, status, birthday and so on).</text><text fill="#000000" font-family="sans-serif" font-size="13" lengthAdjust="spacing" textLength="303" x="1009" y="89.9014">This interface doesn't provide any setter because the</text><text fill="#000000" font-family="sans-serif" font-size="13" lengthAdjust="spacing" textLength="256" x="1009" y="106.2529">implementation is supposed to be read-only.</text><text fill="#000000" font-family="sans-serif" font-size="13" lengthAdjust="spacing" textLength="277" x="1009" y="122.6045">Implementation(s) of this interface works with IO</text><text fill="#000000" font-family="sans-serif" font-size="13" lengthAdjust="spacing" textLength="307" x="1009" y="138.9561">resources (file, database). A context manager can be</text><text fill="#000000" font-family="sans-serif" font-size="13" lengthAdjust="spacing" textLength="283" x="1009" y="155.3076">used to automatically manage resource lifecycle.</text></g><!--class TimeTracker--><g id="elem_TimeTracker"><rect codeLine="23" fill="#F1F1F1" height="400.1875" id="TimeTracker" rx="2.5" ry="2.5" style="stroke:#181818;stroke-width:0.5;" width="448" x="1336.5" y="224"/><ellipse cx="1515.75" cy="240" fill="#A9DCDF" rx="11" ry="11" style="stroke:#181818;stroke-width:1.0;"/><path d="M1517.9375,241.7656 L1513.7969,241.7656 L1513.375,242.7969 L1513.7969,242.7969 Q1514.4063,242.7969 1514.6719,243.0313 Q1514.9375,243.2656 1514.9375,243.6563 Q1514.9375,244.0313 1514.6719,244.2656 Q1514.4063,244.5 1513.7969,244.5 L1511.5,244.5 Q1510.8906,244.5 1510.6406,244.2656 Q1510.375,244.0313 1510.375,243.6406 Q1510.375,243.2656 1510.6563,243.0313 Q1510.9219,242.7813 1511.5469,242.7969 L1514.2188,236.1406 L1513.1094,236.1406 Q1512.5,236.1406 1512.2344,235.9063 Q1511.9688,235.6719 1511.9688,235.2813 Q1511.9688,234.9063 1512.2344,234.6719 Q1512.5,234.4375 1513.1094,234.4375 L1516.7813,234.4375 L1520.1719,242.7969 Q1520.7656,242.7969 1520.9531,242.9375 Q1521.3438,243.2031 1521.3438,243.6563 Q1521.3438,244.0313 1521.0781,244.2656 Q1520.8281,244.5 1520.2188,244.5 L1517.9219,244.5 Q1517.3125,244.5 1517.0469,244.2656 Q1516.7813,244.0313 1516.7813,243.6406 Q1516.7813,243.2656 1517.0469,243.0313 Q1517.3125,242.7969 1517.9219,242.7969 L1518.3438,242.7969 L1517.9375,241.7656 Z M1517.2188,240.0625 L1515.8594,236.6875 L1514.4844,240.0625 L1517.2188,240.0625 Z " fill="#000000"/><text fill="#000000" font-family="sans-serif" font-size="14" font-style="italic" lengthAdjust="spacing" textLength="81" x="1536.25" y="245.7285">TimeTracker</text><line style="stroke:#181818;stroke-width:0.5;" x1="1337.5" x2="1783.5" y1="256" y2="256"/><text fill="#000000" font-family="sans-serif" font-size="14" font-style="italic" lengthAdjust="spacing" textLength="107" x="1342.5" y="274.5332">tracked_year: int</text><text fill="#000000" font-family="sans-serif" font-size="14" font-style="italic" lengthAdjust="spacing" textLength="228" x="1342.5" y="292.1426">opening_day_schedule: dt.timedelta</text><text fill="#000000" font-family="sans-serif" font-size="14" font-style="italic" lengthAdjust="spacing" textLength="190" x="1342.5" y="309.752">opening_balance: dt.timedelta</text><text fill="#000000" font-family="sans-serif" font-size="14" font-style="italic" lengthAdjust="spacing" textLength="184" x="1342.5" y="327.3613">opening_vacation_days: float</text><text fill="#000000" font-family="sans-serif" font-size="14" font-style="italic" lengthAdjust="spacing" textLength="198" x="1342.5" y="344.9707">max_clock_events_per_day: int</text><text fill="#000000" font-family="sans-serif" font-size="14" font-style="italic" lengthAdjust="spacing" textLength="255" x="1342.5" y="362.5801">max_continuous_work_time: dt.timedelta</text><line style="stroke:#181818;stroke-width:0.5;" x1="1337.5" x2="1783.5" y1="369.6563" y2="369.6563"/><text fill="#000000" font-family="sans-serif" font-size="14" font-style="italic" lengthAdjust="spacing" textLength="336" x="1342.5" y="388.1895">get_clocks(date: dt.date) -&gt; list[Optional[ClockEvent]]</text><text fill="#000000" font-family="sans-serif" font-size="14" font-style="italic" lengthAdjust="spacing" textLength="355" x="1342.5" y="405.7988">register_clock(date: dt.date, event: ClockEvent) -&gt; None</text><text fill="#000000" font-family="sans-serif" font-size="14" font-style="italic" lengthAdjust="spacing" textLength="436" x="1342.5" y="423.4082">write_clocks(date: dt.date, events: list[Optional[ClockEvent]]) -&gt; None</text><text fill="#000000" font-family="sans-serif" font-size="14" lengthAdjust="spacing" textLength="223" x="1342.5" y="441.0176">is_clocked_in(date: dt.date) -&gt; bool</text><text fill="#000000" font-family="sans-serif" font-size="14" font-style="italic" lengthAdjust="spacing" textLength="326" x="1342.5" y="458.627">set_vacation(date: dt.date, day_ratio: float) -&gt; None</text><text fill="#000000" font-family="sans-serif" font-size="14" font-style="italic" lengthAdjust="spacing" textLength="218" x="1342.5" y="476.2363">get_vacation(date: dt.date) -&gt; float</text><text fill="#000000" font-family="sans-serif" font-size="14" font-style="italic" lengthAdjust="spacing" textLength="363" x="1342.5" y="493.8457">set_paid_absence(date: dt.date, day_ratio: float) -&gt; None</text><text fill="#000000" font-family="sans-serif" font-size="14" font-style="italic" lengthAdjust="spacing" textLength="255" x="1342.5" y="511.4551">get_paid_absence(date: dt.date) -&gt; float</text><text fill="#000000" font-family="sans-serif" font-size="14" font-style="italic" lengthAdjust="spacing" textLength="363" x="1342.5" y="529.0645">set_attendance_error(date: dt.date, error_id: int) -&gt; None</text><text fill="#000000" font-family="sans-serif" font-size="14" font-style="italic" lengthAdjust="spacing" textLength="264" x="1342.5" y="546.6738">get_attendance_error(date: dt.date) -&gt; int</text><text fill="#000000" font-family="sans-serif" font-size="14" font-style="italic" lengthAdjust="spacing" textLength="296" x="1342.5" y="564.2832">get_attendance_error_desc(error_id: int) -&gt; str</text><text fill="#000000" font-family="sans-serif" font-size="14" font-style="italic" lengthAdjust="spacing" textLength="313" x="1342.5" y="581.8926">set_last_validation_anchor(date: dt.date) -&gt; None</text><text fill="#000000" font-family="sans-serif" font-size="14" font-style="italic" lengthAdjust="spacing" textLength="244" x="1342.5" y="599.502">get_last_validation_anchor() -&gt; dt.date</text><text fill="#000000" font-family="sans-serif" font-size="14" font-style="italic" lengthAdjust="spacing" textLength="94" x="1342.5" y="617.1113">save() -&gt; None</text></g><g id="elem_GMN7"><path d="M950,353.5 L950,494.3125 A0,0 0 0 0 950,494.3125 L1301,494.3125 A0,0 0 0 0 1301,494.3125 L1301,428 L1336.29,424 L1301,420 L1301,363.5 L1291,353.5 L950,353.5 A0,0 0 0 0 950,353.5 " fill="#FEFFDD" style="stroke:#181818;stroke-width:0.5;"/><path d="M1291,353.5 L1291,363.5 L1301,363.5 L1291,353.5 " fill="#FEFFDD" style="stroke:#181818;stroke-width:0.5;"/><text fill="#000000" font-family="sans-serif" font-size="13" lengthAdjust="spacing" textLength="318" x="956" y="371.9951">The `TimeTracker` is a specialization of the `Employee`</text><text fill="#000000" font-family="sans-serif" font-size="13" lengthAdjust="spacing" textLength="315" x="956" y="388.3467">interface that provides methods to read and write clock</text><text fill="#000000" font-family="sans-serif" font-size="13" lengthAdjust="spacing" textLength="320" x="956" y="404.6982">events (such as clock-ins and clock-outs), day vacation</text><text fill="#000000" font-family="sans-serif" font-size="13" lengthAdjust="spacing" textLength="321" x="956" y="421.0498">and day attendance error. It focuses on single days and</text><text fill="#000000" font-family="sans-serif" font-size="13" lengthAdjust="spacing" textLength="329" x="956" y="437.4014">does not evaluate any given data in any way. The `save()`</text><text fill="#000000" font-family="sans-serif" font-size="13" lengthAdjust="spacing" textLength="315" x="956" y="453.7529">method allows to write the data to the storage system.</text><text fill="#000000" font-family="sans-serif" font-size="13" lengthAdjust="spacing" textLength="326" x="956" y="470.1045">Each `TimeTracker` instance is bound to a specific year,</text><text fill="#000000" font-family="sans-serif" font-size="13" lengthAdjust="spacing" textLength="320" x="956" y="486.4561">and all read or write operations must relate to that year.</text></g><!--class TimeTrackerAnalyzer--><g id="elem_TimeTrackerAnalyzer"><rect codeLine="58" fill="#F1F1F1" height="347.3594" id="TimeTrackerAnalyzer" rx="2.5" ry="2.5" style="stroke:#181818;stroke-width:0.5;" width="421" x="1012" y="685"/><ellipse cx="1150.25" cy="701" fill="#A9DCDF" rx="11" ry="11" style="stroke:#181818;stroke-width:1.0;"/><path d="M1152.4375,702.7656 L1148.2969,702.7656 L1147.875,703.7969 L1148.2969,703.7969 Q1148.9063,703.7969 1149.1719,704.0313 Q1149.4375,704.2656 1149.4375,704.6563 Q1149.4375,705.0313 1149.1719,705.2656 Q1148.9063,705.5 1148.2969,705.5 L1146,705.5 Q1145.3906,705.5 1145.1406,705.2656 Q1144.875,705.0313 1144.875,704.6406 Q1144.875,704.2656 1145.1563,704.0313 Q1145.4219,703.7813 1146.0469,703.7969 L1148.7188,697.1406 L1147.6094,697.1406 Q1147,697.1406 1146.7344,696.9063 Q1146.4688,696.6719 1146.4688,696.2813 Q1146.4688,695.9063 1146.7344,695.6719 Q1147,695.4375 1147.6094,695.4375 L1151.2813,695.4375 L1154.6719,703.7969 Q1155.2656,703.7969 1155.4531,703.9375 Q1155.8438,704.2031 1155.8438,704.6563 Q1155.8438,705.0313 1155.5781,705.2656 Q1155.3281,705.5 1154.7188,705.5 L1152.4219,705.5 Q1151.8125,705.5 1151.5469,705.2656 Q1151.2813,705.0313 1151.2813,704.6406 Q1151.2813,704.2656 1151.5469,704.0313 Q1151.8125,703.7969 1152.4219,703.7969 L1152.8438,703.7969 L1152.4375,702.7656 Z M1151.7188,701.0625 L1150.3594,697.6875 L1148.9844,701.0625 L1151.7188,701.0625 Z " fill="#000000"/><text fill="#000000" font-family="sans-serif" font-size="14" font-style="italic" lengthAdjust="spacing" textLength="136" x="1170.75" y="706.7285">TimeTrackerAnalyzer</text><line style="stroke:#181818;stroke-width:0.5;" x1="1013" x2="1432" y1="717" y2="717"/><text fill="#000000" font-family="sans-serif" font-size="14" font-style="italic" lengthAdjust="spacing" textLength="238" x="1018" y="735.5332">target_datetime: Optional[dt.datetime]</text><text fill="#000000" font-family="sans-serif" font-size="14" lengthAdjust="spacing" textLength="91" x="1018" y="753.1426">analyzed: bool</text><line style="stroke:#181818;stroke-width:0.5;" x1="1013" x2="1432" y1="760.2188" y2="760.2188"/><text fill="#000000" font-family="sans-serif" font-size="14" lengthAdjust="spacing" textLength="289" x="1018" y="778.752">analyze(target_datetime: dt.datetime) -&gt; None</text><text fill="#000000" font-family="sans-serif" font-size="14" font-style="italic" lengthAdjust="spacing" textLength="309" x="1018" y="796.3613">read_day_schedule(date: dt.date) -&gt; dt.timedelta</text><text fill="#000000" font-family="sans-serif" font-size="14" font-style="italic" lengthAdjust="spacing" textLength="332" x="1018" y="813.9707">read_day_worked_time(date: dt.date) -&gt; dt.timedelta</text><text fill="#000000" font-family="sans-serif" font-size="14" font-style="italic" lengthAdjust="spacing" textLength="302" x="1018" y="831.5801">read_day_balance(date: dt.date) -&gt; dt.timedelta</text><text fill="#000000" font-family="sans-serif" font-size="14" font-style="italic" lengthAdjust="spacing" textLength="304" x="1018" y="849.1895">read_day_attendance_error(date: dt.date) -&gt; int</text><text fill="#000000" font-family="sans-serif" font-size="14" font-style="italic" lengthAdjust="spacing" textLength="409" x="1018" y="866.7988">read_month_expected_daily_schedule(month: int) -&gt; dt.timedelta</text><text fill="#000000" font-family="sans-serif" font-size="14" font-style="italic" lengthAdjust="spacing" textLength="307" x="1018" y="884.4082">read_month_schedule(month: int) -&gt; dt.timedelta</text><text fill="#000000" font-family="sans-serif" font-size="14" font-style="italic" lengthAdjust="spacing" textLength="330" x="1018" y="902.0176">read_month_worked_time(month: int) -&gt; dt.timedelta</text><text fill="#000000" font-family="sans-serif" font-size="14" font-style="italic" lengthAdjust="spacing" textLength="300" x="1018" y="919.627">read_month_balance(month: int) -&gt; dt.timedelta</text><text fill="#000000" font-family="sans-serif" font-size="14" font-style="italic" lengthAdjust="spacing" textLength="256" x="1018" y="937.2363">read_month_vacation(month: int) -&gt; float</text><text fill="#000000" font-family="sans-serif" font-size="14" font-style="italic" lengthAdjust="spacing" textLength="183" x="1018" y="954.8457">read_year_vacation() -&gt; float</text><text fill="#000000" font-family="sans-serif" font-size="14" font-style="italic" lengthAdjust="spacing" textLength="253" x="1018" y="972.4551">read_year_remaining_vacation() -&gt; float</text><text fill="#000000" font-family="sans-serif" font-size="14" font-style="italic" lengthAdjust="spacing" textLength="283" x="1018" y="990.0645">read_year_to_date_balance() -&gt; dt.timedelta</text><text fill="#000000" font-family="sans-serif" font-size="14" lengthAdjust="spacing" textLength="317" x="1018" y="1007.6738">read_year_to_yesterday_balance() -&gt; dt.timedelta</text><text fill="#000000" font-family="sans-serif" font-size="14" font-style="italic" lengthAdjust="spacing" textLength="229" x="1018" y="1025.2832">read_year_attendance_error() -&gt; int</text></g><g id="elem_GMN11"><path d="M588.5,706.5 L588.5,1010.8281 A0,0 0 0 0 588.5,1010.8281 L976.5,1010.8281 A0,0 0 0 0 976.5,1010.8281 L976.5,862.5 L1011.76,858.5 L976.5,854.5 L976.5,716.5 L966.5,706.5 L588.5,706.5 A0,0 0 0 0 588.5,706.5 " fill="#FEFFDD" style="stroke:#181818;stroke-width:0.5;"/><path d="M966.5,706.5 L966.5,716.5 L976.5,716.5 L966.5,706.5 " fill="#FEFFDD" style="stroke:#181818;stroke-width:0.5;"/><text fill="#000000" font-family="sans-serif" font-size="13" lengthAdjust="spacing" textLength="363" x="594.5" y="724.9951">The `TimeTrackerAnalyzer` interface extends the `TimeTracker`</text><text fill="#000000" font-family="sans-serif" font-size="13" lengthAdjust="spacing" textLength="327" x="594.5" y="741.3467">interface by providing methods to analyze an employee&#8217;s</text><text fill="#000000" font-family="sans-serif" font-size="13" lengthAdjust="spacing" textLength="324" x="594.5" y="757.6982">data, including day, month, and year balances, dynamic</text><text fill="#000000" font-family="sans-serif" font-size="13" lengthAdjust="spacing" textLength="358" x="594.5" y="774.0498">daily schedules based on weekdays and vacations, and more.</text><text fill="#000000" font-family="sans-serif" font-size="13" lengthAdjust="spacing" textLength="4" x="594.5" y="790.4014">&#160;</text><text fill="#000000" font-family="sans-serif" font-size="13" lengthAdjust="spacing" textLength="328" x="594.5" y="806.7529">Data is not immediately available. It becomes accessible</text><text fill="#000000" font-family="sans-serif" font-size="13" lengthAdjust="spacing" textLength="321" x="594.5" y="823.1045">only after calling the `analyze()` method with a specified</text><text fill="#000000" font-family="sans-serif" font-size="13" lengthAdjust="spacing" textLength="326" x="594.5" y="839.4561">`target_datetime`. This datetime defines the point in time</text><text fill="#000000" font-family="sans-serif" font-size="13" lengthAdjust="spacing" textLength="315" x="594.5" y="855.8076">the analysis is based on. For example, if the tracker is</text><text fill="#000000" font-family="sans-serif" font-size="13" lengthAdjust="spacing" textLength="346" x="594.5" y="872.1592">analyzed at 10:00 on a given day and the employee clocked</text><text fill="#000000" font-family="sans-serif" font-size="13" lengthAdjust="spacing" textLength="318" x="594.5" y="888.5107">in at 08:00, the worked time will be 2 hours. If analyzed</text><text fill="#000000" font-family="sans-serif" font-size="13" lengthAdjust="spacing" textLength="153" x="594.5" y="904.8623">at 11:00, it will be 3 hours.</text><text fill="#000000" font-family="sans-serif" font-size="13" lengthAdjust="spacing" textLength="4" x="594.5" y="921.2139">&#160;</text><text fill="#000000" font-family="sans-serif" font-size="13" lengthAdjust="spacing" textLength="350" x="594.5" y="937.5654">The analyzer also performs basic attendance error detection,</text><text fill="#000000" font-family="sans-serif" font-size="13" lengthAdjust="spacing" textLength="335" x="594.5" y="953.917">such as identifying missing clock-out events. These errors</text><text fill="#000000" font-family="sans-serif" font-size="13" lengthAdjust="spacing" textLength="332" x="594.5" y="970.2686">can be retrieved using `read_attendance_error(date)`. This</text><text fill="#000000" font-family="sans-serif" font-size="13" lengthAdjust="spacing" textLength="344" x="594.5" y="986.6201">differs from the `set/get_attendance_error()` methods, which</text><text fill="#000000" font-family="sans-serif" font-size="13" lengthAdjust="spacing" textLength="307" x="594.5" y="1002.9717">are used to manually define or retrieve custom errors.</text></g><!--class ClockAction--><g id="elem_ClockAction"><rect codeLine="103" fill="#F1F1F1" height="83.2188" id="ClockAction" rx="2.5" ry="2.5" style="stroke:#181818;stroke-width:0.5;" width="106" x="2023.5" y="382.5"/><ellipse cx="2038.5" cy="398.5" fill="#EB937F" rx="11" ry="11" style="stroke:#181818;stroke-width:1.0;"/><path d="M2037.3594,399.2969 L2037.3594,401.7969 L2041.6875,401.7969 L2041.6875,400.875 Q2041.6875,400.2656 2041.9219,400 Q2042.1719,399.7344 2042.5469,399.7344 Q2042.9219,399.7344 2043.1563,400 Q2043.3906,400.2656 2043.3906,400.875 L2043.3906,403.5 L2035.3906,403.5 Q2034.7656,403.5 2034.5,403.2656 Q2034.25,403.0313 2034.25,402.6406 Q2034.25,402.2656 2034.5156,402.0313 Q2034.7813,401.7969 2035.3906,401.7969 L2035.6563,401.7969 L2035.6563,395.1406 L2035.3906,395.1406 Q2034.7656,395.1406 2034.5,394.9063 Q2034.25,394.6719 2034.25,394.2813 Q2034.25,393.9063 2034.5,393.6719 Q2034.7656,393.4375 2035.3906,393.4375 L2043.0156,393.4375 L2043.0156,396.0313 Q2043.0156,396.6406 2042.7813,396.9063 Q2042.5625,397.1563 2042.1719,397.1563 Q2041.7969,397.1563 2041.5625,396.9063 Q2041.3281,396.6406 2041.3281,396.0313 L2041.3281,395.1406 L2037.3594,395.1406 L2037.3594,397.5938 L2038.8438,397.5938 Q2038.8438,396.9375 2038.9688,396.75 Q2039.2344,396.3438 2039.7031,396.3438 Q2040.0781,396.3438 2040.3125,396.6094 Q2040.5469,396.8594 2040.5469,397.4688 L2040.5469,399.4375 Q2040.5469,399.9844 2040.4219,400.1719 Q2040.1563,400.5625 2039.7031,400.5625 Q2039.2344,400.5625 2038.9688,400.1563 Q2038.8438,399.9688 2038.8438,399.2969 L2037.3594,399.2969 Z " fill="#000000"/><text fill="#000000" font-family="sans-serif" font-size="14" lengthAdjust="spacing" textLength="74" x="2052.5" y="404.2285">ClockAction</text><line style="stroke:#181818;stroke-width:0.5;" x1="2024.5" x2="2128.5" y1="414.5" y2="414.5"/><text fill="#000000" font-family="sans-serif" font-size="14" lengthAdjust="spacing" textLength="68" x="2029.5" y="433.0332">CLOCK_IN</text><text fill="#000000" font-family="sans-serif" font-size="14" lengthAdjust="spacing" textLength="85" x="2029.5" y="450.6426">CLOCK_OUT</text><line style="stroke:#181818;stroke-width:0.5;" x1="2024.5" x2="2128.5" y1="457.7188" y2="457.7188"/></g><!--class ClockEvent--><g id="elem_ClockEvent"><rect codeLine="108" fill="#F1F1F1" height="93.9219" id="ClockEvent" rx="2.5" ry="2.5" style="stroke:#181818;stroke-width:0.5;" width="132" x="1819.5" y="377"/><ellipse cx="1847.55" cy="398.3516" fill="#ADD1B2" rx="11" ry="11" style="stroke:#181818;stroke-width:1.0;"/><path d="M1850.3156,394.2266 Q1850.4719,394.0078 1850.6594,393.8984 Q1850.8469,393.7891 1851.0656,393.7891 Q1851.4406,393.7891 1851.675,394.0547 Q1851.9094,394.3047 1851.9094,394.9141 L1851.9094,396.3672 Q1851.9094,396.9766 1851.675,397.2422 Q1851.4406,397.5078 1851.0656,397.5078 Q1850.7219,397.5078 1850.5188,397.3047 Q1850.3156,397.1172 1850.2063,396.6016 Q1850.1594,396.2422 1849.9719,396.0547 Q1849.6438,395.6797 1849.0344,395.4609 Q1848.425,395.2422 1847.8,395.2422 Q1847.0344,395.2422 1846.3938,395.5703 Q1845.7688,395.8984 1845.2688,396.6484 Q1844.7844,397.3984 1844.7844,398.4297 L1844.7844,399.5234 Q1844.7844,400.7578 1845.675,401.5859 Q1846.5656,402.3984 1848.1594,402.3984 Q1849.0969,402.3984 1849.7531,402.1484 Q1850.1438,401.9922 1850.5656,401.5547 Q1850.8313,401.2891 1850.9719,401.2109 Q1851.1281,401.1328 1851.3313,401.1328 Q1851.6594,401.1328 1851.9094,401.3984 Q1852.175,401.6484 1852.175,401.9922 Q1852.175,402.3359 1851.8313,402.7422 Q1851.3313,403.3203 1850.5344,403.6484 Q1849.4563,404.1016 1848.1594,404.1016 Q1846.6438,404.1016 1845.4406,403.4766 Q1844.4563,402.9766 1843.7688,401.9141 Q1843.0813,400.8359 1843.0813,399.5547 L1843.0813,398.3984 Q1843.0813,397.0703 1843.6906,395.9297 Q1844.3156,394.7734 1845.4094,394.1641 Q1846.5031,393.5391 1847.7375,393.5391 Q1848.4719,393.5391 1849.1125,393.7109 Q1849.7688,393.8672 1850.3156,394.2266 Z " fill="#000000"/><text fill="#000000" font-family="sans-serif" font-size="12" font-style="italic" lengthAdjust="spacing" textLength="66" x="1866.95" y="394.457">&#171;dataclass&#187;</text><text fill="#000000" font-family="sans-serif" font-size="14" lengthAdjust="spacing" textLength="71" x="1864.45" y="411.627">ClockEvent</text><line style="stroke:#181818;stroke-width:0.5;" x1="1820.5" x2="1950.5" y1="419.7031" y2="419.7031"/><text fill="#000000" font-family="sans-serif" font-size="14" lengthAdjust="spacing" textLength="120" x="1825.5" y="438.2363">action: ClockAction</text><text fill="#000000" font-family="sans-serif" font-size="14" lengthAdjust="spacing" textLength="80" x="1825.5" y="455.8457">time : dt.time</text><line style="stroke:#181818;stroke-width:0.5;" x1="1820.5" x2="1950.5" y1="462.9219" y2="462.9219"/></g><!--class TimeTrackerAnalyzerFactory--><g id="elem_TimeTrackerAnalyzerFactory"><rect codeLine="116" fill="#F1F1F1" height="93.9219" id="TimeTrackerAnalyzerFactory" rx="2.5" ry="2.5" style="stroke:#181818;stroke-width:0.5;" width="480" x="434.5" y="377"/><ellipse cx="579.25" cy="398.3516" fill="#ADD1B2" rx="11" ry="11" style="stroke:#181818;stroke-width:1.0;"/><path d="M582.0156,394.2266 Q582.1719,394.0078 582.3594,393.8984 Q582.5469,393.7891 582.7656,393.7891 Q583.1406,393.7891 583.375,394.0547 Q583.6094,394.3047 583.6094,394.9141 L583.6094,396.3672 Q583.6094,396.9766 583.375,397.2422 Q583.1406,397.5078 582.7656,397.5078 Q582.4219,397.5078 582.2188,397.3047 Q582.0156,397.1172 581.9063,396.6016 Q581.8594,396.2422 581.6719,396.0547 Q581.3438,395.6797 580.7344,395.4609 Q580.125,395.2422 579.5,395.2422 Q578.7344,395.2422 578.0938,395.5703 Q577.4688,395.8984 576.9688,396.6484 Q576.4844,397.3984 576.4844,398.4297 L576.4844,399.5234 Q576.4844,400.7578 577.375,401.5859 Q578.2656,402.3984 579.8594,402.3984 Q580.7969,402.3984 581.4531,402.1484 Q581.8438,401.9922 582.2656,401.5547 Q582.5313,401.2891 582.6719,401.2109 Q582.8281,401.1328 583.0313,401.1328 Q583.3594,401.1328 583.6094,401.3984 Q583.875,401.6484 583.875,401.9922 Q583.875,402.3359 583.5313,402.7422 Q583.0313,403.3203 582.2344,403.6484 Q581.1563,404.1016 579.8594,404.1016 Q578.3438,404.1016 577.1406,403.4766 Q576.1563,402.9766 575.4688,401.9141 Q574.7813,400.8359 574.7813,399.5547 L574.7813,398.3984 Q574.7813,397.0703 575.3906,395.9297 Q576.0156,394.7734 577.1094,394.1641 Q578.2031,393.5391 579.4375,393.5391 Q580.1719,393.5391 580.8125,393.7109 Q581.4688,393.8672 582.0156,394.2266 Z " fill="#000000"/><text fill="#000000" font-family="sans-serif" font-size="12" font-style="italic" lengthAdjust="spacing" textLength="66" x="657.75" y="394.457">&#171;Singleton&#187;</text><text fill="#000000" font-family="sans-serif" font-size="14" lengthAdjust="spacing" textLength="182" x="599.75" y="411.627">TimeTrackerAnalyzerFactory</text><line style="stroke:#181818;stroke-width:0.5;" x1="435.5" x2="913.5" y1="419.7031" y2="419.7031"/><line style="stroke:#181818;stroke-width:0.5;" x1="435.5" x2="913.5" y1="427.7031" y2="427.7031"/><text fill="#000000" font-family="sans-serif" font-size="14" font-style="italic" lengthAdjust="spacing" textLength="468" x="440.5" y="446.2363">create(employee_id: str, year: int, readonly: bool) -&gt; TimeTrackerAnalyzer</text><text fill="#000000" font-family="sans-serif" font-size="14" font-style="italic" lengthAdjust="spacing" textLength="184" x="440.5" y="463.8457">list_employee_ids() -&gt; list[str]</text></g><g id="elem_GMN23"><path d="M6,329 L6,518.8672 A0,0 0 0 0 6,518.8672 L399,518.8672 A0,0 0 0 0 399,518.8672 L399,428 L434.26,424 L399,420 L399,339 L389,329 L6,329 A0,0 0 0 0 6,329 " fill="#FEFFDD" style="stroke:#181818;stroke-width:0.5;"/><path d="M389,329 L389,339 L399,339 L389,329 " fill="#FEFFDD" style="stroke:#181818;stroke-width:0.5;"/><text fill="#000000" font-family="sans-serif" font-size="13" lengthAdjust="spacing" textLength="341" x="12" y="347.4951">The TimeTrackerAnalyzerFactory is a generic interface that</text><text fill="#000000" font-family="sans-serif" font-size="13" lengthAdjust="spacing" textLength="368" x="12" y="363.8467">provides a simple way to create TimeTrackerAnalyzer instances</text><text fill="#000000" font-family="sans-serif" font-size="13" lengthAdjust="spacing" textLength="231" x="12" y="380.1982">using an employee ID and a target year.</text><text fill="#000000" font-family="sans-serif" font-size="13" lengthAdjust="spacing" textLength="330" x="12" y="396.5498">Typically, implementations of this interface are created at</text><text fill="#000000" font-family="sans-serif" font-size="13" lengthAdjust="spacing" textLength="348" x="12" y="412.9014">startup and injected into any module that needs to work with</text><text fill="#000000" font-family="sans-serif" font-size="13" lengthAdjust="spacing" textLength="344" x="12" y="429.2529">time trackers, allowing the module to remain unaware of the</text><text fill="#000000" font-family="sans-serif" font-size="13" lengthAdjust="spacing" textLength="252" x="12" y="445.6045">specific time tracker implementation in use.</text><text fill="#000000" font-family="sans-serif" font-size="13" lengthAdjust="spacing" textLength="313" x="12" y="461.9561">The factory also provides a utility method to retrieve all</text><text fill="#000000" font-family="sans-serif" font-size="13" lengthAdjust="spacing" textLength="227" x="12" y="478.3076">employee IDs registered in the system.</text><text fill="#000000" font-family="sans-serif" font-size="13" lengthAdjust="spacing" textLength="319" x="12" y="494.6592">The `readonly` flag can be specified. If supported by the</text><text fill="#000000" font-family="sans-serif" font-size="13" lengthAdjust="spacing" textLength="324" x="12" y="511.0107">implementation, a read-only time tracker will be created.</text></g><!--reverse link Employee to TimeTracker--><g id="link_Employee_TimeTracker"><path codeLine="100" d="M1560.5,170.58 C1560.5,191.73 1560.5,198.27 1560.5,223.77 " fill="none" id="Employee-backto-TimeTracker" style="stroke:#181818;stroke-width:1.0;"/><polygon fill="none" points="1560.5,152.58,1554.5,170.58,1566.5,170.58,1560.5,152.58" style="stroke:#181818;stroke-width:1.0;"/></g><!--reverse link TimeTracker to TimeTrackerAnalyzer--><g id="link_TimeTracker_TimeTrackerAnalyzer"><path codeLine="101" d="M1393.7747,638.3416 C1377.9147,658.6316 1372.99,664.93 1357.39,684.9 " fill="none" id="TimeTracker-backto-TimeTrackerAnalyzer" style="stroke:#181818;stroke-width:1.0;"/><polygon fill="none" points="1404.86,624.16,1389.0476,634.6465,1398.5019,642.0367,1404.86,624.16" style="stroke:#181818;stroke-width:1.0;"/></g><!--reverse link TimeTracker to ClockEvent--><g id="link_TimeTracker_ClockEvent"><path codeLine="113" d="M1790.57,424 C1802.14,424 1807.7,424 1819.27,424 " fill="none" id="TimeTracker-backto-ClockEvent" style="stroke:#181818;stroke-width:1.0;stroke-dasharray:7.0,7.0;"/><polygon fill="#181818" points="1784.57,424,1793.57,428,1789.57,424,1793.57,420,1784.57,424" style="stroke:#181818;stroke-width:1.0;"/></g><!--reverse link ClockEvent to ClockAction--><g id="link_ClockEvent_ClockAction"><path codeLine="114" d="M1963.77,424 C1987.15,424 2001.11,424 2023.28,424 " fill="none" id="ClockEvent-backto-ClockAction" style="stroke:#181818;stroke-width:1.0;"/><polygon fill="#181818" points="1951.77,424,1957.77,428,1963.77,424,1957.77,420,1951.77,424" style="stroke:#181818;stroke-width:1.0;"/><text fill="#000000" font-family="sans-serif" font-size="13" lengthAdjust="spacing" textLength="35" x="1970" y="417.4951">action</text></g><!--reverse link TimeTrackerAnalyzerFactory to TimeTrackerAnalyzer--><g id="link_TimeTrackerAnalyzerFactory_TimeTrackerAnalyzer"><path codeLine="135" d="M737.5998,474.7973 C803.9898,527.1973 911.49,612.04 1011.75,691.17 " fill="none" id="TimeTrackerAnalyzerFactory-backto-TimeTrackerAnalyzer" style="stroke:#181818;stroke-width:1.0;stroke-dasharray:7.0,7.0;"/><polygon fill="#181818" points="732.89,471.08,737.4764,479.7958,736.8148,474.1777,742.4328,473.5161,732.89,471.08" style="stroke:#181818;stroke-width:1.0;"/></g><!--SRC=[fLZDZjis4BxhAGQvr1jutRIz58iWG92cmA95SsXwAWARbYYRNKaqI6eTjGtGr-ZhzKdwpP2I9Lkx3ROtcvh_6NupGxNrmQayK5ufx-dPs_fGsKxhP_H7HgJJlxKfRWY4EFf39OvFZQhrvMbfd0-dJ_ZMYroSIrlIyplbTlw6NZST_Zo_Emv_hoP2yyfwlRYYwrVqasrqzYdB6XiqLReC1ChtUqsRNi-6ZAU0awtocamJj2jLhd6a0XsSlJU5ziobybp3vs1ffnljL0NYqhfQ1MCRKblR1bBD48Gb-JRVCv-dFLImaqiQ_5tIxNTa7JYwi3VDBke3dGyGc8DlSTHKguvKKOXzpbOi59zRlwIjSM5VyEUc86_9DbShSGqYJauKLllcYy4FraPU1tochSvLwxM81gE1sRhMJOZki27juO0u5kpn5kgrAgvjKtMivdP2lV1NP4j8ckW-MdVdwMZ2dcxViGgdlMqTWaYBqh0lXGgAetwrejUKMt1-372vKJlOboEMMp6jJKQeDbYETgwggajqWr2gJAdpBg_qAjC82ISyozHPlRutjNwFWpljOicUYYR8SR7kj78txCRagpte1bbQ8-9hd-zrqLOesIAi0YGMkWfgbdohAjNadqDvhtA99Mj0JPULLLCBQlLnZSBExzRw7e7twuDsJ7nfgr0YcgPfRUlNd8SrAp-pOiApqo5Azmja9PBo3xb4bV7XrtS7DazLlxvXihTimuSF4nbExq08gqJGLCwInEeREd6VxkTOoD6Pe6TDII8Gd8Vj6SiqFef1JaqpuzNMscgY6XTZICEvQiwxuoyfDVF6xnwK8FINIMML1sMADKuq2kNfQX-MyeXg1IHe2gxGjNREkek0yw7WhsaUqVsu6E4xhz4vjZM0DbzSwZpl6MmvhZE7kZ95l3MGifzLF6lm0zp2a9Yd6jNzG_qaasOomXNf9uhyGUS66dwFU2hmEEawsKEjfjPXRmjfD8ov0l1oAqZAcR9u3MZ1_OMxYnnVcyOBQVo7PkIlf7weBqZA-BEqZ27mCSChkWrKsXn0wz58o0EGAisa8ZBZBiA0YWkegXR1aJwoCx13C1oPafEZwbQnkSQ0RRBe2m6mxL4yYevmA8GH9_pR1-iOp7q7_AXNsLi5pyw2sg3piSM8Bbfj4pj237DfScBONaONeIr63kqrwWF8oYr2YEhM1tojs0lHZj0pxsTsZTT0dExtcUw1KGI5nPKJeNQ0frHFVCfmgQ80b7V2dzFPuaB8Y7U-cDdDIK-QkG4Fjfw1cJi4K9AfdiIVkjoJU9-07S9Rey7jr_eZyXyqYpBLA0hozOGWZviHHVqVtd40dy3Un-y9h4EtEUEzn7jXuae_yVmdfTErCfFnvBzvWfK27foQSsL2tMaU6iPrz1dU2_D5xGpbyYX2ztTuCnfMCNb2L5m4fi0pmkbjbr2Qv_KHJAVxEvx-__dhRomDZ75BQCchLdZWv98aKql1QlQ2ajUOwOiEcm6mB9DgfhuYlQmc1IFpKUkx7fO7OFTHM6qTPj_iEm7aYDUcHW0DiW5fwXv2rHRpCQCzfdzRGt9SQWoEAUFXdbGPPFYkghYK81mzF5rjajDng1_05wPbcpFisgpYAjB_fqANfj4nm0UBc7BJa2yP7uaEp_l3oTiLVGy4rnyLBni8OsoXSKvtJ9ZrO8gEHb-zk7dnWcEaXiuKboDcwjD2QIBah3BJYs_1j1IIU8UZIKU35eBbuslQOxdmY5Wv03UqGjbNmcV2GFfD8isat18nrhiAkncw3o-AuXdIUzv-4Pi054CcqS3wfevH01DysKcf6Syj-TJQqoGipTOdAGX7MfcS3iw0ei3cn6mRkJ6pG7lLvoahJ5bg22cThMFQCMPzEJlT3NM0mZlk3UpDbDF3ceR5h9KDBQQSkt1l4M74m0wN31wtt7ukefT_Nb_Jw09cezyN7_kRd45IMzCpMGLUIoXZWtxpuxitFwnlVnf-lllbFOD3QkodrU4PlNp9jrK-l7ebp4e4fPKbIiMf5CYmIh6manHQLQjN4-j7l7HTFH-jFv0H5GpMp3ZsFKYiwzYwdsKe2xP9resUEv3VCFTUCgooIq5Sljznx12Sd8lZM2nlMUkHKByuBOCW-J05sVYgyh0BSIgMbnDSWRFP5zp3-0jOaRS8dYQvdA9tSvA7cT37LmAkzH44ymEBZ8CKiIcDUJ2qEyGtXENPguUVUSNWoeuc2Cg07JfTQ0yYspI_oVp135PcuDeoP4Ut6grZWs1iYQ3P5r12COPkderxhEsvUVJdrajjeuviGjeVM7q_yOxbN3pVD7mTLoahPKf11ADJeDjWAXEw7jL5QxgeF4EFNlGGIq_zVY_knhazpUlfIQqliWq61BNhNt26BY4mAgzAZaE6RWeP5qzFYCZfhMdgP8-rAHzZ_7Yay5wkLhEr_Yy0]--></g></svg>